<mxfile host="app.diagrams.net" agent="Mozilla/5.0 (Windows NT 10.0; Win64; x64) AppleWebKit/537.36 (KHTML, like Gecko) Chrome/127.0.0.0 Safari/537.36 Edg/127.0.0.0" version="24.7.7">
  <diagram name="Page-1" id="IiKWfaLGEAQ7wXJNBV4k">
    <mxGraphModel dx="392" dy="541" grid="1" gridSize="10" guides="1" tooltips="1" connect="1" arrows="1" fold="1" page="1" pageScale="1" pageWidth="850" pageHeight="1100" math="0" shadow="0">
      <root>
        <mxCell id="0" />
        <mxCell id="1" parent="0" />
        <mxCell id="kr8paNhLtI3nxgarg2Cw-1" value="" style="shape=image;verticalLabelPosition=bottom;labelBackgroundColor=default;verticalAlign=top;aspect=fixed;imageAspect=0;image=data:image/png,iVBORw0KGgoAAAANSUhEUgAAA/8AAAJxCAYAAAAUzwJKAAAAAXNSR0IArs4c6QAAAARnQU1BAACxjwv8YQUAAAAJcEhZcwAADsMAAA7DAcdvqGQAAP+lSURBVHhe7N0HfBRFGwfg/11y6b33ToDQQ0LvvUhHFAUFAakqIIiKWMCGXZEiIh2VjhTpnUACAUIKhEB67530vW/2bi+5hJQLBD4434ff6rZsndmdd3d2TuTq6irFU8bWiejoaGGIEEIIIYQQQgghT5JY+D8hhBBCCCGEEELUFAX/hBBCCCGEEEKImqPgnxBCCCGEEEIIUXMU/BNCCCGEEEIIIWqOgn9CCCGEEEIIIUTNUfBPCCGEEEIIIYSoOQr+CSGEEEIIIYQQNUfBPyGEEEIIIYQQouYo+CeEEEIIIYQQQtQcBf+EEEIIIYQQQoiao+CfEEIIIYQQQghRcxT8E0IIIYQQQgghao6Cf0IIIYQQQgghRM1R8E8IIYQQQgghhKg5Cv4JIYQQQgghhBA1R8E/IYQQQgghhBCi5ij4J4QQQgghhBBC1BwF/4QQQgghhBBCiJqj4J8QQgghhBBCCFFzFPwTQgghhBBCCCFqjoJ/QgghhBBCCCFEzVHwTwghhBBCCCGEqDkK/gkhhBBCCCGEEDVHwT8hhBBCCCGEEKLmKPgnhBBCCCGEEELUHAX/hBBCCCGEEEKImqPgnxBCCCGEEEIIUXMU/NdCW6wDL71OGGMxC8Mt3oCTbktoiDSFqYQQQgghhBBCyPNF5OrqKhX6nxq2TkRHRwtDzw4dkS7stF3gpesDiYYuMivSwYnF0NO2QFZ5KmILgpBdnIRyrlT4i7pxXRbip+m2OPPZuzgcr9ozFo5zxsivPof1oVfxh3/df8Nx3TFjY2cEvfEdrrPtU8Y5voSln7wAK5FIGFNFKr2BHbX8jarky7bHiQaWoep8NdW1X/XvU3KjjnFjPMpxTvt3Kb7aGysMqadHTX+hv7+C3xMnPlLaIIQQQgghhDweKn0zEvbPQeIKX70+6G0wEu0MekFX0xjZ5RmILQ5HSnEkNDR14GzWBU7mnWGkZw+RqO5DJwviR3RAWFAy+o3qKYx9mm5i+9RXsGDapGrdwuk/PJWASxy/E1814brky5ss24d3Pj2ENOmNyv1bOH3xIwf+fKD6wYaF6MhxwpjGqn6c35m6FmlDP8cH45yF6c+npj4uio5/oNXUaYMQQgghhBCiGiqBM+5aLdBMqxWctT1hpGmOUlEFMisyINLUBieSIuZBKBILw8EiflgYNYe1WTsY6NkJf10L5y5oY30TQf8kIr1958cIosjzRCz2w+8bbsJy6Dg654QQQgghhJBnCgX/TDf9gdDXMEZIyTWcKNiD8OIgJJTeh56WCTxMusDRqB1KuSKEpf6LzOIEGBu7w9K8nfDXD7Pv5APLoABcj9+JE0EdMOhFV2GKHP9JwI9/bJd1P2z4Fi841h4oKuZr6jfJtuO+rbZe+ZvebbL18LUWXviCTRuntI3zusvmq0l5P5TnU35zrOh/ga1TMd+TeDPOV0WfxvZBth013lrXdrxlVddl1dO98erG7+s8B412OQBhsIWtsIuKY6u8bgXlaXw3rYvy+ajah2rHU3Z+tmHaOKXlsuNebT1K56uu46JYZs3z8sSOi0B5X+pLh4QQQgghhJCmRcE/o6Ghi9iy+0gqj2NHRAMlolLEFITgZsZRROXfhLa2KRwtOsHewpefGQWlGRBr6wt/XR0fPA0bCpz556Js+FrgTVh6d4GtIujig6vptjj9qbxa9PwNyeg3a2LldAVFmwH8fI3/hrwDJm36szKoU3SKoDB572LsCLKp/CTBd9QLwNGPlNbDprF94Ktu81XZw9rPeiggk+9HB9l33Px+vPP7DaD96DqCxQ5og18r52vqN+PythJmARtela3j26O2ePUr+TGt63jb4yJ+/+yw7BOCHW80ZZsBCUhNtYG1vXCMWCCdJmyXbN2fLBKC+OrT+M8ZrKbLp6milTew+Y1XK8/PT2z3ZcNsOenCeajvuMg9fF58m+S4PJz+anuA1HA6JIQQQgghhDQVCv4ZTkOECnEFyqXlqIBUPoxylFQUIrUgHFGZF5GWfxeaEgOYWbSBgZknm6eOQ9etM1qlBuK6In7h3wRbv4Bh3YRhGXlwyBP7/4CFS3ciWfkbaPuJWNrIxgKrq+Ob/1/9hOnAtV8+whnbWZg2byFetT2MzburN8AYtkHeIBtflf3foymwtHUQpsjx4/+YPrmqYULZG++6pCDkqrD8xESky/uajuIzi8vywcTdB9gx90HHyucVDRzvJ8XZAVbsXCi2q1qtAFk6OYx/hWmN/RY+7NBfwj7wDxuUhmP9ESI8fGj4uDyp8/Jw+lNOe8oaSoeEEEIIIYSQpvEUIqBnXwU7ClJZA34icCKgnHWKBv1KK4qQ8yARucWpKGcBv0TfknXm4Go5coqG/kQ2I/Ce8Obz502z0VokQisf+dtN2Xfhb6wDpu+ofCuqqO6twL/VPXEUT7SxQLE4FgcP3UTrDt5KgWTtEhOTARb812zlQLmqOb+frYTxD0tG8hN/mVv1tll5W1Q53k3LAdbWKUhNZL329rBkPUnyCUxVrQB7e1th3JNW+3GRexrnpX6NSYeEEEIIIYSQR0clbaZCzL/pl4JjnZQF/rKHAVJ5gCjR1IWhgQP0DGxYwC9FYWkGHpRkyh4SPER401rzradyVWye4q25bNrvN9CqRnVvPgi6xr+lrbMa/eOrrA7/e8PVzWWBanKCUhArD/yXfuKDkM+Eaut89XNh2v9H9eOu/CsADR3vJsW/0VcE1fzbdBbpVz00qXowIHug8lTUfVyeBY1Jh4QQQgghhJBHR8E/U86CerFYE2INDUj5wF9DxPo1WeCvDzOTFrCz7QFT0+YoK8tHZmYwsnIiUC56OEjhv1mWNfRX4+0lX6X7RJAN2nRyFd6WV2/4rTayN9Z1tAfwuBTfglsd/RWH/Xdi80PfggOtRlR9Mz9sqA3CAuVtGFTi32orvTn2fXtWPW/+nzBZVfcOaC98WqHcqFzDx7uqcb7HJQ9kOyD96F55GohNQBqqtqvag4Ean4NU284afydrQFLe2zj1HJeGNd1xqYsq6ZAQQgghhBDSNCj4ZwpFD2Cp7wELXRfZ231o6sDKtA3cnYbB2tIbJSU5SEkOQHpKIAv6pZAYWaOs/IHw13J84Ne+fUplQ381yRr+4xtUi/0LX7Cgvv+n8qrYfKN+Zz6Tf1//kMt7cQYvYPHbja3+X3uDf3zHV3n3fftz9EPV99Xyb8Grrycs2V726QJfVdzq6EdV3/Yr8NvGAkvFegYlr2PDVd/WP02yquMfVFXt/0lWI0FosyB+Z93HW/g+np/2aJ8CVD/O/LHiG9dTNFgne4Dz2WFYKbZLad01p/386QikbZC38cBP49tZaD1DvuwpCHykWhX1HZd6PfZxUY0q6ZAQQgghhBDSNESurq4s2n262DoRHf3sNOzlbNAWpvrOMDVyg76BI7R1TBGdeRnZhbEoKErGg+IsaBvZwcCqJaClh+L8BOSlhKA4N15YwtMle8O8sTOC3lAhkGsk+dvYz2F96NWHA/4n7Enu16N41rbnWUHHhRBCCCGEkOcPldyZhMI7SMgPRWrBPRSWZcka9tPRt0Y5/48FN4bWbWBg7gmpVIrCjLvITb6F4jy+RTdCCCGEEEIIIeTZR2/+lWhp6sHY0AU2Fr7Q0NZHfkk6KjRFkOhZ4EFhCrJTbqA4PwlcRanwF+rn//nmnxBCCCGEEELIk0HBfy00NXRgZtkWZrYdUc6VIi3RD/lZ9yHlyoU5CCGEEEIIIYSQ5wcF/4QQQgghhBBCiJqjet2EEEIIIYQQQoiao+CfEEIIIYQQQghRcxT8E0IIIYQQQgghao6Cf0IIIYQQQgghRM1R8E8IIYQQQgghhKg5Cv4JIYQQQgghhBA1R8E/IYQQQgghhBCi5ij4J4QQQgghhBBC6sGJxZBIhIHnFAX/T5NYAhHHCQP/DRzbX4lExPcIY8izjD9NIg2J7LyRunESbXTp64IRTv/f40T5izwvZGlVTGn1UXBO1pjV1wS2Ejp2RH3Q/YvU5ZlMG/aumPzrJPx2bjZ+WOwojHw+iVxdXaVC/1PD1ono6Ghh6L9B2+UjfDdyKIoDp2Px5TvC2KbHcS7o1m049GI24ExKiTC2afF50WuAF5aPskMbCzEKUjPxz+4wfOX3ABXi6s+THIf44uhUU9zadAGvHisWxv7/cZwEM1YMwMKsG2j1c6owtjqOM8f3mzvB9cBpjD1QjLGLh+LjB4HwXpsJrl1r3PrQAQG/HsOsi0CnN/piq8lteO4zxvmV7nAWsYtWTdIC/LbkHFbGPLvP3PS77sCYUe2Q/s9QHL8SL4ytwWI8er68EE62NtDSZLtVcgSnP5qL+Brnvjac7RKMf2cmjGs7PNJYBP/cGzeSVTs+ViMvY5j7fuz7fiXyVFh3UzFq7opf3m6OngaFWP/1eay8I1+3qvmC43Qw4kUnmN6+j+13Hu/G9izlL36/hvk6wSTxPv5OebT98u3ZD5vtEzDyz3BEPsVz+rg6DT2Ld/R/x6xd25H/BLe7Zd9DWNbeShgCyu8vx+v/HIL0OThWDq074UAvU4RcOI+poY1PqwMGDMIvzeWvW6TSChQV5uNK2F18djUNGY+w/yJje6wc6Im+FrrQ1xBBWp6Ad9bexKmnfCyHDBqM7/XC0W1fNHLrWDfX0hNn33eHfUEafvolCOvuVghTHk1D5YSnlZ6fpuHvDMKq7uyGxZNyKMwpxO2b0Vi+KQ5hJc/mPrZ+pRcOjjYQhpTE3EW/RfcQ84yeG1Xvcc9q+VAVyuXD8QdLhXEiuHXzxPLxdmhnrYHC1Gz8uycMKy8/QJlwrlQpJ6hy3iltPF0cp4V+P03F605x2L0uDJERKbgbJz/vz6NnM3WoISNjW+hUZCEhO1MY84To+GJQlwlooVckjGh6Om29sPFNe+iHR2IZywQ74vUw6a1OeK/Fw8mJK6tASSkrqJU99WdMTUrMLqRJ2aUwNtGBhF29Da20oVFUAVsLHXZR4GBnqoX0LHaBSknER98GYvY31zB7SyLSpEU4uoX188PfhmJvirDAZ1V5McrLSlBeXi6MqI5/aOIyZDnc9UIRtHsOTm2ZjdN/rkeaML1BmXtxeets2d+dOngUhdI0RB+UD5/e+hHuP+Hs8dhsnbHh/ebwjL+D8XOqAn+e6vlCH32Gu2N0M6Eg+hierfxlgF4dPDDC5vH363nCcVawMdbFg9zYJx4oJYd+i+//WcK6Vbj+QIqMnJjnIvDnVVSwtMqxtFrx6GlVmhmL949cxTv/3sS3d0vQ2tcXa32MhKmq4wvpL3RtjeE6uVh3KhBv88s8GoWbwvRnjfhOBPrO8cMP8UZY9L4Ppto+3kPD+soJlek5P0FtAv9KcbFYKLsX38Snh7PYYWiDrXNtYcxHZM+qzEQs57dZuduchGe7KKHaPU5dyocKmh7N8Ps7TrCMjsHn6+9ge7Q2XnrHFws8HqGcoMp5p7TxFBnB1lETqaev4d9Tcc914M9Tsyv7syv91lzMWD0CP99ROUx6NObOsATL/FnC8BPQrYctbOKjMG91JPZcTMQPP93Czix9jOhhIsxRJfH0DXScfBrTTz+ZWghPU1JmEUTG2rBl/S4WeohKKoCNpR4b0oGtmRgpbLq4uBB+gek4zrqjYUUoQgXiwlJlw8cDs3C/+NnOcoXXpuHvZR1x+lqyMKYmaxiZ6qA48i+EBR1D/O3jiA8PQYmKhURx6X2k8H/DutioOJSzI5QXdVS+nNt+yCt9do8Px4kxbrInvFnANef7aNwsrL6tjckXTUWd8tfzywU27BSnsuD/SctJv4DrUedwLTodUi0gLTtGmPLsS75zHd3XncKcO4+RVovzcT4qFadiUvHX5UB8ca8MXq2d0L7RwZs27A01kJMYhz/up7HlpeNUXD4yn+FgV1yYh3XfX8e2XDMsmGQPg8cJWOstJ8jTc3r2k0/PT11hPs5d5e/Hqdh7KAzTdqZDv7MLxj+5S/TjKy5CgGyb5eUKWXe7CMVq8GBG3e5fPr3t4J4Si3dXRWI3KwP8uioYO1IMMLJ3VQJTuZygynmntPEUlaGkmN059Jvu5Qbn0BljxoyRdaNHD4SX4dN7CPn8p5AngJOMxdL5l/BOh36YPG4vfp97Bqtf/RIDzataeOA4Ewx/0R+/DxmHzn3X46fZF/DHm3+yv2kpezMsn8cLk9/wx58LAmTdjvlrMVCr+sm17bwNO2Z9jLZKN3IO7TB1mj/WDOoJDWG8xGI0Zr18CBvnnsLKwUPRd8Ax7JgwCUZsOscZYeh4+Xr+fvlFmIvcMH7qNWGd/nivlY5sGTI67TFs0G/4fsZpbJl3At+NXYQuRhrCRNVINETAg3LkCcOoyMGXS05hxJ+5wgjAZmRnRO0aVtldfuPhuyv/FrnruA44tm4gbm/qjR0TrbHgs6EInmcpzCGvqhf1mSuGTfDFuY2DEPJbT/z+ohnMlY8XJ4Jr1+bY+l1f3No2CNd+8MHSLjqVx47Hr6vbeG+c+G0gwv7ohc1jjaHdyAeKiVnFKDfWgQ3rd7TQQnx0PrTMdVnorwsbUw5pGU1XNYnTmYhBn0diaHdrYYycdpfteP3zrfDQke8bXxXJsO1HGLjgMl5ZEYaXFm5DxzbO1dqW4Nquxutfb4NXi3cx5L0gTP4sAKOnvAtr/ap5dHvtwdSVUZXdi+z8KeOgBbGWASQ6+uA/24VYGxpsWN6xKIRPh1rjMGBFJIb3cZL/kUC7299smzfBvUbarw+/X0btP8PghVfwyvJbeJHtV6d27vW2mcFx+nCY4I8pH/4Ie2Fdqhwf54lhmDLrLTgN3I6xn4bh1aXH0X9Ad2jXXJfEGsPaauDaiUgElT186WwoX3Bd2iF851DE7OmMcQYieE8aUJVHvnGHi7A+rls73Nvpgzc7eODPXwbg9uZ+OLHEA12NqrZHlfylWt5pOA82hHNrh6A5wxD+VmeM1hahQ3e2rLnDZV3YBHc4K/aL/c/dwwsbJ/bD1ZkDcXaiL5a660Kr5nFWwj9w6d+/H8KmtEUfDcVyRHBxb4HfX+6LgFmDcZEt5z033Wr5na9KHTbaDYN9fXFs+mBcm9ITq33MYFbPuh6ZjhOsdcqQzrXHjAkH8Pu8s1gzaSWGWmgLMwh0OmD44PXs2nsGm2YfxsqRs9FGV5imoMo8PCNHWGtkIzUnXxhRgwrX+fruKbzK+2D7vpg8fp/8Pjjp64f3qwHW7btUpge+O9OzlnsBu4aO6NUJR6cOQvCcoQic2gu/dbGAdT3niy/fBqWx/TfQhZOQHRtKGxxE0JWIYaStwa5ojEgMAzYs69jhESvmc2+PkDm+eMPJA5snDcSNGf1xaLgHOgvXXZ4q6VD1/dJAl86dG0yr4rI8rD2ZBf12thjYyAanVC4nyNJzBdLLPOo876qUf2TqSc8c541pM45jmqO8DDN4nB92TJopOzacwWSseGsV+grXcX3biZg7YT9+m+uH7W+x/DX5e4yyN5RNexxp9/KQAj042smH+ftcvwntcfDXAQjbPhDXfumMb4cawVD5nKpwfeZEuhg1zRenfx+IiL+HIGR9T2x6xQI2ystRodzSEL4K9azlg3H3Gw+0FMn/joM+Fnw9GHe+cIUrG5KNY+ty9vHEhm/64CZb1/VVXbFqtEmjy1Hye4obBo3tiNP8PYXt14YJVfcUVe9xqpUPAY+eLbH9h74I3jYAV773wafdqt8vVLnHPS38Kp0sWR5KLUTVh70FiE5l+2upW1nmUKX83BQobTR12niAAnbSDIz1heHHwxl6YbCPEe6e2ov9+/djX2AePPt3hcMjb1/jUPBfG1NHWLFM6+Q+BOX3NmLzhb1I0u+Hyb1HKd0E3GRPx0us+qBTyXHsPvMzzmWbo1OPuejFvwyWScLFM+/LqmluDk8GihKQVCM+TM6MRZmOI+wr/wbQ85yI7gYxOB14XvYNECfpjmmj34e31I+t5ydcFA/EMEcTPMiNF751LkWQv3w9O+5lQpp/GptlVUOX4IeDC7Ez8oFsuZzIA2PG/IIXbXPh7/891p//B5lm4zBnyCuwbESCuxaaiUJPV3wxwgJO2pysSnxJYRkyi6ui6ayAu0I1pGAcSq09yjbq0hK/TrBAWdA9LNt4H9dsXTCWj6xrMnfARKcsrNscgrUhHLqyIP6TrlUlH52WzbHxbUeYRvJVrcKw8Z4EL73TCUuUqlHx61rFMn7+1Qgs2xyJYDdnjLUQJqqoIqMUWYZasGaBr71FOZIjipHJgn9HsQ6sjUqQ0pRV1h8cR3xcBSxbDlJ6mMTW1cIH0rgziJefUmi6LsHAiS9CJ34bAvZ+irA4EzSfuBHeLjVLhs7w6OSAxNOfwO/0OXCuc9F76MDKG1JJ6DfyqvhbliGytv2wXYDRy4Px2oqj6GAP6PqsYf38cDAmf/Q9ZE2fFB/G/bsPYNlmVOVbKb6Q6Nq6A7h7/yKmEc9GNNyWYuBLo6AVuwUB+1bgTqwx3F/+Az5uSg+yatBwWQDfDnpIOPEVEoUaBCofH+PRaGFzA8EHPkHwPQ62A1ahc1tjYaLA0RCukmKERtT+JLrBfBEejUU/38D8nyLgXyRF9PkQ1n9d3u1IQfWWJ/QxZqAuLu0PxbJ9aSht2Qw/vWpVeXNTJX/JNJB3VM6D9UmOwQfHr2PxsXu4WiZFTHgw6w+Ude9dSan8JETHzgtrB9nDMCUaX52+jT9TJBgxqDMW2dX98FHb1hOLPDVxMSAc5yrk51THtjnWDWL5PS0GK0+FYluqBOMHd8K7NjVuZ4YOmGCRjQ0XQrEhAejcqSM+dG9kxKQKMyd2vyiCh2t3ZAR/j9UntiBKpzcm9h1bWZ2YEzXHuDE/Y7xNFi5f+RYb/M6iyO51vNV3QOU5VWWeSmaOsEAiUmvJq6pc5xu+pzCy+2A+HDyGQXp/I7ZePIoMgz5sv8bDpOb21CM7KlxWrf7tI8E4klt7WrVv2xYrvHRxJygE7/17A1/eyodr+45Y0ar+Bw1OhiySLClFtrA5DaYN82bYP2MIrr7ZB7OsRDBt6cv6h8q6gOnt0E8+l0AfI1vr4UpgCJZfS0WpnSe+7VaVB1VJhyrvl3Jaja8/rabczUGSxADNGt3elGrlBHl6zoM9K//Ufd4bLv80nJ6l4KQs0OeThE4ftDctQIFYE/xeG7l2gnPyZQSyewYnGYgZo+bCrXA/Nh16C18e+gGB5b6Y0P+1xy4o61jrwhwlSBPykePw9lgzQh9Rp+/g/V+D8eOFUvhO8sHHHWteo+q/PjsOa4uVfXVx+3AoFnx/E8uPFcD9hY74emDVeVel3CIjEkNXTxMGOuLKTksI5sTiYvy24R7u2blh2RD5gXcc3BLTHAuw/vdoRAtFfG3PZvhjIQv4kuOxcn0wfr5Sio4v+WLV8KqCp8rbw+4pk1xysH5TCH4JKEPHcfw9RXgbquI9TpX7l04rL2ycaw+jiGgsZ9uzhW3P6Lc64YNWNc5FA/e4p0mTD+zZqVF8isX/j08SYg1xZbClSvlZpp7zXonSxlNLG2JxGQoLAS1d+cuuxyXOv42TB07idr5wDOMSkQwjGNUodj4pNc4c4UlYgjFjwf/1Cx/gr+Aj8AtZjW2hsdAwc4XwgJjN5AxrljcK7/+KVZd2w+/uXmy5fAo5GlYwFx4MicU5iIk5J6ummV5hAOQksOJadVx6DEv0DrARAlGOs8bA9j0gjvkLxzPk44xbTkR37QDsOPAljt45jIPHzyHDiK+WJ6/yyWfy5IRzuHb/HLKkhpBmBOLs/TOy9V6PuoxYoaq5pNkbGGERgd37FmF3yL+y/VpzPRgatm3RTDaHarLO38bSCxXoPrkzzv0xAEc/8MLUltUzRGlqjqwK0tGrGYipo/mBTh2tYBoXjXfWRGEvX/3px7u4WFuekmRj/Q/38PeFZPz6awh2p0nQtX3V08Ae/RzgHB2JWavlVa1Wr76B9TH6GN+/KrqXrYvNM59d9PbJ1hWJa3XHHLVLL0KaRBtWhjqwNytGUlgxUs104WzCgn9JEZJrbzfwkYjFWYgOC4LIpQ8cFeUFyQA4umkiPezfymr2tr5jYJS4Hmd2rUZk0G4E75qF0CRXeHbqLZuuLPHMAoRc/wdRF5bg8rV46Ln3YOlcjsu6Kq+KH+qH3Npi24y/ceH3yTi6fj7usmiu+M43rJ8fnoxjm1bJLtxicQnibp5Gif0wuCleHOsNg7NzBRJu/ftQY5D1sfMZAcPE33Fm9xq2X3sQvHs2whKd4OHTQ5ijOo4VRtuMnASD+HUIuFr1xZvKx0fjOoK3f4f7bF23dn2Au1kmsPX0FiYKdDWhxwrQeQXCcA0N5QtxTh4OX07FgUvZSKxgQVF8Kg6yYVl3qxBFNY7Ppb23sOZsCvYeDMXHZx7AspUFvIRpquQvmQbyjsp5sB7iolwcjUzFoXtZSGJ/m52ZiiNsWNbFV+1XVy972KdF4u3Tkdh/PxG/nb6Ozel6eMHLXDa9Jv5h17SerrBJu4+vWV5T6NrKEY7pkXjrVCT2seWsO3UdG9P1Mbp1jad5Gtn441gE9kQkYu2JW9iXJ0Fn54ffIjwuiZk9TJGLy+eWYn/4RQRFbMbOsGhoGDvKagnxNF1fwRCraOzf/x72hh6FX/D3+OtOCvStWlXeU1SZR8HM1A46JYlIYoWRmlS5zjd0T+HJ74MlCPP7ENuDDuNi8Lf4+2462y87VK+PVL/SvBxZtfoTUemIreMzSU8LI0jS4vDV9UQci0nFnsBbmPdvEHamCzMo8G/qtVlhVyKBm7MnFrfUQ0Z0MvyFyQ2mjZx4vP+PP6YduI692VLkxYSx/iuybvrB+7gmn6vS5WtB+C08BQeCQrEi7AHM7S3RQpimSjpUeb+U0+rJW9hbX1rNL0U+NKBfW42QeqhcTpCl5xKE1HfeVSj/NJye+YI9Bym7Fuq49YRzWigS2fnVgDY6uLRFdPRZeZsDjj3RXicEx05uhn/cDdyOOYTtRxfi54tnWK5rJJEGDGTBkgT27rb4YoItJCz9HBfu3WmnbqLHrMtYeDAJZ4LScfBwOPbFaqO798Ml8vquz82dDKEVE4cV+xNx5Foqdu65hRnfBOHPKGEGRpVyiwwL3vZsHYJgRbdlAFZ2FKYxFTFR+OhoEXzHtcAIayt8ON4CqcdD8WtU1YXcp7c93NJi8PaP7F5wMQWbt9/AF/5SdOliXfkmVOXt0cjEGracnReT8dvvQdgULUEPb3lJQtV7nCr3rx597OAQFYnZ7N60h61rzZob2BCjh1F9atwvGrjHPWtUKT/LNHDeZShtPNG0we++BrtW6OhrwdjNHW3cOcTcZheLGmW1pmDcuiVsCxMRX8tFja8lMHB058qHnQ8N1/P5gPI02fTODrLxTb8HasDOxAHiggAEppQJY1gCYDcllD1AZVo0d4SVKBlB9+5UJQT2P64sGwU1gieOM4adsQGK8+KRUzPR5EYjqdwUtmbym4vYZiL62+Xg4vXDKBDmbW7nBXGaP64rVs62RSwqRyoryFTnABtjCXLy4ipbFlXW2tkb2hkBuFlsCB2JPnS07eFlbQvkJaGuL7xrI2YFgwOrL6L3kkB8djgN6VZ2WLq0Cz5rp3o0zadZK7atfEAdpdjWikJE1dYkQko+bivan+PyEc3mMTaQP73jqwU7WkqQm/wAucITUCO9MsQklcHEUg/6bEWKdVVkFle1SM/WFdnY5hcyi5BaoQ0LCz3Y6hUhMY0NQxf2zrqwKi9BSrYwXxN5EHYGWRqd4NhC/rZb7NkHNpJQxIXKg1u+mruhqQlK0mNRrGMkq4Iv0clFbnoutE0da1QfjEN+atVwXmYsyiUGqPs9enXislhkRPoh6d5NvuwJaX44UtiwrIuOQKlwXMtv/4O4B83h4t1SNqzdehCsKi4iKqyO6sm1UOxXWUYUCoXlisWJyMkofHi/RJrQZPtu1PljtLFPxO1Dv1U2UtWo45N1D9mKBrS5u8jLYtuuZyqMUKj9KbRCU+SLKg8QnSD0MrFpBSjSllQ+rFFZvXmnEXnwMfH51IGttyi3AMmV57QEUbnlbHvk+bSSSARdFuC5tGmFaZaF+PNiVGXLxYrl5OcUIl8WBPJVuMsQm1P28HJYYSNccU5RgJg8tu/sRt7U7Nn9QpQfgGupVY1kSjTZespYgUYYbubUDnpZV3AtRxihwJVBcZdRZR4FexN7du9IQJIwrEyV67wq9xTZfbDQHwGJSjc0PgsU5zc+6GpAREYeyq2c8ElXV4xzt4CPmQZiYpJxOqP6novYdp+UvakfhEPD3eGUfR9LLqXJ7neqpA1xRRGCErPgF5+DRLbo8gcFuMKGZV1yYY3W9gsRo/RNfFxeAYo1NVlgrHo6VHW/aqbV2AbTKv/t1aOqv5wgS8/svF+t77yrUP5pOD1L2T92f2bBvrd7a0RE32QFLQk0NLqirX08bt4XUjdXzub3RN/+8zC81UC0s3GARs5VXI2+0/gGCVu0xAVZoDQQF7/qgCFcIj76Nabyl0VKdI0xa3FvhGwfghDZfH0x30PEzmnNGij1X5/vxuWjzMUJX0xywUtdLdDJSQPRN5JxIlq+56qUWyqlJ+CD5f6YrOhWXMXqcGEaw2/6jb+D8dcDG3zwcSsMKonHsr+zq7Uu72jB7vTJBQgTFisWS3Hk51Nw+yRW1s5Fo7aH7WuEkFb5B0oJmVKYGOtUfjLTFBTbU5hSiERhP/j7RWRy+cPbU8897lmkcjmhgfMuQ2lDNu7JpQ1rvPL3m1h/6k38srknLC4exXcbhLeyTUQeyI9Gf092v/APbfQ1jeMc0LXm5wNdWstqqcun2SLpmnza3mvsmmrbUvZwoHFr+Y+wNWUFpawYFi7J8YnNzswWnNKbe00zR5hL46tV9RbHf4u3Vs/EvwU1D6sbK2QDGbU1zsRFIIEFjTZm7mw9WujsMxzmKXtxJE5xk7BihTA95LO/VTwMgLkTS5IpSM2qKmzKOcGmxtsbBY4zgyMLhEQ20/H9vDPYyHdz9mGeRwUu+W1HdCMTHD97Vmw6tvwdikkL/fBjtC5eHsuOSWMyeS3ll9rDKykqy0UMv4qqX9LTgCa7Zhr37Fj19JN1v/TU4ifJqhDK8PNLqy+9/lCuFqzgmJqnDUt3XdjmsQsbu4in5urAngXn5tn8cBPLOorYZH3Ytegl22mbFt2hnXQGsZUPGST8iwzoeP9SWQWf7/rxbyk0NPndV8KKWUqnpvTKa9j++eLKi2eTqTiLyJBUmLUZBWMWfDu36cxi6SOIq602QZ3k+yWtkZakfP3QGvslsp6BUWyfXxzbC5oxOxAaq1yobszx4ZTSA1svGxBVJTKVNUm+kKl+vjKPXUerGSE40+jzVV/eYVTOg4+L5VO26VyNPCir8isWQbkJHZGZB3axAO9YH2voJMXij2o/GyhfjlFzn8rq2nz3fXOW32ssh1e173yY8WjntCF2/P0iO7Yy//PfR9qa2EDKgnP+fsG3q2BnYo0KNo8i+OY4DRaAWcruKfyjPFXmUeC/5bQzNkNFXvxDv7KhynVe1XuK7D7ItqfqPiiBjYk5KnLjKqtoNpXEkFtYGpwPC3d3vDewE7a9MgCXXmmHYQbV8400PRpvH7iCmf6pfFOh2HYqHP6VjYQ2Lm2oQpY+BVmhgei4KQTnZcdMtXWpul+8xqXVx8mldZcTeIr0rHzebY0tqp33hso/qqVnds2VVrD/dkVH+7u4EVUETqwBiX0XtCryx3XFfS52Izbfug0N+3F4acAKLJm4F79NW4lutRzDBsXEYLYsUPLD6LdPouOiW9iTID+W/PZNeLMD3rArxMa1V/G6bL5r2BZT27Gu//ocf/QWFp8ogIWvOz6c64td3/dH4A/tMMJC8Ucqllt4pcUIDs6AX2iW0OXgfo0yprgiFzv9C2XflsddicPlGg3nyjZLdq2tPr5KI7ZHSJ8Ksku6SPpYj6MeJt8e2T1fieyY17I99d7jnkH8aWiwnKDCeae0UeXJpI0sHP/4AL5+6x/89E04pIMHYNqIpvnmX0Fe/f/AY37zrw9DoXKSOCEAB07elj1EEIsTEMCWHZAgnFvZpwVydZ3t/yy+2r2tsQ7y8xKUWsx0YjcyTWTlxFRWXbYzsYe4MAFJNePv2miygpU+V8ubel48EnNKYGbsAm3DMRjsLkbgjd1Iq1y30PIuu/Eq6Fi6shtv4sMt9eo5w1qHBag5tb26c4Ylu+EnhX6GL/bMk3e73sDCDROwNqJmHcS68Tf1Tr0cMdyF5TKBWFqEwzfyILHWh5swriH87uU/YNlSX1OpYSNtWLBtbJwKlLPF5F6/XfX0U9FtSqlqVEV2Eaqe65WHOGd7fDbDGV2qNUongoRtZ1nlT40Us2OrCYtmBrDJLEIMCpGSrYtWzbSglVXEzmTTEotjERseAe1m/WAFHzh5WiHr7vGqAjvKZFUmlavgV1bF/+cI/h8/RMJvWtKNYyi0Ggx310FwditHQvCxRv4cmXy/RDX+RsS3NFhRXu1iLs3cjwtsf0+fvcHO4ato7aJcl6GJj08px5aoCb1aqts2Vb54mpouD6qC5VO2CnGNPMifUj7CUr6MStm1bikL8OYHZqLMzhnTbauOqWI5ytW1K6ttX0yG6vVLmgbH2bBASuuh+4WtMX+/iBXuF+z6byxCBn8Nr5zHhQXXGsjIiWrEPAqusGb3hDQWWFXNq6DKdb7he4riPliQG1tZ+0b2nbexGGlZ0U3+84JiaTEOX76Bl/88A991x9BvTygCtByxWKgyWqm0ENfiM3D++n0cLDDGhA6WSjV4nmbaUG1dKu9XY+hJoMeK2MWNeqCqpJ5ygiI9P3TeTUXVznvD5R9V0jN/X2WdfS94pV/E9VIppCINuDn7ojT6fGUtPbE0AX5n38KSDf3x+pqReH//dsTp9cXAZlay6Y1SVIAAWbCUi+CUMnYPUGwbzwy9WmsinBWcv7+QiYssmLoYnIPERrRVoyDminFw6w2MWXAWbSYfQ7dlYfDXc8CHoxTnXcVyi4o4cwd8MEgfYeHZsB/YAq+YK/KEnCyLyK61SuPZxVebj5Rk4xqzPaJqR012SWenUVFKahry7ZHd85XIkgQbX6PezBOnWvkQbJtZPxunaEuJ/x+/zRUVfA0XfvjplxMobTw6/jv/tOBE3A6Mx83D/jgXoo32fZyrH6um8ojf/PMB/pV9gYDP2Mqq/Z0dqrZPUbOAHz9unK/s18p4yueJyLiyQg/7n3Ih1agH2pgW4V7CbWGE8HQ8lwXuwnC9zBxhKUpDatbDd2s+wcZmxEFk4oAu7cbBs+AIDkcoZydj6GsBmmL58yyOM0fPZu3YjZcllJo3XlN7mCMV6bVWPxdDg62rMOs6wuKvybqQ5CwY27CgUqkF44aJ0XlYa3w+xgK6Qgbg33S1dNBjx6Ok1mqodQm6n4tST2cs7WcMexMddBvpjiE1a1o3QCzmEJ9eBj2NctwSnoBeDM5CTJEIGlIpOHaA+WOcllsGDXMdOCoyrYY+3JXLDiJ99BzgjtEtlQINR2O00C1DfLLivJUgOUsKC2cjaGY+QJFYiuTMCng5G6Iku/iJ/ExUdvBZ5Bp1g0OH3qzgFI2EkKp2ZMXiQuRn50CikY/0exdlVfCT7vkjv4SlFSlLHE9ge1QSvQdRma5weuF12FacQ9TtxpWeZPuVlQ2JhZtSGrOFsYU+irPiqgdCZSmyfY859iFuJduj1Zh3YFbZ4E0TH5+UB0iQ6sHDWTkYVWhMvmCFXHaT0uQz5P9ZU+TBKvK3YZJajqssn+aXQtfYoLLFa47ThhsLknPyHygFGkx5CYJZgHcsIAS/Z+jh1T7N0FJ4n8AvJ6GgDLriCoSwefjq2n7xLL+X8g0qyfP70+XKAmLZGRWGGf2uaGVWhIj4MGGEluwtsTKxaR+0NcnHndjGzKPArvMGQEZeVfBeRZXrvCr3FPl9MDVb6SNlDRa8GbFrKQvemhLH0kO7Vl74uJWxrNAsZuc6OSUWJ9I4WBjq11plVIwcbA7JhmVzV4wR2qV6mmlDlXU9yn6pwsiFz0MPEP+o1S/qLSfI03PN825jWP28N1z+USU9s1wjLYOTkw9SY84hnx0PTmSDNs56CIq8JZuDgxf6934XfS3lx0paloaYmBtIKuNQXPaoTz/qwqGERQ4S5Q3XMUGbmg1uNIA/7x0GeWHFICP5eWflkKTwWByJ5GDJ7mH8eVel3KIqPqB8aVoLdM6OxrLPw7At2xyLpjnCQkhf/KLi+V8isjVAa2Gx/L1pxDsDcOcjJ9mnCo3aHisDeAq3QL4WkoO5CNk5JTW2+fHucfz2xKWVQt9GH7bCfsjuFzaayE6rcb94GlQoH/KbFJfB+lkQr2gXBDCAizXLT+lFwoOzpis/q4LSRtPha4Dr6AAVZf/HsnUdFG/4FVX7bX3kNQhkvyjQ3x6Jp/fJp+29Rm/+66TrBCudAhRbvooZ7YejW6tpeHvMNLjmHsHJaHkm56tN2hjrojA3VuktbHWcTgt0cOuDjqzz9WwNSxRBx6yfbLijvUO1741lLf7r98KoVna4e3MHIqudljik5gFOHVZgbs+5mDZ2LfrrJqBYpyMGdR8GJ+XWPyvK2O3LAs1bDpWvx62bUoEvHHeSC+HeYSleaj0EXVpOxNQx6/HRoGGwZBlRVfy3NQfOZkCzc2tsneGGF7vbYsY0XyzvJobf2SRZNXJ+1xybW2KwjyWGdrKAiy6gbWEqG+a7dibybYo/cRs/3dbAiNk9cPG3PljjW4QrtZVnG3DpTAKS2jTHxmmuGNvVGq9N7IAdy30wy6vqOF69kYYcV3f8OJ3N090eCxY0Q1flx5FRcdh9T4IxM73x/hBbjO7vhjXvusM9KR47guWz8Kc6KasETuyik54pD2gTs0thaqyNtMw6WiZ5XEnHkZDlBKf+Q2GadR6xNUpbydf2o8B9PgaNfhNubUai5ZC1GDx7Ddq71t9KtjL+oqbvNBiOXoPh3Lo72O5Aw7SjbJjvzA2V0pgKxOIw3A++B1OntqgI/xcJj/AoNvn6QeTZT0f/cXPg3m4c2oxbi9b2cYgM9BPmqE6MCATv/h05VtPQrU8Ltk/ybW6K41MpPw3n7wHd+zlV3nQUVMkXVQpwP1mKFt08MKm7NUZ2Y52X6t/FqZq/VNFUeVAuH1HZUng2a4aXPawx3J11tlX75X8nEfFW7vilnxvGeLDj068jplg9wOE7tf28BH9OC/HbmfuINnXHp94s+hCWcyUsHskOzbG2tytGudnglS7e2DSuI2bY1X4tbghnMxdjT0bhxTfk7VQ0ih5/vyhGhe1EvOrVE+3dJ2DGqOnwULpfANG4n1YA61ZvY1LboejeeiYWjH4dNil/4t84xcVXlXkU8lngw9KA+0R0Fe4xVfcUVa7zKtxTZPfBEqRkKRVHjZ1grZGO1CzVr3X8JjlYW2KAiyUGuVnCWYulVSMz2TDftdHlAyExivVM8WKPtvjK2x5DWGl5TId2mOYswv3U3DoDoZjQKJyrsMLktlVVVZo6bdSnoXU96n7Vhy/kvtzHEuJ76Tj9qFUZ6isnyNJz/eddlfKPaumZFU6lZnC1ysFNtj98HWGp2AvuBgG4objPcaZo1vJFTOg5B12cvNHSaQCGD56HTuLruBrZ1C1PZON8SCncB7XBVy/YYlRfZ3yx1A2tGnlrl513E1O8PLkNvhttj+E+1hg/qi1mtRchIqrqvKtSbpHR0UXnTtaV13dZ56ULHeF6aNGtFZZ0rMCezREIKs3DD5vjUdyxBT7pVnWPu34xEdHWLviZlXte7m6D1yd544NOwOXLachq7PaUm2P2wmZ4id3j3pzRHlNdy3DpRs1qqHXf4/jNVuX+5Xc+EXFu7lg72w3j2bpmz/bGdLcH+Odc7feLhjzWdV6F8iHvOtvmaBtnfDfXXbbNc+a2xSSbQhy6IG/4olHlhAbOuwyljSZJG6oxgIEx2/qcpinr8w3xjVZqtA/GRjCqo8E/5OYhD7awd5IPGjvaQ/HxgfzNfvVG/ioZG7L52N8Ky3Tq6lP55l/D1NT0U6H/qWHrRE5OzVZgng1Sm6GY0MoA508fg3WntzDMsyW0sk5gy9GfcUv4KQ6ptBX69BwKzajfcSapeqUXBb2Wn2DlsCno1mIgujnYQiwyhVsz1s+GO+lEYH/43craBVyFG7r69IU9dxpb/v0HydKqWgciUSZisvXRwrUzvGztgZTNWHP8LDRcR6CnixRBAWeRIixHmp+IItPO6NF6LPp6DULX5s2RF7obd4pFbDlliI+/B4ltP/Rs/QK6OntAK/c0dvz7Ha49aFylnBx2ow4s0kH3rvYY18sGHYxLcelAMD48kociti1SqRjj5vXCt2Ps8QLL3M0NRNC1s2T9/LA9zGMjcDiWbRNXiqvnYvHX5RScOBuJbw9kw7mvGzoVJmHtVfnPDnl2cccw3Qz8djYHxbJli9Cutwf6VKRg1WV5s+tl6Zm4mKyFnn2cWMHIDp2tKhB4JARL/pFvD684Pgt3NIwwqLcjRnsbQXQjEqcN7OBTlIw1AYXs+JTjOv+RobM1RrF5RrQzgCg2Hh+vuofLBVXnQ+zMLmod9BB26Q7+iQZK7Kwwy1sf9/wjsFvR0olAamKOqQMNcP9UDPxyqpbRGCJRCrueTkDbls4ovPk1AiOqPxuuyPZHYoYl7HxeQnOf4bA1K0bapQ9w6XwIKhTpwno4OrTRRvyZfchSSlsKUqk+PF4+gt59X4Bb+34w0wMklt1YPz/8ArQTf0JMirAsqTFsukyFVf4/CL1T+zejvKIyN3j6uiLh+AeIy6w9fUkNe8CriwdyAjYjWekY8yqyriAp0wq23uPh2XEgLHTiEH1oIQLvpFXmG/3m09DMjAU7V/xQwsZxeVeRpTsC7Xp2Q3nwLqQXiVQ6PiZt5sJV5wpCrt2QjZNKNWHZcR4cKk7gVnBV6zkiUQXCMrQwfrQr+upk42QI3wBo1XY3lC8U+OWExpWita8TJg1wwAvd7DDEohAbzuWglF+/ow3e6aKBs/sSEcpVPy48VfOXKnlHlTyoKn6/bmeWoaUby4etHDGsmT0GGhRiS7h8v8ryMnAlWxudWzhhXEtbeGkV4uiFm/gutqTyXNg7u2K0UR7+CslANhtXUZiFuxI7zPQ2x4P7CbhVwpaTn8nykxa6sTzxYis7+BpW4EZQMD66WXWcPdw9MFiSgT/u5MjSBr/vbVo0Qy8uBWvvV/+5BmlbFkT3dUTSnuWIaeS3O1Jr+f3iwrlzcOoyHyO82kE/92S1+wV/bUlIugct697o5jUMvg7WKE7Ygd9ObEZ0ubzwpMo8ClJpIpKKHNG+5SgMYAF+d6V7ikhc3uB1XpV7SrL1MLzY2hChV/bI7h88qd1oTGouxZWLhxBZ8XC6rA2fVkcN6I0vfRww1NManjosrZqwgp2nvawzy4jA0UwR0pOzkWFojmFezhjb0g49rDSRGHkHy/zTkSlcs9xYYW+oVmbVOS0vRLqBPaa11MGdW8mIYfOpkjZ4fB73be2Ktg8SsTHm4XQuNbPBXA8NnA9MxO1arpk8Vdalyn6pmlY5SND9VW980U2Evetu4WB67dvVkPrKCfL0bIiQes67KuUfVdKzVMoK894T4PXgH/xx7ToKxC3QvfsAWERtwsaIKEjZsRCJ4hGbY4rmzYZhQLtx6OPpCwfcxtFTX+KY8ABeVTWvhzWJRFKE386G2MUKI1gZYEhLbaSficAZYwd0LpGXE3gNXZ95aeHsvFtaYCQrk7zY1w69XNl5DwjH+3+lI0P4G1XKLVZtnDHR2wK9hWt7ZedSir0nstj9zgJfLmkBl1vBmLEvT5Z+SpOzkOHsgrf76SLkdAo73ixfpGfhYqIY7Ts7YjxbVxe2roBDt/D+oap1qbI9smNYEY2v7pti/gRX9LPnEHiYpfljBdXyV333uBJoqHT/KkvLwKVkbXTr5YiXetugtW4hjmwKwlfXq+4XqtzjFB7nOq9q+bAiMwt+yRJ06SHf5lbahfiHbfN3QaWV26xKOaGh857D5qO00XRpQxVSqRF8JreC2Z0gnA58/AcAorxEJIq90LNne7Rs2RItXUsRfPgGMpQfAAlEIhbAix3Rrq18XqvMaGSaayP/TgLyyzJwv8CSLaezfDl2IkScPofIMjGkOXnQcGqLtu29ZNOMkwIRo+MCw/w7ELm6uspLBE8RWyeio1nk9AyStPoJm/qXY+2qhfBjBRfy9HCcAT5a1RNDb15Gz81N/VSfPE0G/Q5hfI8InFyxAIlqlI/4h7QtB7XH71NsoJ+cjB9W3cSOOHXav/9eHjSYeACvvlEKv/HjEZpL13zy7OGcHLB2XnMMsivHyU2BeOtkfo12IAh58oa/MwirzO6iw7LoGr+M8eyj6/yT9TynDVXwPz38woapGCO6gR8+vYmotBLZZ0LPK8oBNdgb20GUn4ikmjUtyRNh7mwhr9Lja42p01vhRZtiXL5Z+9sE8nzgODd4tG2F4ttHZL/nqk74e9rdU0EYvPg6fg8HDJu24df/i/96HjRzdAZSw5Ba6zfQhDwD9DVRcTcScxdfwJzThRT4k/+jpm69/emg6/zT8HymDVWIxUU4uSYA0TYd8MGeGfhusaMw5flEdxAl/Fs92c8bqdqQH3lsbYa2w9r3fLH23Q6Y31GMC1uv4/Ob9OTluWY7Fq42WYgNPiePltVQUXI61v1xC+vuPP/791/Og3yr9qaOxqi4F4Sm/fVeQpqO+E4M3v4jBieSn3pFTUKee3SdJ02hLIiVjcZuxKIpe7Bqe1P/4O3TRdX+CSGEEEIIIYQQNUdv/gkhhBBCCCGEEDVHwT8hhBBCCCGEEKLmKPgnhBBCCCGEEELUHAX/hBBCCCGEEEKImqPgnxBCCCGEEEIIUXMU/DPtu7sIfYQQQgghhBBCiPqh4J8QQgghhBBCCFFzFPwTQgghhBBCCCFqjoJ/QgghhBBCCCFEzVHwTwghhBBCCCGEqDkK/gkhhBBCCCGEEDVHwT8hhBBCCCGEEKLmKPgnhBBCCCGEEELUHAX/5NkhEUPEccLAY2iq5TxH+N2VaEnkPY+hqZZD/pv4ZCPSkLD/P346bIrlNAYn0UaXvi4Y4URpnzz/OIkBWoxoj07uVemZc3fH8BG2MJPUncY5J2vM6msC23rmIYQQ8vyi4P85xXGOmHFsLpa9qi8b7vzlLPy42FbWL+43COsvz8SbPTlZ4bntR9Pw+1ce0GD9HCeB65g+eP/vKVh3bhbW7BqFV/ob8guU/S3n2BGfX34Dr3WsfuMXdemHVZdfxijnJ1Mg0O7eDz+emYkv51gLYx7GwQDe80bg68MzsfHyXGw53h9tagQHqixHHTlO3YEz4TexbqqzMOZhIvfxWPHPZVy4G4XrUVEIDFuFvjWOnyrLIY+G4/qg2yf38PqXl9FJyEecy2eY8EU4XvvkW9jWOBeWIy5g6soojB/pK4ypwnFi6DZfiH5vX8TE5aF4afFedO/WARJFPraYj1FfB6KLUsGfxzX/BhO/Poq25tXHNxXD7jvw6hc3MbR7PenHYjx6zrvM5ouS7d+U5avgWGPfVVpOEzJq7oqtP/XFjimO8JJfUmU4TgseL32ODWdu4HJ4GE6e3IqFI5xl11IFq5l7ZPmpZrdxpo0wB78cCRyGfYBVR/1wNiwEx07/iffGeFaeL97w3+4hMCoM34zUEcbIxwX8NkYYAlosOV3rugL/XVB5DPv+GFw1PuouLvr/i+8X9IU5u4I2xsBVYQjcNQ3GStvoPv8wAkL+wAsm8nENbY+k7zc4EXUW77SVzV6J85iPnZFXsay3RBjzdHGcC5z7L0FzFwNhTHWOE4JlaVOWPr8IYflrN7p18652vlTV0LqeBN22HfDe7sl4f74XXNjtvZKhJXrNH4tvd4/C8LZawsga9I3x4pSuOPuTL2Y11xBGEkIIURcU/D+vTExhaVSOtPh8VrgAdLQ1UFpYJpvUwscW0qIilBXzQ9Zo3UEHkTfjUSEWw3rsUCxe6ALu8g1sXXkJlzLMMXhZf/S3kv0pkF6EPGjD0EwYZvhAw3uoOwzCwnExWhjZxIzsDaFT9gCJ8Q+EMQ+zmzQYc0ZqI2zjKaz+4Ah+XnodEcI0BVWWo44qSotRWlKC4tJyYUx1fPAxZNFyDDUNxYYlc7Bo9mwsfns9bgnTFRpaDnlc2chJ14JN85ayIbOW3VGRHA55zq3CcdawdnRAUWE2DJw6Q79m0GEzBwNfexMmOQdxbd/HCA4vg8OIP9Cjg6V8etpVpBWYwcq1mXxYYOLUBtr5N5GSLoxoauXFKC8rQXl53enQZchyuOuFImj3HJzaMhun/1yPNGF6pQaW06RsnbHh/ebwjL+D8XPOY+WdqtuiTs9lWPXlKOhd/x1fv78ceyLs8eL3mzDPR1OYA8g59o0sPy366jgykYEzX7F+NvzrsSxhDkC74yL88vOrsI74Gz8t/Qx/BRpg2Hd/4N0eusIcclKpDroMHlRvkClNOYpv+fUpdYuXH6h2DKURO7GMHz9nMX46kA6vOWvx81tewtRHw+kOwYzXvJD49684UrVr9W5Pyek/cPCeE0ZOGQQtYZ/4+0mXqRPgdn83/jxbIhv39LnAvsdMuDvVHZBLk/7EGT59/v0pQiO14TxyPbq2NRGmNkbD62pSTm2x8PuucIi8jOWjt2NXUFV6Fgf5Y/Ho3dgTacbS8XAMqqWWi/hOBPrO8cMP8UZY9L4PptrWnRYJIYQ8fyj4f165mbCwPhcpMfyABFraQHFRKStYmaG1dwlS4jgWxLFJTk5oaZuJ8IAiNs0cfSY6onD/MXz3UxAuHw3F9q9uIV7LGu7yWAR48AD5RWIYmioVSvXc0KOHJm7/G44s8ZNJMum7/sHsflvw65FCYUx1HGeITgNskH/iErbti8T18zG4EZiDkhrb09By1FXKX9PQv2VHzP8rWRhTkzUc7HWQ6/8Xth44hrPHj+Ps6ZCHzmfDyyGPxxC58Vdg6NYL2pw9nNyNkBgbz3JwDZrdYG1fiKQQP5TbeMO6xgwW3qNgVngAfttW4n7QPoT9MwPXI3Th5D0IYlmQFYi0+FIW7HcWhvk8pAMrB3dUxF1jIeqTUXhtGv5e1hGnr9WdDo1MdVAc+RfCgo4h/vZxxIeHPJSPG15O0+AD0XGTPeGdE4M530fjZmH17fAZORSWEZvw/rurcfDATqydtxj7U10wZFRVbYzS2Kuy/HT6WgJK2L+ka0dlwzdiS4U5gHZjR8Ipbgc+futn/HNgDzYtno1tIfYYNqGvMIdcdmQkynsNRu+ql/8PK4rDjaPydVR2/tHVj2Heffjx8xw7iN1fzsA3hwvQ4qWJaFvPQ4WGuE6fjT7a7Pq77jqkyuuqZ3vE4rv4a/tl6A2djOHCcykYjcDLI81wddsmRNY478+UovtICD2K+JC9CNkzE6EJZrBv2UmY+GziH651n9cFzbJu4Zf3byIq/+HjK85Pw5H3j+Fkth3Gzm0JnVrShLgwD+u+v45tuWZYMMkeBo+RbgghhDxbnuE7L6mPjrMxjMtZ8J/AD2nIgv+SIhbtW7NgXy8NcTlSlBYDxl0d4JiWhNv8G3uJJZwdOcSGpoBTFLrib+KrF7Zgy2X5IIv+kZfLQhTTqrqvRoNaog1iceGY0tt0ExsMWTYGKw++iQ1np2Plql7o5CASJsoDjaG/zcXaT1uj06Ix+O7kLPx2+GXMe9miqmoyZ4lX9s7F1ivzZN2Wy6PR36COQobYAo7OQHJkpjCiisrLaYJtbghnNBFrwiPx+/Tqnx2YvLYdAeFbMcZIse9acBrxEX49fhnn7vDVibdhwQvVqxNzI1cjIGobJvd/F7+dC4JfSAB2//EufJSqbNescnz0s87CFDlOpAUdAwMYGulDkz/lYm3os2FZp69VGRg2tBxeU22zKkRaBpDo1tJpNa4aKicZi6XzL+Gd9n0xefw+/D73DFZP+hpDLViGUabTHsMG/YbvZ5zGlnkn8N3YRehiJF8Xx3lj2ozjmMbyDscZYfA4P+yYNBPWbL85g8lY8dYq9NVSdf+0oZHohzTbrrA37Q878ytITNZ5+ELs6gtLjXBk+AcjW7MdrF2F8QJ9YxsgKxI5FfJhsTgf8ScX4ZL/LfApWiwuRUrsHYgdO7BwW8GXBf+ayIy9Upn/+XNq2PYjDFxwGa+sCMNLC7ehYxvnam1mcG1X4/Wvt8GrxbsY8l4QJn8WgNFT3oW1ftU8ur32VFaT5rsXR9ZIh2BpjT+nOvoQyzaQHQc2LO+0+A2RzdfQcnhNtc0yEmsMa6uBayciEVT28O1QoqkJ5OejQBhGxQ38NLwTXv32hjCiYRwngr2dFRATiXBhnFiciJPrvsOfl1Iq34jzJLcv41JZT/QbUF/03zh8WggOiwJs7eH4iLW4OZ0BmPFaG6Tt+RX/NLLWSPrOrTjzoBvGT/KUDdu/MgndSo9h566H6nvUi3+wbd1/PUZ9GILJn57H4CEj0W5WFF6ZMFiYo+G0wbVehde+jsK0bzeiuR67XQ6/XJnWpryzoJ4gN4/dT6UQiYR8ozUOA1ZEYngfJ9mwgna3v/H655vgzq4Hqq5LpfQscoXLyB0Y81EIXvsqAq9+dAIDhw6Abs3t1XZD5y6aCN97HVG1pGcFcVkqDu9Lgk5XD3jXuBQqiMvysPZkFvTb2WJgLV9n8A8abGYewxtHQzB+Ztf/XDs7hBDyvKr77kCeaXaORhCl5CBZVitWC5qs/FzyoBR6XR1hHZSMRK1ylBRpoo2PLYqDE3CPn60iH1nZYniN7gQvG/mpF7NieWFWMUoqFEmhEPnZLPg3lr/55wPi7kMcUHLxNgKFl+mchjlG/TAa49oU4+qmc/jjl1BkOrXGzE/awbKyAGACazu2TZ5u8CmIwL7vL+F8vD5853RDD1NhFlag8vvhCH56/zC2nswFcvOQnCdMEoi1JNDRl0DP1QxW2iXIymBxGhvmO4mGYl0NL6fptrkBOcdx8WYF2vQeBENhuRyniz59fCC9cQZnc2SjoNNpCX758UWYBG/DDx98ij+DTDD6x414y6dmKcsZw192QMDqT/D1r+dQ6jsXX7w/sPJhRGWV49nLcCxeNqq6Vgvwd3AwLgQfxXQvtodj17B+fjgY569+j97CbA0uh2mqbW4IxxnA64tgTDv0cPfGF5NVXo6MqSOskA8Hj2GQ3t+IrRePIsOgDyb2HQ8TxfkReWDMmF/wom0u/P2/x/rz/yDTbBzmDHlFSBtScFJWmJeyXp0+aG9agAKxpuxtvZFrJzgnX0ag7BMb1YjLLiIhuQOcBveCadR5pLJAuCYTtw7QyQ5FauINpOeYwsqtepVtsSx459iWVSlJOILIO7dln/fw8qNuolC3A2zkTYEAVt6w0E9EalSSMALQdF2CgRNfhE78NgTs/RRhcSZoPnEjvF0ePqcenRyQePoT+J0+B851LnoPHVhZ4C8J/UZWhf/UlmWo5fkcCzwXYPTyYLy24ig62LMg32cN6+eHgzH5o+/hKMzW4HKYptpmGUdDuEqKERpRe/XzoMvX8MD7dXzwZk84sEsif2hL8zKQVVDzQ436iCHSELFkxM6W4qErE3dsDdbtCUKp0jhtzZs4e74cXQb3r/ZQrTot6BgZVT3EM9CHRFzXvHKO9jbsupiNLOFhkcpEWtBj6/KcPhcDDK5i+xr/qgfHlerfHnHpSezYE4PmL02Ft0YbvPxyRyTt3ogLpTWXUz9Jm0/Qd2AXSO+uht+BNUgxn4Rm5sJEQYNpI3YTzv85H2d2rEUyy7M5gR+zfn54Ps4ePYJqH4uxfZfoGEFD1x6WPp/CyykGdwPOyqcVH8b9uw9g2WaUUhBvAtfWHcDd+xcx/PVAxXWpkp4Nu61Ez042yLr0Kc5vXwD/y9Ew6vkLenRSVKcQuJrCRrMAMWENf/aWHZqKTE0T2Nd4sKgs5W4OkiQGaKbIoNVoQtfKGloSfRhYmMseOhJCCHn2Ne7uS54JfFmDD/6liblIlI2RQEuHQ/EDKQv2rREVmAQNrQqUlzigVTsx7t9IkFfT5OLxzy93UdjSF0v2zsCPG4bgxUFm1d488cF/LgtQ9RXV/u1bolvbIgQciqkMKiR9fTDcIx173z6CvfsjcGW/P9b9lQxNLzu4y+Zg9FiwbsaWduEy1qwJweVjodi+/h5yNQ1hJpRXxOISxPrF4Mb5GGSUsQAoMRtVYQm/n2YYt+VNrD81E+v/7ApXkQ56fcP62fBvJ6dhRl/59jS0HF5TbXNDxOIsnDodBLFvH/RWVJ7QGYDunTQRevpf5AjHsPNLY+AQuh6LZNWJd+OPd2dh221XjJioCMerBKxegI27/8Gh35Zg5e54mHfpgebCtMoqx0f9EF/blw6Rf+PjyZMxe/J8/BPNyv9nv2H9/PBkzJm2Cor3lw0uh2mqbW5YIaLWTcY/ix/uDq47+tD38fWRmDvADCUI8/sQ24MO42Lwt/j7bjo0jO0q34hLmr2BERYR2L1vEXaH/Au/kNVYcz0YGrZtIf9ing+xWaDNAicdt55wTgtFokgMDWijg0tbREefRf5DAVHdRBq5iI+Ih3P7Hsi4exrQqP46lv/ExdbZAxWJQcjCLaQnlsDEuXPjHnrw4gORXuoKK1d5Ax6aLu1gUnITqbLaQnK2vmNglLgeZ3atRmTQbgTvmoXQJFd4dnr4nCaeWYCQ6/8g6sISXL4WDz33HuzYynFZV2VV+GND/ZBbWxyd8Tcu/D4ZR9fPx900Fjvd+Yb188OTcWzTKqQKszW4HKaptllGVxN6KEVe5av96rJZMPbF/gfo8sE2HLh5FX9vXoGJna34kyTM0Tj8n0l0FEEy63RYgKe0LLGmCJeOnYeo12B0r/ksQyBynYpNwgM82UO84Kv4eKAwUUEI2vUNLeAy4D3MH+uAjNNHEShMVpWo42IcZuvYubAdKs79hf21fIWhyvaEbtqBILMRmLjiTbxgF4jdm4OEKaqzadkTOilbcHb3GkQF7cTNP39AQo3T0FDaEOffQGzwQUQHXUMe+9uS1FOyYVkXEVHtwYbI7X22vcF47dOLGDG2K3IPz8b1aHmi5O85cTdPo8R+GNwU9wa9YXB2rkDCrX9l90pV16VKejax9YBG0m4EnNmN2LAjuHdqIU5teR93ap4PPS12VSrBg1xhuD45bD5WdtDRE4Zrk1+KfHal06/eNIWMWFyEyC96Y/vUXvjzq4O1PBQihBDyLKKr9XPJGDZ2YuQkZgkBOQtDtMpQUmiL1u1zcNufg0S7HKVujmhplIG7AfLXkvzbwszjp7Bk/C6sXhWMe7DFkE/HYvYLVVX8+cVlZ5dA01hP1siY4whPuCRF4Py1qlJWq84O0I6MRVC+tvwtvJEhWrY0ApJzkSLMAzdjWInyEHyelfQVhQIW43DFD1BY8608pw0be1ZkScypDI7lCnBx5QF8/dZ+rN6fCemDWOxk/fzwyrf3Y/eV6iW/upfT9Ntcn9RjZ3BX0gk9+sur7mr27gMf3VBcPCZfE8fpw87OBHkxscgX3pgZGuUiLjoXxnaONapyxiH2btVwXFwsilnwYCwMN0RcFItgPz/4X7yJpAds3RnhuMqGZZ1/BHJrHKe6PNVtFktRFOmH5Ju1dJEsTFRxm3l2Jg4QF/ojgAXQlfhYvjgfivJxa2dvaGcE4GaxIXQk+tDRtoeXtS2QlwR52VrKv/tn/7Th7d4aEdE3WbqQsJi9K9rax+Pm/ZqPmuonEmsgL3g77oZuQ8TtbH6MfIKCuCusHTWQnXgDUnEF0hPuQuTQEdaq77ZcxWWkJQJmTp3Z+eNg5dgKooTrSBVODX9ODU1NUJLOnx8jWRV8iU4uctNzoW3qWOPNcxzyFX/I5GXGolxiAFUrp4vLYpHBzmnSvZt8PAFpfjhS2LCsi46o9va7Pk2/zcp1Jx4mRiKOvjsYI0bMwrd/nEOG4wgs2LITSyqf7DWWC6btUwqU/54BRVurPJFIhJIzx+Av7o1+fWqP/qVJh7BCeIAne4g3eRo2BggTBYqg/cKtq9izfgYco37DshWnUNaIvMOT3tmGRWwdXx9JhXanvuhaywlXZXuQ9Cd2na5Av5eHQ3xqG/Y1Lsuw8y6GrqEJuzmxc6rYh4oI5PHZR9C4tNEwacIWnOQfUP0xF5cvx8Bi1Fr4ulVFyuW3/0Hcg+Zw8ZY3mKPdehCsKi4iKixfNqwKVbc5J/k+OLuX0G3YDHi07QtrG13k3zmAhMQa1WPYpaRxb+BV+YO6ZxBzeSiIT0ApOz+EEEKeD3TFfi6Zyqqnp8YLdchZhCphwX+xtRNaFCUgJEWLBf8VMG5vD/PkRITKqwdU4jLTcfXvK/h1+h78c1uC9kPcqzX6k5tVBJjowoQVS3sOsEDsiduIFQpc/GcADs46ELXogm/4N/J8d/x1zOnF4fJvNxAjzKfpbAIzaQ4r3MsGZcSBFzC/334cS6uZ7ExhxWKt9KTqrytk3y0HJeJ2YCLy+SJ7YjKuXo2XDd8OTEV6jca56lrOk9nmesQdxcU7+vDt00tWxbhTv+4wvH0GZyqr07PAkZXrjUf+UhkE8N1XI1l4LNFE9R9gYmGnUpk1Z8tr6OG7GH6NLMQ/vqe7zU31zb+tKUsQ2bEsDJSTfadqYo6K3DjZ22a+dokjK3yLbKbj+3lnsJHv5uzDPI8KXPLbjmjZNnOQSivYf7uio/1d3IgqAscCeIl9F7Qq8sd1pQBEFSL2T5yxC/5/foHYglqOiYMPLLUzkRGXxIJBDRTGh6FIuwOsHYTpKhKLc5AUFw1t544wgyusHS2RExugFABKwBYPHe9fKqvg810/b3ZONTT5515Kqp/T0iuvYfvni5H4f0iHT3ub+YdRObdPYOe372HOwLH4LcwWY+a8DDPlhassCYc+kAfJv5yt4/VsyRmcvSBGzyF9av+OuiQJty9erHqI5+eP6Jzq+6QI2t/68RKKpPfw17tf4VreI5yrwjjcYOva+dNfuG88BK9MZPmpJhW2Rywuxsm/jyILmTi18/BDDTw2rLYgtfpnL41LGyooiUXyvYtIiTiK8MPTERBqCq8XplX98kbFWUSGpMKszSgYsyDeuU1ncHePIK6OGiu1U22b8y+/hwtX7kO39XR0mrABwxf64+V3f4SL8JOLj44dwfqffzENzkAIIeQ58gilAfI0mXT3xqtTXSq/T5ZxMoetbhGSIhXf9UmgrV0OndYO0L2RgFhWZNAWieHe1gKFQQng2/rjdCzgM6YFmltWLUfMQuq42HKIRdVLVdlZbLmGujBs3xKdbVNw+aDS7zrBBBbWQPLhE7I38LJuzi68N3o7fjtZJMzDgi4nY2ik58q+dWyQjhmsLaRIi689iuI4Ddg66KGMTa+3rak6l/MEtrkeYnEsTp+LgHGPfvCGD3r1sELkueOIryzwlqGirHoVfEU3Z/kRdlaeRU9vm5vqm3/+5/JsjXVQkBuLwspj7wYbYzHSsqKFFsudYWnEQrLQz/DFnnnybtcbWLhhAtZGKFIbX/hlnX0veKVfxPVSKaSsxO7m7IvS6PNK57Vp6Lt5w0hkjpZv3sOUr1k3YyL0RPawdrMT5uD3jT8G4mrxkJbjCHi0alXtDWdW1E2UmLWHjYkPLK1zkBZ1W5jCK5N9yqBcBb+yKv4/R1DVVv2zpIm3uZRjS9SEXi3VmvmGRL3HTsLA1lU/lC7monDi7F1oOruylKMq/pMRln5YOtFAMRJvyYPk+5nsPLFzVTM1i8VlOHv8AiR9h8Cr/BHPghC0X1r9K46ktMDYGX0a/ea7mntb8felcvi89gaaP7TFqqnIzkUhCpCX3diGB/hjUoGyInZf0jWGduV+2EC3WgWMJ5ee+YcXGUkxEJm7gF0uhHHsunHjGAqtBsPddRCc3cqREHys+i8hNEi1bRZLYxBzZAaOfNcV25e1xs41nyJFZwx8e3cX5hCUlsvSc71V+RUMJNBBhfxXgeqiJ4EeO9/FjXqgQQgh5FnWtKVW0uTMOnph0AR3OAhnii/02w9yg2NhAoJvysfxwb+mFgenZqYIv86/5teARGwBp5YcIm4kyEspFs4YtbgPBnaoev/B6TrCt6MW4oLjUaxUYMnLLgKnp4U2bD2G18NxqbJePE/Ev5BAQaz8jTzfhYYWwbC1A5yU3kLY2huzaDvnoW/va+ViBEtRAVJj6yoUsqDeHshIyJXvS13qXM4T2OYG3Dt6FvFW3dB9TG/42Efj0rE7whR+FwqRlJTDylX5CBPemPlf9EdcgYQFF+XP5LeTT3ebm+qbf1cW/AOp2VHCMKPhAltWek/LUYxjARnb9MKs6wiLvybrQpKzYGzjAycdRdpgwb60DE5OPkiNOYd8PmAT2aCNsx6CIm8J8zQNvmaCrXMrSBO34MSaCTgs695ASIIU5s5d2bGWb1NhLsuUZm4wEbIz/8DEacA36N6pbfXQLPo6MqTNYda1PcykQUjlnwQK+HOan50DiUY+0vk3nLJq+f7IL5GwXS6vP6/9nzT5Nqc8QIJUDx7Otb0X1kbHKcvxwew+lTWj+E+Lmnmwi1F6mvBJSMP4mgOJSWmAsweaC5vH1zhxcTZGaUoSamvXsOTEcfhr90VHj4YbbquPmLuK7dtvwXzkdIxUsd2S2vC1SI5sOoxM1xcxeYgqkeWj0en5GUau24Wu3SyEMVUy4m6jwukV+Ph0gL6BE2x6z+Uv+ZUalzbYPYJ/HqNRvc5SXfgW+U2tHNjNMZVdnZRE70FUpiucXngdthXnEHW7tifHda9LlW3mk55F5xXo3Nmb3xCIpUUojNmOqPhS6Jk6ysZVistDutQIds3Y3zdAr5kFzDg2fx0NvPKMXAxgwz1AvKJRDkIIIc+9Z690R6qJvZ6MfGMPvLzMG136uWPAvJFYNMUU9/4IwE1FFMQiW21NI9jYpOG2Px/4SqBlrAND7XSEBwgzJSbifpoGOsx5ARPGeaLryI6YuXYIuuMeDuxWfrPPyhKZRSjQtUXXHjq4dTQcBdUKTRm4G1oK9/H98eIYD3Qa3hav/TgWH3zYAhbCqvjvGG3tNFGYmFPjb6twZhZo39sF3qzz6WcDc5RCx8lNNuzd3rD6WyqJKaytpEiJq+Vn/lRaTtNsc6OEHMflBCf0mjsUrgnncSZEGC8I2LkfKV3n42e+AawRIzHhvbVYt3MNpnaq43eXasF/B2vfcTD6Dh6M/kO7w1Ef0LLvKBvmu1bWSsewHqoupym2WRVN9s2/rhOsdEqQkqX0OMfYCdYa6UjlP22RCced5EK4d1iKl1oPQZeWEzF1zHp8NGgYLCufIfEt/ZvB1SoHN++ls0K5FFKxF9wNAnCjxic1j68jrJy0kXt/PxJjA5Eu687h/v1oaDj5QhESZd04iEy9Meg2aRE82o+B14j18PYsQuyNE9XfPBZfQVqKIeza94Feyg2k1nhyknxtPwrc52PQ6Dfh1mYkWg5Zi8Gz16C9a+PSob7TYDh6DYZz6+4wZn+qYdpRNsx35oaqp0NVltMU21wpPw3n7wHd+znBVvmaw4jFCfh3z2VoDvkEq7+YjZGjxmHy8i14/wVtXN3zD1KE46zl3Emed3wdoM3+2fkOlQ17O1cFe7f2H0Kc8ytYsWo+Ro8ai0kr1uMN3yycOXS+9jfFxSdw9pI2XGs2Z89j6dp7qHwdlV0XV6U34tXFbduEi+XdMfGN1sKYR1NydgMO3DXCgKmvKv1CCtPI7akLH2C7DJsMOw8ftB0xsPJBl0K+/+e4EaUL9wn78eJHZ9C/VQKSajyBUT1t3ENOWjlM285D83Yj4dyWda7O/EYI0xldDzi0HgrH1mPQauRGdOtghLQb+5CndL7E4jDcD74HU6e2qAj/Fwk18pdc/etqaJv51ZUb+aDFC1+ie5/xcPYaDo/e36KtpwayE4KrXw9zoxFyG2g1vFW9n6XwDwv7DHOA6HYsgupoz4Z/0PVyH0uI2TXvdB1Vu7jmH2DiySiMHPsYT5YIIYQ8VbWUOsizpOziBXz3432Ute2IN5b1xYjuYtz6fj9+/DO76qavown+n3ZCAkJkN3I2xJcb4hMRJvyUsliagr8WncalRCN0n90PU2d7wSE1GKvmncT1Gt9nIuMB8mEAc51IXDhVvTTDV0m9/O0xHInUQ4+5AzDj7Q5oVnQPv805hRuV3+CzYJ1/OZagaJPgYXp9umHh1y9gPt+97gCJyAL9PpYPz33FrvrbS2cTFrDVXjNAleU01TY3hlgchNNnk+Hq4YH0s8cQVqOAX3x1Jd5eeBDFXadh8TdfYfZIS9xZNQMfbKznNcxD9NDz3bX4bi3frcAQR8Ck3yJheC2mdhNma5Bqy2mabX6KzJxgiSQW/AvDPDP+p/+SkCyM49+8+Z36CIfSLdGz51LM7D0RnmWnsGbXclyv9jvZBtDL80OALH9JwekYQRx/CaF1l68fjVVnWBnmIPU+K9QryYq4imLDDrARythcymqc2b4BeaZj0WnsCrRvpY3EQ9Pgd7P6hzH8JygpsakwNLNHQdxVpc8f5MqjV+Lk3wdR7jENXSZ8Be/2lsg8NQNn/RqXDh1ZwDLgdb5bAXcWr+p6LRKG16Jt5c9pNES15TTNNsvxrbZv2RWHTE9PrJlkBrPqVx7Eb34bb39xFtJuU/HuV59iSm8J/FdOw4dbYoU5WF4Z8p48r3wwGOZg158P5Plm3pCq3xUoCfwOCxb8hRTPlzH/q88wpSeH88um4asjtX/qxLd3cubYpVobQhTZDMViIW8qum8/Hl2t4cBq8g5hx/5EuL38Jnpp858ZSKCt+LWBhzodNrX2RC0W38dfWy+hwncSXulQtV2N3p46yNp4CfTHg+JMJF67/lBtInFFMELW98bO70bj8M+9sWvdHw99bqRq2hCLUxB+eCUSxf3R6eWf0O/Vn9B3YN9q7QKI7F5BP5bu+r/6FTq0NkH6mVk4c/6+MLVK9h0/FEhzEXfrVK0PchpalyrbnHV6IfxYlG7dezl6T/4R3fr4oOzWUpw/q/wZD7+uQpxcfxt5bbvirXn27Kr18LnkGy5tNW8IxrZ5gHPrg5FVyzbzaaT7pA54x7MEO3fFIrmWeXgaru4wRDLS71LVAEIIeV6IXF1d+Q9anyq2TkRHK9U//T9r390FQX4xwhB51mgMGoLfPpJgy6B/cLG49kIIIYQ8Cv4FactB7fH7FBvoJyfjh1U3sSNOfa8znM1MbL+8BK2EYWVSBOOXbiOxNeXZ33+OawXfJYfgEj4Bew819kcMm45Bv0MY3yMCJ1csQKL0/3/cOE4Ex7GDsWCBG3TiIrHv06M4EynfLs69Fd76tAt8nEpx/YcjWLM/46GHLJyTA9bOa45BduU4uSkQb53Mr/yZ35os3jyNcWMicfKF6YiqePbTDCGEEAr+ZSj4f/bwjfzZd3KEnZkRfKd0Q9vYM1i8JPyhN5eEENIUdG0t8fowO+DyTay7o77XGU5ii1ad3FDVjKGyPMRevYXUarVenh3aNn1hZabFSi7a0Hd/HR262SN2Y29cjvj/tEjHcW7wXngKLRKm4+9dp/hX78KU/z8tJxcMfMkTOHkMR4Lk28W174C5AwH/ncG4GfdwTToe19IFv3YDDv8bixPJdRcP+fZJWn4Zhj7mq7Bj5s9N87kcIYSQJ46Cf4aC/2cPxzlh5skR6CIuQMLVYPy58jruPspPVRFCCFELtuMCMaSTGaRcKUpz7yLh4me4cjFQ6ecrny7OehHGLXgZKRs74UpEU38D9Gzja1503XoInsFTsO2HC8JYQgghzzoK/hkK/gkhhBBCCCGEqDN6lUoIIYQQQgghhKg5Cv4JIYQQQgghhBA1R8E/IYQQQgghhBCi5ij4J4QQQgghhBBC1BwF/4QQQgghhBBCiJqj4J8QQgghhBBCCFFzFPwTQgghhBBCCCFqjoJ/QgghhBBCCCFEzVHwTwghhBBCCCGEqDkK/gkhhBBCCCGEEDVHwT8hhBBCCCGEEKLmKPgnhBBCCCGEEELUHAX/hBBCCCGEEEKImqPgnxBCCCGEEEIIUXMU/BNCCCGEEEIIIWqOgn9CCCGEEEIIIUTNUfBPCCGEEEIIIYSoOQr+CSGEEEIIIYQQNUfBPyGEEEIIIYQQouYo+CeEEEIIIYQQQtQcBf+EEEIIIYQQQoiao+CfEEIIIYQQQghRcxT8E0IIIYQQQgghao6Cf0IIIYQQQgghRM1R8E8IIYQQQgghhKg5Cv4JIYQQQgghhBA1R8E/IYQQQgghhBCi5ij4J4QQQgghhBBC1BwF/4QQQgghhBBCiJqj4J8QQgghhBBCCFFzFPwTQgghhBBCCCFqjoJ/QgghhBBCCCFEzVHwTwghhBBCCCGEqDkK/gkhhBBCCCGEEDVHwT8hhBBCCCGEEKLmKPgnhBBCCCGEEELUHAX/hBBCCCGEEEKImqPgnxBCCCGEEEIIUXMU/BNCCCGEEEIIIWqOgn9CCCGEEEIIIUTNUfBPCCGEEEIIIYSoOQr+CSGEEEIIIYQQNUfBPyGEEEIIIYQQouYo+FczHMdBIhHxPcIY8iTwh1eiJaHj/JygfPHfxkm00aWvC0Y4Pd/nn3Oyxqy+JrCVUDomhBBCSONR8P8c4OOVFv28sOvnAbizYxCu/dARH3XVgUYtgYzzsM64uX0gdgzTE8Y8GzhOgmmfDUXYO9bCmIdxnDm+3TgUe0ZqyYK10e8Oxo3Z5vJp7Vrj5s4hWNdTNohOb/RF+EJrcC6eOLtzKKJ2DXu429kLS1yeTCHZceoOnAm/iXVTnYUxzwaOM8Eru6JwadVwYczDOK4PPr0ZhY0zbVg/MGxdOM58208+rc9KnI2KwLej5ZeGDp/5wX/NSHCtl+BAVBSu19IFRp3FW62ffjBC+YJNe8byxbPIqLkrtv7UFzumOMJLXxgp4DgdDOnoiZdtHv1W6NuzH8Je9oR7Lemuyekb48UpXXH2J1/Maq4hjCSEEEIIUQ0F/88BnbZe2PimPfTDI7FsXRh2xOth0lud8F6Lh08fV1aBktIKFJVJhTHPJ7FYjKTsUhib6EDCCtWGVtrQKKqArYWOLACyM9VCelYxkJKIj74NxOxvrmH2lkSkSYtwdAvr54e/DcXeFGGBTayitBilJSUoLi0Xxjyf2GFGcmomDC2tZMdZ394W4sIS2Dg4suMM2FqbIz01CYjZiy9nz8YivvviKNLYv1NfyIcXz/4Ih2OEBT5FlC+evXzxzLF1xob3m8Mz/g7GzzmPlXdqpg0D9OrggRE2msLws018JwJ95/jhh3gjLHrfB1Nt/zsPcQghhBDy+B4uJZNnTrcetrCJj8K81ZHYczERP/x0Czuz9DGih4kwR5XE0zfQcfJpTD9dIox5fiVlFkFkrA1b1u9ioYeopALYWPJvbnVgayZGCpsuLi6EX2A6jrPuaFgRilCBuLBU2fDxwCzcL34ySTzlr2no37Ij5v+VLIx5fqWkpEFkbgX+3bMzC/7jIiNhZefEhqxhba2FtOR4iAvu4+rx4zjLutMBcShhRzoh4Khs+OxxP0QXPP1LCeWLZy9fPEs4Toxxkz3hnRODOd9H42aheuyzuDAP676/jm25ZlgwyR4G/FM6QgghhBAVUPD/HJBoiIAH5cgThlGRgy+XnMKIP3OFEYDNyM7VqvZefuPhAIivYtx1XAccWzcQtzf1xo6J1ljw2VAEz7MU5gCGvzMIUZ+5YtgEX5zbOAghv/XE7y+awVypgMlxIrh2bY6t3/XFrW18dWsfLO1Svbo1v65u471x4reBCPujFzaPNYZ2I1+6JmYVo9xYBzas39FCC/HR+dAy12Uhji5sTDmkZRTLZ2winNgVQ5fvwL5rIfCPjMDFqyewaskAWCntl9XMPdWqvB/9rLMwpQrHmcHn7fXY5R8Cv1vnse69kZi1KwrnfxwszAEMXBWGwF1vYcDC7TgQFIYLAcfx44LuMKt2DLXgNOIj/Hr8Ms7dCcPJk9uw4AXnGsfZDL7zf8fugBBcunEav87rCJ2qySpJSU5FuYUlrFi/nZ0ZEsPuQWJnz46zA6ysSpHJpjclkZYBJLq1dFqNq8ZM+eIp5QutVzH463D06T4Uvm+excTlIZjwzq9obq0lzCEntpmI7vMuY9Lymxj54mh4jAvElFkzoS3sP//5gtesKEycMBnOI3dh3Ke38erSo2y5bSBWOkZaztPQa/Z5vLw8AlO+YOtasAFtXIyEqXKcvi+8XtyFMR8GY/KKGxg94zO4mNVIPxJrDGurgWsnIhFUVv1Wx7m1Q9CcYQh/qzNGa4vQoTs793OHy7qwCe5wrtxmwN3DCxsn9sPVmQNxdqIvlrrrQktpe2viHzr0798PYVPaoo+GYjkiuLi3wO8v90XArMG4yJbznptutbQxZNBghI12w2BfXxybPhjXpvTEah+zatcEBXFZHtaezIJ+O1sMlAgjlfDpzGbmMbxxNATjZ3aFqJ7tJYQQQsh/BwX/z4FroZko9HTFFyMs4KTNyar+lhSWIbO4KmrICrgrr9L7TTAOpdYeTRh1aYlfJ1igLOgelm28j2u2LhjLRxA1mTtgolMW1m0OwdoQDl1ZsPJJ16oSpk7L5tj4tiNMI2Pw+fowbLwnwUvvdMISperW/LpWseAo/2oElm2ORLCbM8ZaCBNVVJFRiixDLViLtWFvUY7kiGJksiDHUawDa6MSpGQKMzYRu6kr8fEEG0Rs/BTL5i7At9ui4TztFyx7pSoIzDn2jbzq++xlOBYvjKzBcPgnWDm/C8ourMbXn6zBTZdJYDH7w2xHY2zzG9jy2SfYfJmDz1ursOgFY2EiO86dluCXH1+ESfA2/PDBp/gzyASjf9yIt3yqzgW/rq/f7oiC4z/j6+XrEdb6NQy3FyaqqCIpFdmmFrAUm8HGrhApN9iwjQPsxHawMM9AamLTBQ4cZwCvL4Ix7dDD3RtfTJZVZVcV5Yunky9g5QIDFMC09ShwIavgf2Q78gyGofOIl6sCe61+6Dr1czhxZ3H9wOeI1BiB1u6mKM2KRgn/bYmMB4zMgHKHQXApOYgbB75CRKYVXIYugYfwLT6nNQLdp7wH87y/4L/9NRzduhyx5d3QcewsGCvWJWqJ9lO3wNs5CzGnP8GlwzvxwOJV9HppRvW34I6GcJUUIzSiltoeyTH44Ph1LD52D1fLpIgJD2b9gbLuvSspSBNm07HzwtpB9jBMicZXp2/jzxQJRgzqjEV2dT+o0rb1xCJPTVwMCMe5Cvm+69g2x7pBLG2kxWDlqVBsS5Vg/OBOeLdmWwOGDphgkY0NF0KxIQHo3KkjPnSvJbpnUu7mIEligGaOwohqNKFrZQ0tiT4MLMwhEsYSQggh5L+tRsmDPIuyzt/G0gsV6D65M879MQBHP/DC1JZafCQlzAGUpubIq/hezUBMkTCyhk4drWAaF4131kRhL19N+se7uFhbrCXJxvof7uHvC8n49dcQ7E6ToGv7qjemPfo5wDk6ErNWR2I3W87q1TewPkYf4/tXRTGydbF55v8ejX2ydUXiWmPbp0ovQppEG1aGOrA3K0ZSWDFSzXThbMKCHEkRmviFNJq18IDk9m58t3o3Th47ggM/L8SCme9jb5gwA1Mae1Ve9f2oH+ILhZE1tO/XE8Z3t+DDRWtw6MBOrJ33A67UepyvY8uc77B//x5sWPABDiaYwLeXtzCRFfxfGgOH0PVY9O5qHDywG3+8OwvbbrtixMTewhyAN7+usE346KP1OCxb1zrcbOzny0kpyNSyYIG+M+xsUpASkIx0G1s4WtvCSisVKXU85Hg0hYhaNxn/LH64O7juKMqEuVRB+eLp5AsNWfCfh7gjc3H9yj5EB6yEf+B9iC3doXgfr+P9Btx1L+Lqpg9w58ZehOw+gUJTEQoy7wtzMNruMDZk5yTsa5w/uhXRQdsQcOwwHmjaQl+xoGb94aB7A7f3rEFMhD9S7+7Gtb+m4+zRo1CcPs02c9HW5g5ubHgTNwP2y7bn/IUbEDt1RLXnKLqa0EMp8gqEYSXiolwcjUzFoXtZSGLnOjszFUfYsKxjGbtIeGDR1cse9mmRePt0JPbfT8Rvp69jc7oeXvCSN7hYE8fpYlpPV9ik3cfX7LwodG3lCMf0SLx1KhL72HLWnbqOjen6GN26xpMfjWz8cSwCeyISsfbELezLk6Cz88O1VWTyS5EPDejrCsNKxOIiRH7RG9un9sKfXx0EV/kAhhBCCCH/ZVQieA6IUYIDqy+i95JAfHY4DelWdli6tAs+a6d61MDHQ1bGElngEKUoCFawQEzxiktZSj5uK9qx4/IRzeYxNpC/feKrtDpaSpCb/AC5epow0BHDSK8MMUllMLHUgz5bkWJdFZnFiFdaV2Rt66pPZhFSK7RhYaEHW70iJKaxYejC3lkXVuUlSMkW5msi98Lvo9zrJXz4wQyMHtEX3i10EX/6AM6FqP4qlT8+VhassJ4Yh1jFvpdHIKa2ADruHu4pol3uLmLjAEMTU/kgpw87OxPkxcQi38gI+gYGMDTKRVx0LoztHKErO85idmxMUJGciMTKdd1FdGOD9UQW7JdbwMzOCdYGyUiOS0Ya7GDT0gaWpalIb8JgUiyWoijSD8k3a+lY4MVmEOZsGOWLp5MvjCwcIcq5iLi4qkczYg12jMseVD6ssXZuB3HSxaoHYmz/RCIWeKcrtQRp7QIDUTwSQkOqzjNbjLQ0EyWKyL6iDBXwQvMx78PLdwTsnZyhkXEJsXdCUCr8jW2zLtBMvYiEB0bQ0DKAhq4TbB3sWQQfV/UJiEwjv6eogT+nDuz8FuUWIFlYt1hcgqjccnbe5ee0kkgEXW1NuLRphWmWhfjzYhRihL9RLCc/pxD5bB4DCUsb2mWIzSl7eDk5eQivEPpRgBi2Q8Y6tb/5l6v7nb6Yy0NBfAJK2foJIYQQQnhUKnhO8OXIrNh0bPk7FJMW+uHHaF28PNax2jfHDaqlnFh78VjKCuBV+FWwsq1AA5qswG7csyOCtw6p7H7pqSUryFcWU/n5pdWX3uiieAULavK0YemuC9u8YiSwYC81Vwf2LXRgns0PN62kze/h0+33YT5oOuZ/uwEbjvnj5MkfMdihEceY7bj0oePM1bHvnNJxZsEhm0lUeaAl0GAH03jkL7gQHFzZfTXSmE3ShPxra2Fd1Y5zXeuqR0US0rIsYNHGHjbZSUhGEjIybGDrYw1TFvknCbM1lab65p9H+eLJ5wsTcwcgMwpZwjAfzBqb20OaGSsLtjnOBiYW+ihOj6wM0GHtCkOWcvLSqn4NQ8PCGfrSGOQq/dKAOPIT7P54Am7nCX9391dcuRwMuLwCn7E/Y9Dcs5i4ZC1cjOXnk+MsYGJpBpHD2xi3Ihiv8d2n59CndTkij61HlmL9TYKdU7Y4rsb54vMpxCIoV7ARmXlg15tDcayPNXSSYvFHinL6ky/HqLkPrrJ5FN33zVnaqLEcXlUak7LczKexWhJopUanHkIIIYT8hzVlSYk8AXzDTZ16OWK4S1VgJJYW4fCNPEis9eEmjGsIXybOf8CKlfqaSg1IacOiejtaKqhAOVtM7vXbmLzcv3q3KaXqzRtfJq1RaFUe4pzt8dkMZ3TRUi4kiyBh21lW+XNsxUjN0YRFMwPYZBYhBoVIydZFq2Za0MoqQpPWRmfEFTE49vkMvN6/K3p5tcaw8Z8i0HAM5s/sLszRMLG4AoX5D1hJ3xgmlcfZBhZmQq/KyviXoMg9+w1mT55crZuz/AjyZfNIIXroOIurH2evF/HeFzPQsVorgJrQZBFHeWmpMMyC/TR9mHVwh0VSEuIQi9RUW7RoZwlJSnKTBpNN9c0/5Yunky84zp4F+noozopFRWVg7cqCfS0UZNwXqpM3g6E5UJAVJZ/MaNp4wEAah1ylWg1GVk4Q58Uit55vO8TSWEQfnIyDX7fH1k+6Yf/G35FtOBQt2yoaYXCDgSmQffVdHF0/Wdb9u3Ys9n45ABeDa1RRKeVYLtKEXi3V4lXDzik7DeIa54vF6+zASKH8I5/S3DgsPXAF8wMzUWbnjOm2yg+y5MvJiwnDNDaPcjf9YrKQlx+BngR64FD8/P+ABSGEEEKeEkVpjjyzxOg8rDU+H2Mhq+rN41uObumgxyKNkka9lQ26n4tST2cs7WcMexMddBvpjiHyWuYqE4s5xKeXQU+jHLeCM+AXmsUK3VmIKRJBQyqVBQN8PJDGSvga5jpwVARUGvpw55uTVxDpo+cAd4xuqVRIdjRGC90yxCcrSrMlSM6SwsLZCJqZD1AkliI5swJezoYoyS5GZmUw8vj4zWwzaQXen+wtaxlbzBUhJXA7Tt0qhbmdY7XWyBsSEnQbZR1ewYIJHWDDAh7fmXPRj/8dvUYQiwuRlJTDyvf5CLt4EVf9/OB/0R9xBRK2LeXCceZbds+Bhq097BXbp9kcrsoNgInc0HXidAzrrCOMYDzbwFM/F4kxGcKIRBbsl8OsRQsW7CeiWFzEhkvQ3MsdpWnJyGnC49x03/xTvmjKfKHT8zOMXLcLXbvVbH3QQxbYV3tEYdofdpaFSI++JYwwgTZLXmINeX0UjrOER1tfiPLikKcUIRubObConQX/wnBNHNrBc8Qn8LAXjk1pCrLuXkVOOQueSxTfz2uw9QBlGf5IifSTdcnxmdBx7g4T/Rp5NOUBEqR68HBWDsRrYueG/ZmklmMmO6f5pdA1NoBNZRrThpuxJnLyH6BQ+W/KSxAcn4FjASH4PUMPr/Zphpay9/by5SQUlEFXXIEQNs+VxCz4xbO0UcrSBL/+RzhfPCMXfrseIL6J23gghBBCiPp6tFIHeWr4b0wPnM2AZufW2DrDDS92t8WMab5Y3k0Mv7NJsm+9+XKpY3NLDPaxxNBOFnDRBbQtTGXDfNfORF4IjT9xGz/d1sCI2T1w8bc+WONbhCtxskmNculMApLaNMfGaa4Y29Uar03sgB3LfTDLqyo5Xb2RhhxXd/w4nc3T3R4LFjRDV8WLS15UHHbfk2DMTG+8P8QWo/u7Yc277nBPiseOYPksfJk4KasETjb6SM+UF/4Ts0thaqyNtMw6Wm97RPy6Sqx8MOaDL/Hp7PEYOHg4Rs76FlN6aSAyNFhWQOerO9t3HIy+gwej/9DucNQHtOw7yob5rpW1/Dgnbfsc6wJ0Mfib/TjsfwbfDkzAtbuySY0SsHM/UrrOx88r3sQLI0ZiwntrsW7nGkztpC3MwQLXs5eQ22oqVvDzjHoJs36dBx/l4xyyEweDjDD8yw14+/WxGPbyO/h27TQ4R+3BngvyWfjv8JNTs+Dg7IyMZPl7/uTUdJiYmiI9JVE23FSa6pt/yhdNly/4n5R0GTYZdh4+aDtiYPUHXfquMNLNRZn9dHTtPhYuvm+hzxtvwSJrL+7cVjyMiEJeNmDW4yf0Gr4EXaf/jRZ6MSjT6wKvoWNgIuLbO7CBsbk+SjKiqz4NqIkzh2XH19Fx6GI4e3aBledwtJqwGC4if0TfzhFmCkFKbD4suq2Ed6dRcPaehi7TdmLo+DEwrPnkKD8N5+8B3fs5wVZ5n6rJR1S2FJ7NmuFlD2sMd2edrU7lMfC/k4h4K3f80s8NYzxYGuvXEVOsHuDwndrbARGjEL+duY9oU3d86m3IH1zZ+Cth8Uh2aI61vV0xys0Gr3TxxqZxHTHDTrX0XhP/EOLlPpYQ30vH6TqqDnDNP8DEk1EYObbq10oIIYQQ8t/2aCUP8lTFHg3C1K2pkLZ2xbJZrTGrvQiXdlzDO8ceCHOI0f8lH6x9z5d1bTHCWgRTn5bCsC/mtBXmKsvHms/Ooev8Sxi/5Cx6fhKNWPmkRim+cxdv/JKI4tZu+HROOyzsoY2QPdfw1pGqwCPvyh28szcLRl098fkb7vCJj8W+dGEiIxYXY9231/DrPS0MHdcGX7zqBNfUGMz9KgK3lBqoSmTBjYGuJlIy5fsaLwQ3qVlN+1vmvPBfF+Krw3loN2M5Vqz5EUve9EH+4aVYtvq2MIceer67Ft+t5bsVGOIImPRbJAyvxdRu8rnEpcHY9EpvDBswGm+M7I3hE/54pKrYxVdX4u2FB1HcdRoWf/MVZo+0xJ1VM/DBxqql5R/+DB/+egOGw97BB5/ORLt7O3BEqZ6+WByDzTOn4Y8gI/R/azk+XPIiHOO2Y8kb3yBM+BkyXkpKKvQNWDCZJE8RScnyD7PTU5r6C/KmQ/miafKFWFyKlEB/PCjOROK169XfRFu7wgDJuH/qOHS7LEPPEa/DrGAfzm3+EunC9ojFYQg5+AfSS1zg7PsCzHPW4dwf3yAi3RLO3fpAX/YRu+LTgEjZ39RGLD6DW3u2Idd0InpO+RNDJq9AK6tI3Nq6EPcLFOsqQPT+dxCSbAWP4V+z7XkD1iVHcH7dIsSXKm03wz8g2rIrDpmenlgzyQxmwpt4Zfy+77h0G5dE1nhvYEd8O8QH3/hasZwuV5x0B3OOJyDf1g0f9G+DybZlOHQ8AN8nyXaqVuXp9/FpUCG8fFvjdaGh/uLku5h1IgHFDu5YOqgd3vbURtjVa1h46xEe1kCC7pM64B3PEuzcFVvZGGFNGq7uMGTnLv0uVQ0ghBBCiJzI1dVV+b3TU8HWiejoaGHo/699dxcE+Sm1Sv0fwX9//dGqnhh68zJ6bq6rMi55XBzXCgvPHUL/8xMw4rNAYSx5VlG+qCL23YTXxpTj/NJpiJbWHmQ+y/gX7y0HtcfvU2ygn5yMH1bdxI64528/FDgnB6yd1xyD7MpxclMg3jqZr9QWQ3UWb57GuDGROPnCdEQpPegjhBBCyH8XlQj+Y8ydLeTVnn2tMXV6K7xoU4zLN6v/QBZ5fGZefeWfAwwZiYkrlmOkSxqunQ8RppJnDeWL2hmZOwE5ccit+0X3M42Pi++eCsLgxdfxezhgqC9MeF7pa6LibiTmLr6AOacL6wz8+QYxzZ0cgZgQpKnekAYhhBBC1By9+Wf+S2/++8zqj439tGWvxHIzc3Hh3zB8dCgH+XUUIsmj6bYyEKteNINUWor85Lu4vOkzfPV7IAroOD+TKF88jH9r7jY5HH10v8TW9ZsfuWE68vTxtY26bj0Ez+Ap2PaD0LgHIYQQQv7zKPhn/qvV/gkhhBBCCCGE/DfQqxxCCCGEEEIIIUTNUfBPCCGEEEIIIYSoOQr+CSGEEEIIIYQQNUfBPyGEEEIIIYQQouYo+CeEEEIIIYQQQtQcBf+EEEIIIYQQQoiao+CfEEIIIYQQQghRcxT8E0IIIYQQQgghao6Cf0IIIYQQQgghRM1R8E8IIYQQQgghhKg5Cv4JIYQQQgghhBA1R8E/IYQQQgghhBCi5ij4J4QQQgghhBBC1BwF/4QQQgghhBBCiJqj4J8QQgghhBBCCFFzFPwTQgghhBBCCCFqjoJ/QgghhBBCCCFEzVHwTwghhBBCCCGEqDkK/gkhhBBCCCGEEDVHwT8hhBBCCCGEEKLmKPgnhBBCCCGEEELUHAX/hBBCCCGEEEKImqPgnxBCCCGEEEIIUXMU/BNCCCGEEEIIIWqOgn9CCCGEEEIIIUTNUfBPCCGEEEIIIYSoOQr+CSGEEEIIIYQQNUfBPyGEEEIIIYQQouYo+CeEEEIIIYQQQtQcBf+EEEIIIYQQQoiao+CfEEIIIYQQQghRcxT8E0IIIYQQQgghao6Cf0IIIYQQQgghRM1R8E8IIYQQQgghhKg5Cv4JIYQQQgghhBA1R8E/IYQQQgghhBCi5ij4J4QQQgghhBBC1BwF/4QQQgghhBBCiJqj4J8QQgghhBBCCFFzFPwTQgghhBBCCCFqjoJ/QgghhBBCCCFEzVHwTwghhBBCCCGEqDkK/gkhhBBCCCGEEDVHwT9RGxwHSLQk8p5nwLO2PU2Nk2ijS18XjHB6eP84ts8SsUht9/1J4pysMauvCWwldOwIIYQQQkjToeD/OTD8nUGI2jVM1t3bNgAXPm+LmS1ZUPkIOE4Hw8d5YlJL9Tv1jlN34Ez4Tayb6iyMaVpc6yU4EBWF67V0gVFn8Vbr6sHak96e/yej5q7Y+lNf7JjiCC99YaQSp7ZdcGXWIGxqqyeMaZwBAwbh9tzhsi5szhAEvt4dq3wsYPGIDxNExvb4ZnxfXJs1TL7Mme0w4P/wYGLIoMEIG+0M4/rWrW+MF6d0xdmffDGruYYwkhBCCCGEkMdDwf/zIi4WC7+5hvm/38PpEnO8+2FHzLB9lOBFH32Gu2N0M01hWH1UlBajtKQExaXlwpgmFrMXX86ejUV898VRpLF/p76QDy+e/REOxwjzCZ749vy/2Dpjw/vN4Rl/B+PnnMfKOw9fRioqKlDCVaCoQiqMaTxpZizeP3IV7/x7E9/eLUFrX1+s9TESpqqO40R4oWtrDNfJxbpTgXibX+bRKNwUpj9rxHci0HeOH36IN8Ki930w9ZHyOSGEEEIIIdVR8P+8KMzHuaupOHIhFp98fQsHCk0xaaCJMJHwUv6ahv4tO2L+X8nCmKYlLriPq8eP4yzrTgfEoQRFSAg4Khs+e9wP0QXVs9OT3p7/B44TY9xkT3jnxGDO99G4WVj7JST5znV0X3cKc+6UCGMeQXE+zkel4lRMKv66HIgv7pXBq7UT2jf6jb027A01kJMYhz/up7HlpeNUXD4yxc/u5U9cmId131/HtlwzLJhkDwP6fIIQQgghhDwmCv6fRyXZCIoD7G30+WhMNoqDFvpNaI+Dvw5A2PaBuPZLZ3w71AiGiuld2iF851DE7OmMcQYieE8aUPkpQdQ37nBRzMeJ4Nq1ObZ+1xe3tg3CtR98sLSLDjQaGXxwnBacRnyEX49fxrk7YTh5chsWvOBcuRyOc8bru2/D/9934SlS7IMnZh0Kx+X9s+HEhngDV4UhcNdb6PPWZuy9GYYLV0/gp3d7wkxpe6xm7qlWBf/oZ52FKVW4kasRELUNk/u/i9/OBcEvJAC7/3gXPubCug3G4Zfbkdgy20k2rGD2xt8ICN+EkQZV62tIQ9vD2czE1qjdWLpkJ06G+OPXaZ3Q74uTOBfsh19ntlE6RvUfQ1WJtAwg0a2l03qEKuUSawxrq4FrJyIRVPbw5cO6fZfK6vp8d6bnww+oOOhiRK9OODp1EILnDEXg1F74rYsFrOvZLz5OD0rLBwx04SSslk+rLu4t8PvLfREwazAuTvTFe266VccPIuhKxDDS1mC5gxGJYcCGZR3bdbFiPvf2CJnjizecPLB50kDcmNEfh4Z7oLNO1fY0tC6e6vulgS6dO+PY9MG4NqUnVvuYVUvPCuKyPKw9mQX9drYY+Ghf+RBCCCGEEFKJgv/nkFgsRVk5+7+GmIURco7D22PNCH1Enb6D938Nxo8XSuE7yQcfdxTmCI/Gop9vYP5PEfAvkiL6fAjrvy7vdqQgVT4XdFo2x8a3HWEaGYPP14dh4z0JXnqnE5a0aFxS0em0BL/8+CJMgrfhhw8+xZ9BJhj940a85SOPYsTiWGxdtg6Rbm/g3Snyb+LtXluGVz2jsfWj3xCnnDRtR2N8yyBs+2wZ1h8vQLu5P2PRC1XVv3OOfSOvij97GY7FCyNr5YzhLzsgYPUn+PrXcyj1nYsv3h8ICR945R3G0fMP4DVsFBwVQSFngkEDOqD80r84mScbpRLVtscTzfWOYM2+FHjP+xEjH2zAurPF6PL2LPQTvsho6BiqguMM4PVFMKYderh744vJ8n1vDEdDuEqKERpR+xv97KhwWbX6t48E40hu7VX+7du2xQovXdwJCsF7/97Al7fy4dq+I1a00hbmqJ2ToS5QUopsYZN1bJtj3SCWVtNisPJUKLalSjB+cCe8ayOkHfNm2D9jCK6+2QezrEQwbenL+ofKuoDp7dBPPpdAHyNb6+FKYAiWX0tFqZ0nvu1mBS3h+DS4Lkbl/TJ0wASLbGy4EIoNLH107tQRH7rXfk5T7uYgSWKAZo7CCEIIIYQQQh4RBf9qIu3UTfSYdRkLDybhTFA6Dh4Ox75YbXT3NpZNF+fk4fDlVBy4lI3EChakxafiIBuWdbcKUSRUge7RzwHO0ZGYtToSuy8mYvXqG1gfo4/x/S1k01XV+aUxcAhdj0XvrsbBA7vxx7uzsO22K0ZM7C3MAVTcXo2vNieg/VsfYrDzMCx8uyvSty3DHyE1vpHXDMCmeT/gwIF92Lp0Pv4MM0Hnvp2EiUBp7FV5VfyjfogvFEbWIWD1Amzc/Q8O/bYEK3fHw7xLDzRn48XiEpz+5zQKWg3DEHf5vDAdht4dK3DlyL+Vx0cVqm1PNgL3bMbe1UcQYZyCa+v/wp9/nEKiri2shUOtyjFsWCGi1k3GP4sf7g6uO4oyYS6V6WpCD6XIKxCGayjNy5FVqz8RlY7YUmFkDZ4WRpCkxeGr64k4FpOKPYG3MO/fIOxMF2ZQ4N/Ua2vCQCKBm7MnFrfUQ0Z0MvyFyV1bOcIxPRJvnYrEvvuJWHfqOjam62N0a+EA5sTj/X/8Me3AdezNliIvJoz1X5F10w/exzX5XJUuXwvCb+EpOBAUihVhD2Bub4kWwrQG18WovF8a2fjjWAT2RCRi7clb2JsnQWfnOj7hyS9FPjSgrysME0IIIYQQ8ogo+FcTJbrGmLW4N0K2D0HI1iEI3toX8z1EMDao/22qMv57bkdLCXKTHyBXjwVdOmIY6ZUhJqkMJpZ60FfxLTHH6cPOzoQFW7HINzKCvoEBDI1yERedC2M7R+gKyxGLKxD8wzLsyxuA+TuWonfRLnz13VWU1Qy046MQKTwPEIvjkJxcAWMLq8pq26qLQ+zdqr+Ji4tFsY4B5I9HgOIT/+BCdnP0H9NSNmw8dBDal13EyaP5suGmVYEKfp9Ky1DO9/NReBnfJ2b7qPoxbAhfS6Qo0g/JN2vpIlP5GYQ5VfXoDfgpRGTkodzKCZ90dcU4dwv4mGkgJiYZpzOqP4oQ2XnhpOxN/SAcGu4Op+z7WHIpTZY++LTqYCBBfk4h8mUPCPjq/WWIzSljaV6eVsUVRQhKzIJffA4S2aLLHxTgChuWdcmFyK2274WIyRJ6mbi8AhRrasKU9auyLp6q+4WcPIRXCP0oQGweS2s69dXmEAn/J4QQQggh5NFR8K8GOE4DE97sgDfsCrFx7VW8vtwfk5dfw7aYxgZqGtDUYIFIz44Ilj1AkHe/9NTiJ0H1yuYSaLCZjUf+ggvBwZXdVyNZmC3RlH9/LRCXXsWBozGwsrNFwpG/cK24tiQprRZySvkBFg81PiSSsmMl9DI5W15DD9/F8FMEgeVn8e/xVHgMHQV3FnwPGNwZZReO4MwD+eSnS/Vj2JAm/ea/CSSG3MLS4HxYuLvjvYGdsO2VAbj0SjsMq9GugjQ9Gm8fuIKZ/qkoQh62nQqHf6kifbC0ynqNmvtUVuXnu++bsyMjFuFRfsuCU0pkWaGB6LgpBOdlaUO1dam6X7zK2J9Pk+y/IlF9qfnxH7gQQgghhBCiKEmT5wjf+BiL/8BVcEIQYYZerTURfvI2vr+QiYuhWbgYnIPEYtnERqhAOVtg7vXbmCx7gKDUbUph4ZeqymRvsnPPfoPZkydX6+YsPwLl9+ic7SuY/6oj7twIhd0rSzC21p81E1UL9GVxEovUmjok4uO8gH3HkOY+GMM6D0LvLuW4/O+xh2siPBWqH8P6NPk3/6Uc2zJN6D1GNXSxtBiHL9/Ay3+ege+6Y+i3JxQBWo5Y7G0mzCEoLcS1+Aycv34fBwuMMaGDpVIDeyytsl7lqvyVVfovJqt8fFSj2rpU3q/G0JNADxyKH+NHEwghhBBCCOFR8P880jZFeycgIaVQHrGy4KCEBYoS/vWkgo4J2tgJ/dWwoJkF+JoaD596sZhDfHoZ9DTKcSs4A36yhwhZiCkSQUMqBadiECwWFyIpKYfFLfkIu3gRV/384H/RH3EFEoi58srlcJwFRq9YBO+0bfh60sfYld4Z81a89HDL545ucBder3KcE2xtNZCbkaby9jQGd3UPTsa4otfS19Gx9BxOnGj0E5QmoeoxbFgTf/Of8gAJUj14OD9arQGOndt2rbzwcStjiFi/mKXd5JRYnEjjYGGoX+unHGLkYHNINiybu2KMnjCOpdWEgjLoiisQEp8hq8rvF8/SaqmYza96WlWFKut6lP1ShZGLAWy4B4hXtMhJCCGEEELII2r66Ik8GfqG6NPJGsN7OePT99thtH42/jyZI0zMxvmQUrgPaoOvXrDFqL7O+GKpG1oVCZOrKcD9ZCladPPApO7WGNmNdV46lcHJpTMJSGrTHBunuWJsV2u8NrEDdiz3wSyvxiWVgJ37kdJ1Pn5e8SZeGDESE95bi3U712Bqp6o2CMxGfoq3+xXj0IrvEVochLXL96Kk3xK8N7JG44JlnTBl9UKMHjUWk7/4Ca+0+h97dwIYw/XHAfybSVbuU+7IJXHfEXHEfcVRKUpVS1tUHaV106J1VBWlRR1/Wq2iraOoUpQkrmiCRORAQu47IXKSc/J/sztJNhHJLitIf5/+529n5mVm3ps3s+8382Y2E34+ste1Cc9j23T0QB8PD/Qb7A5bXaCBTUfpuDC0slAu6OK4MPx18g4at22LonN/46KSsb8qt0eRMqyNyp/5z0nD+TuAe187WFUJaIXRRhZm6O9ghoGNzWDfANA0MJGOC0MbbRYUs/Xl6xhjdPe2WO1ig0EOFhjRoR0m2avhbmrWE4P2mNAonCsxx/i2Fb/y8G9YPJIbNcO2Xo54vbEl3u7igp/e6IjJ1qo/rdW2rqfNV014XhNv9TYDdycdXs/jtROEEEIIIeQ/RfWtZPJ82Nljw4JO2PhhEwzQfoDvvg7AjuSywIPHsV0B2HRLDX1GtcWXb9mg4ZU7OFD1LeMMxxVi9+6buKhmgcUzXPDdrI74bpQ5xBuqyL8VjombEpHfujGWTW+HOd01EXLoKmaeqPZKwhPlX1mDj+ccQ37XSZi/djWmeZrh1ubJ+HSX7LfveL2+mLN4CNROfo1NPrKH6h/6rMbGU2rov3gJ3OWfk044gj/CXfDesi8xdZA+grd8gnUnyh5C0EGPudvwzTZhWIlBtoBR33ni+DZM6CYmU0KEty9SkYWLx88+RZd/1W1PbWX4Igi/irD7QBzuN22KreNMYCJ9Yr0Mh96dO2HTUDc2tMVQQzUYO7QQx93wofhzdbeu3cDyiEK0d2mLtUNcsLSjCXIigrEwsIYHSwpS8XP4QzizetmH1XdBfnI4pv6TgPxGTlg8sB0+bqqJsCtXMeeGcnVVEYqs66ny9QQ8JHAf1wGfNC3A/gOxSH6KiweEEEIIIYTIU3N0dKzzt0mxdSI6Oloce/HauzsgyDdGHCMvkwGbw7DafAP6jt6J7DoKgGxn/oXDEyIwp9NsXCyhoKsq4Q5/i4HtsfN9S+gmJ2PD5uvYF0flpCq8XSNsm9EMA62Lceana5h5JgclFPwTQgghhJBnRC1K8vJ7qjf7Px2eb4zXhrRCltcJ+Cr9QPx/gxCHhp8Ngsf8AOy8DejrijOIauhqoCQ8Eh/Nv4DpXnkU+BNCCCGEEJWgViUh8lqORP9mGTh//JxKXxpXHz1KTsf2H29g+y0qJ1XibsXg4x9j8E8y/cQfIYQQQghRHer2z1C3f0IIIYQQQggh9RndsiOEEEIIIYQQQuo5Cv4JIYQQQgghhJB6joJ/QgghhBBCCCGknqPgnxBCCCGEEEIIqeco+CeEEEIIIYQQQuo5Cv5fQsKvIRBCCCGEEEIIIapCwT8hhBBCCCGEEFLPUfBPCCGEEEIIIYTUcxT8E0IIIYQQQggh9RwF/4QQQgghhBBCSD1HwT8hhBBCCCGEEFLPUfBPCCGEEEIIIYTUcxT8E0IIIYQQQggh9RwF/4SQp8JLNNGljwOG2fHiFOXw7M8kDSSyD4S8IEL1U1OXsH/rZz3kJXpoPqw93Jwq8sc7OWHoMCuYSOjYq8nLVjdoe6g+E0LIs1JzdHQsFT/XGbZOREdHi2MvXnt3BwT5xohjL97LVj4vO157HF4/tgLWKEZxdjzSLv4A3237kFHwal/bsh8bhr7ttaWf+cIs5CZfwO2/VyAs5r50mjJ43gGOA8ZAK3ILwmNyxalPz6CZIzZ93Aw99PKw4+vzWHNL+bK2eW8ffv+iHcKWD8bU3fHi1BeP540w7lAgpqfORPeZJ8SplfF8b6y4sQt227vh/W0peG3HbczLmY6+873B916D87tG4Nqc5ph/lEeH5b7YZrYGbltb4NixKbAVlyGvFLHY7dkLm0Prvs4qWzeEvHdfvgtGPt1w/FwKnN69jS750/HbIZb3pmswbuIIJP/eHD5BPMw8fTFYfw1+9m6BUZ9MgaGauBA5paWxCN7YC4HJHFs2B90Ws9DVYwQsTI3B54QjwfdLXLkUgCKOg7nnZQx1txT/km1L6Fzs3nNEHHs6ul33YcTr7ZD+52Cc/vf51EOebwBjt8/Rrc8QmBppovB+ACLPLkVAUDRKWb6Uocz+0m7bAR+t6ILW+ln4e+5eHAiSrYtv3wXr1neEaU4cDn9+GieCC6XTX6Ta8mU0yAsj+jiKYxVKkzbj0LfrkatkOSqiLuqGQNF9+ry3h7daqNBxWqauyqfMq1SfCSHkZaX6b0tC6lrBOfh/MQ2nvpiLiweuQqPXlxj22RvQfEnujjyL0pT9OLd7Gs4d3oy4Qjd0nLgTLU2fJl8OsOk+BU52euL4M7Cyxw+LmqFp/C2Mmv50gb+gpDAfhQUFyC8sFqe8moSYIzn1PvTNzCFhdU7XxgpcXgEsG9myRj0rLouGSE9NAmL+wFfTpmGeMKw6iTT239lVsvH505bg+Au7/vj0dUPIe272fWgamEONZVZiZMWOxwLomcjyrmfQEHnZLO/3/8DlX6bhLKvLZ4+dRF5pGqKPyca9flmCu2XXsyynY8C7H8Io8xiuHv4cwbeL0GjYj+jewUw6O9P/U9kydn+MsATppGdXnI/iogIUFz+/eqjRZCkGvvE6JNE7cfngCtxOsUGLt36Ci4OGmEIZCu4vu7aYs74rGkVexorhFYGSgAvyw/zhB3Eo0gSj1w/FwKfsvaNateerNPMk/pXu/4rB69hRPBTnq1wd1A0ZBffp894eRY/TMnVWPswrV58JIeTlVHH2JOQVxfEJSLt8GrGX/0LE/kX4e5s31Lu+h2YVNwhfXY/uIjH0JGKv74L/TwtwN789WnRxFWfWPeHO7Bvjm8IlMwbT10fjet7Tn0JSfpuEfi06YtZvyeKUV1dKShrUGprDgn22Z8F/XGQkzK3t2JgFLCwaIC05HlzuXVw5fRo+bPDyj0MBHiHB/6R03Oe0L6JzX83T8cPsNEDXHLrss6GJFbLTI6FtKMu7rkEDPMpkeS+8i5SbpxHPhtioOBSzvGdHnZSOx9/0RXahLO+mLq/DJO8ofPeswd2gwwj7czICIrRh5zKQHec8ClPPy5YRegZZKor48q5Owu9LO8Lr6vOrhxbtB0M35Sf4HNiCyKD9uP7rfIRnOaBx+06yBCrG8xK4z+iCJhk3sGnRdUTlPF63uJw0nFh0CmceWGPkRy2gJVytedkVxSGFnQ9l9UYcoqPBP4e7/oK6qBvKeN7bo+hxWqauyqfe1mdCCHkBns83JiEv0KOQG8hUs4OREH8ogZeMxOJZl/BJ+z4YP+owdn7kjS3jvsZgU00xhUirPYYM/B/WT/bC7hn/4JuR89DFQF06i+ddMGnyaUyy5dlnA3i84Yt946bAgjVEeL3xWDlzM/o0eMpGSZE/7qUAeiaObNmyZfAswLIZsBXDFgZi3JchGLPgELp17SC9Ay2d33oz3v06CpPW7UIzHRaEDL2MCWuipMP7n8yGXlk6vgH02y7BgNmX8fbKMIyZswcd29hL7+ZWIrHAkLbquPpPJIKKHj998JwjBq/Yh8NXQ+AXGYGLV/7B5oX9YS63HPMphxAQFVU+nFzeWZxTgedN4PrxDhzwC4HvjfPYvsATUw9E4fy3HmIKYMDmMFw7MBP95+zF0aAwXPA/jW9nu8NEbl1CvuyGLcH3py/j3K0wnDmzB7Nfs4d6pTQm6DRrJw76h+BSoBe+n9GRNRzFmQpKSU5FsakZzNlna2sTJIbdgcTaBlpoBHPzQtxn81VJ2GaLfjvw+mchGL/sPDwGeaLd1Ci8/WZF+dS2TxWtG7XJy0xlddsMbBHQNTRBTsIdqBvbQIPlXdegEA/ZfEXpGloCGZHILJGNc1wO4s/MwyW/G6imJ/IT1XZcCLR7HirPrzCM9qxcD3mDKXjt64PoMmg/xiz3wwB3N9gOP4O3l/tiQM82FeWo5ggHz30YsSQE766OwDtL/sGAwf2hLbcudU4DKMhBeWdkPhDXNrrh2KlAcQKbpMr9pdkYnbto4PYfAYiq5jgtwxWl4vjhJGh1dYZLldOcIl6mesjz9mg19Sbe/WQujFgNkE5DU7SbeRvjp0+DvjhNeJzq/akz0ajvzxj+RZh0f/Ub2KNST7Ha6oaAb7sF7329By2bz8WgBUEYv9wfw9+fCwvdiuWo6vys0PawcjZovxwec/7F2ytuYDQrZ7d2TpXO4WV5txuwFyOXsbwvPo1+/d2V7iWnsmOnlrpRro7qMyGE/BdQ8E/qHXWbRtBDHgrzxAmKMrZlwVsOGjkPQendXfjl4knc0+uNsX1GwaissaLmjBEjNmG0VRb8/NZjx/k/cd/kDUwf9DbMpGlKwZeyQF94k4ZWb7Q3zkUua/hL2KiBoxvsky/jWr6wJOVxXCFKWFCkpiGB7FIDoO++Cf16NEbWlbW4uH8xrgdmwPK17ejUUrgPy8T+hPO/zoL3vm1IZuvNvPY5+yyMz4LPyRPl3WU1HBdiwNjR0IrfA/8/liEszgjNxu6Ci4Ow5XJs9eEoyUdoRIE4oTLrCWvw+ZuWiNi1DEs/mo11e6JhP2kTlr4t67YtyDy1Vtb1fdpSnHrCY6L6Q7/AmlldUHRhC77+YiuuO4wDi9kfZzUcI5sFYvfyL/DzZR6uMzdj3muG4ky2C9wWYtO3o2EUvAcbPl2GX4OMMPzbXZjpWpEvYV1ff9wRuac34usVOxDW+l0MtRFnKqgkKRUPjE1hxpnA0joPKYFs3LIRrDlrmDa8h9RE5RrXtZG0+QJ9BnRBafgW+B7dipSG49CkoThTVOs+VbBu1IZnwX2+ril0WN71jPOQG8fGDdkxyPKuo3cPuVmK552T3sHl2VFUoSDhBCJv3USJEnd3az0umILQtWLX8aWIfOJrNJrCtMEJBASkwLL/t2ha9AMCb+XDpv9U2IkHoX63NejhZomMS8twfu9s+F2OhkGPTejuVlHn0yKvosj+PXTr0QN6rPiFrPD591BQWCSmUPH+cjSGpUYuYsJq34sPQlNxX8MINo8/Tl+ruq+HDaChZQD1BnrioAs1NVn94rhYhB3ZjkyziejSTXay0O+yFG0soxF85H/szC5XfwyHo4VVEEL/XIrrIbmw6LsRndsaiDMVrRsCezi7NUKi1xfw9ToH3vEj9Bo8oDx4VdX5WZHtUW+8GAPGvI4Gsbvhf3glbsUawumtH+HaWEtMIWJ5b24ZiOCjXyD4Dg+r/ptZ3ivOmYpQ1bGj8PdOHdVnQgj5L6Dgn9QLPK8GTosFHy3eQM+pr0P73gVEh4szFSRp2AgmKECY72fYG3QcF4PX4ffwdKgbWkPozi1N02QihplG4ODheTgY8jd8Q7Zga0Aw1K3aook0hRC2sOCFBelajXvAPi0UiWocC9Y10cGhLaKjfZCjwi6qD69Ox/6vXseF80eREO6NyAurcTfZDDZN20nnczmBiA0+huigq8hm7dGC1LPScekQEVHeXdaq0wgYJO6A9wGhW/JBBB+YitAkRzR16yWdX05bAzooRPYT3knVpLkzJDcP4pstB3Hm1Akc3TgHs6cswh9hYgKmMPaKrOv7SV/EP+ECTfu+PWAYvhufzduKv47ux7YZG/BvdTGkJAC7p3+DI0cO4YfZn+JYghE69XQRZwKdx4xAo9AdmDd3C44dPYgf507FnpuOGDa2Il8uwrrCfsKSJTtwXLqu7biu7KPYSSm438CUBfr2sLZMQYp/MtItrWBrYQXzBqlIUfG7sCxb9IBWym74HNyKKGk38g1IqFI+te1TRetGrTJT8EiDBf+69tAzSEFeVDIeGlpBX98KOhqpeJghpqtDtR0XAj7jiqx7c6gvsqq/lsU8QFLAz4jwPoEM7RQkn/8NNy+eRU4DK+iK8ZuRlTPUkw7C3/sgYsNO4M7ZOSwoWoRbcj2h8wOX4VLAQ1i/tgejvrgCz4kr0cLBnJ23KnaaSveXTgN2xinAwyxxvCaZLB0k0BK6biipruuhmtkEDFsZjHfFYfyKK+jeQpzJ8Mlb4OubAIv+n8HBZAg6DeiKvMtLEZxY5Zl0zh832LYKj5aEHpmF0EQWLDZ3E2cqWjdkEr1nIyTgT0RdWIjLV+Oh49SdfY/IqOr8rMj2WLsOg37iTnizfREZdAjBB6chLNEOzq7dxRQi9QAE7/2G5f0Qbhz4FOEZRrBqWnHOVISqjh2Fv3fqqD4TQsh/gYKtO0Jedt3QY+81jNu8Ds0ahiNw3Tqk8spVb2ujRuDy/OCfKNeaEWL5/ByUtTla27tA854/rufrQ0uiCy1NG7RkAR6ykyBr65cK9/7Zf5pwcWqNiOjrrLElgbp6V7S1icf1u0nSVKpSotkBbd7zwrhVN8UGsRc62gKaulVuv9WA53Whb2yEgvRY5It31SRaWchKz4KmsW2lLvKyAnmyO7fvorjlGHz26WQMH9YHLs21Ee91FOdCarx9VonwXgFzUyPWqo5DbFnDvzgCMdUF0HF3cKfs5ikfjtg4QN/IWDbK8mVtbYTsmFjkGBhAV08P+gZZiIvOgqG1rbRbtrAuU7aukuREJJavKxzRygbriSzYLzaFibUdLPSSkRyXjDRYs+DIEmaFqUhXYa9/YZu19Vn5PIiruJBUEoHsB7KPAuX26TPKZME+bwotIzvoaScjN4ONs7zrWVlCpyQVedliujqkiuNCpgSlQtxYUsSO6RLwwuMIxcXsMwc1segzk++Ctx6DbkMmw7ltH1hYaiPnFgv2EivqPIdERB/wwKGNU+F38RwemQyD2wf70bWJLApS+f5Sk/5PCUr/wQuph6UP/sLFHeNxUhxO7ZyEG3I/jMNxJUg/vRS38vuj04eLYV94AJf/ufL4Lyo8iEJW+aMlccjNLIGmvrmwwbKJCmN5T634m+z7sSiW6KHsXrvq6mHNysq56F4U8sS8clwiMu/lPV7OGXfwQMy7cM7MzmDboyM7Z6pWzceOUnWjDuozIYT8V1T5RiTk1Xb/zw+wb+xwXA3MFKcozsqYBfEPYllzTkZ4yZClUUOUZMVBiN2E51ttWWNFzfIDrJ/hjV3CMP0wZjiX4JLvXkRLG108SktZQwdd0dEmHIFRj8Bz6pDYdEGrR34IkGsYPyvhnQJNRn6L1mYxCN3/gdggnoabiWIChUmgpg5ouWwSG6iyoa+LIaCuUf6IgSKSfl6AZXvvouHADzBr3Q/44ZQfzpz5Fh6NlGlUq6H0sYZb5a7gFYRmZRnZ4xZqamV/LBGuu8DQcxMuBAeXD6s9Wb4kGmggTSOuq1R+6U9aVw1KkpCWYQrTNjawfCBcCErCvXuWsHK1gDGL/FV7yae6hm3VbVbdPq0Vn4TcXFNo29hAN499ZrnNy7GEroMFtLJT2XjdUt1xoZicywtw4d+70G79Adze/AFD5/jhrbnfwsGocp3nuFIUpPyD26cX4PT6kQhMtEKzfm+Jz1vX4f6qFqs9Slf6F1APi9lxdeciUiJ9xcEP2Y8qN2M4/goiQmKgx87nWcG/IbXaZ8SFi7QVpJ+ry06tSll9Ez8yhf++i71fzpdeSKzbeigr59IqFy9KhRPiY+Usv49YejZScc6sS8+zzrNMVWSSEEKIHAr+ST1RgqL8RyhIDkdevjhJCTxvAStDLeRmxZbfOQEaw9KQY0Fd2W9x28PMgAW4ocux6tAM2XBgIub88Ca2RaTL/kTa4mCDTU+0TL+IgELWyGQtnMb2nVAYfR7x5ctWnvByJHWhgVdcJAa8XWDjpIsMv2UICvKWNoaT7lxDjtI/cVwkfUwh/9ZasYFaMZz680TFS8oEhTxLrQEdbXG8Cq4kBqe+nIz3+nVFz5atMWTUMlzTH4FZU9zFFLUT7t7l5TwEDAzL37UAWMK0rC+twlg5FQFZPmsxbfz4SsP0FSeQI01TCjVhl1Vq/HKVggC+5WgsWDUZHSu9BVADGhosFiksKx0WlKTpwqSDE0yTkhCHWKSmWqF5OzNIUpKhql+lEwjlU/SIlY+2odyLuiyhXfE4O6PEPq0BbzkabsMnw1xSJe+sGvPFFXl/lKMLbTsn6GQmIZvl/WG2FUztzKCelSyWs2Jk3eArl38D22FwbtVKibvEqjouFMOVxiDmxGSc+KYr9i5tjf1blyFFawQ69ZLVeZ43g3mHcbC30peOC7jSKESHh4Nr6AjZk+aq2V/lCoulx6lCXZ/1JNBiZ5TCWrq3V1WX9VAZvMHb6NzFFveiQ6HfZSGaGlRXb9Qq1THpZxYoqzZerMt6KCtntSrfL2ocy1lJsdwF0peJMt87z78+E0LIf8XTRyKEvEQ4zg+Xx7XCsUNPe1vFkQX/QOqDKHGcUXeAFWuZp2WWTeOgzo6YvIwAhMVflQ4hyRkwtHSFXXlgyBqQpUWws3NFasw55LBGMa9miTb2OgiKvCGmeUqSzjC1BHLuR7H8CodugfQFgJyG3GuNNV1hJrxy/jEsIWvZcuqy+93yOC4POQ8yIVHPQbp4Vy3pjh9yCiTClQYhgZiSSXmIhFIdONs/fl9GaP+3GbcSi8a7SF94xfGPkHJtL87eKERDa1vpT7UpKiToJoo6vI3Zb3aApbkdOk35CH3LXrygICFfSUmZ0JHkIOziRVzx9YXfRT/E5UrYthRLn6flOB5p9zKhbmUDm7Lt02gGR1vZRym1xug69gMM6Sz34qymbdBUNwuJMffECYks2C+GSfPmLNhPRD73iI0XoFlLJxSmJSPzKS76aPVYDs/tB9C1m6k4pcK9uJsosXsbrq4doKtnB8teH8Gh4n1lyu3TGuqGcAHMpssHcHKUy7tFGxhrZiH7fkXe87KLoWPVHFxmIivXR8jNKoCJtRNKcpJRqETe87JSAJPGMBKrF8/rwa7/Wri7tRXuUcopRnEJmyK8Rf+xeqXMcfFshFWbdl6Jzp1dpCNc6SPkxexFVHwhdIxZJZJumyYsu69At769y48BnteEsZkNO5jTpC91U93+EsVlI73UANZNqrw4rRo6TUxhwrP0T3jU5eWoh4rheVM0GTEPltl7cPnHz3EzpzM6jhjz+NvsjRvDsLyO2UGPVbh8ti8qb8+zUs35WRHScs54AIlp4/JfmeB5Kxia6iI/I06pl2XWFaXqhgrrMyGE/Ne9fN8IhDwFnmuIhi59YGFV6baT4rTtYK5VgJQMuQ7ahnawUE9HasYjccJt3ErOg1OHxRjTehC6tBiLCSN2YMnAITBjbTcZoeu5CRzNM3H9TjprxJSilGsJJz1/BD7NdQltZ9i0Hgz7DhPRecJaOGsF4bZ/gDgzAAkRD2DU5Wt07TESDh0/RNdJk2FSbc+HO8hMK4Zx2xlo1s4T9m3Z4GgvtBClc5OvHkGu0ywMHP4hGrfxRItB2+AxbSvaO1b5vSTWQD5/B3DvawerKg1qoa1WYO6KEZ9+hWXTRmGAx1B4Tl2H93uqIzI0WBpsC88J23T0QB8PD/Qb7A5btrsa2HSUjgtDKwvZMpP2fInt/trwWHsEx/28sW5AAq4q+QJHgf/+I0jpOgsbV36I14Z54s0F27B9/1ZMcKvIV5DPJWS1moCVQprXx2Dq9zPgyhri5UL241iQAYZ+9QM+fm8khrz1CdZtmwT7qEM4dEGWROjSnZyagUb29riXLLvPn5yaDiNjY6SnKL/jhV4eDkPGw9rZFW2HDXjswkmO35cIjNKG05tHMHqJN/q1SkBSlZ/aVnif1lQ3kvbjTpzQffkHuHQdCUfXT9B3/CQYpR9CeITsr4W852ZmQM/UHg+zZHnPzUmHtq4xG1cu7xmBx3BfZwS6jZsH5/Yj0HLYDrg0fYTYwH8qPbct3HW+n8QqosNodOz0GmxberChL4ykP7NW+3Eh1ENdO+FvPGDf2h2GrEjUjTuKy/FAQ/3K5f0kwiYVG7ii+Wtfwb33KNi3HArnXuvQtqk6HiQESxNwXAIir14G1/oLDBoxDU7t3kDr4bvRrb0mkq7+Wd7TSCX7q0xWNEJuAq2Gtqr005dVCRdXeg9pBLWbsQiq5t0ML009LCOxgyU7H5btJ+ng6Fi+XdrtlqFTi3xE/LUe94uCcP3YHyhusRBd2lW5cFHihnbvzIFzu5FoPeI7tLbJRNLtq9JZqqobqjo/K7o9yQHHkG3zAfq9MV1ax9q8sY3lKw6R13yl81VFdeWjRN1QUX0mhBDCmibiv4S82lpPxYCV2zH445GVfl9bYSZ2MEMSC/7FcYGJ8NN/SUgWpwl3KnzPLsFf6Wbo0WMxpvQai6ZFZ7H1wAoEVHquVA862b7wlzY+SsFrGYCLv4TQp9gsNcsx6P3eNvR+42PYawXg+k+TcfOebF0cl4voYzNwPUoDtv1Xwd1jOLRDNiKimtcdcFwKbh9fg0SuH9ze+g593/kOfQb0KX+usjh6Dc78fgzFzpPQ5c3VcGlvhvtnJ8PHt/LtE44rwO4DcbjftCm2jjOBSZX7sbe/n4PVx7PRbvIKrNz6LRZ+6Iqc44uxdAtruUnpoMfcbfhmmzCsxCBbwKjvPHF8GyZ0k6XiCoPx09u9MKT/cEz07IWhb/6Ip7mRk39lDT6ecwz5XSdh/trVmOZphlubJ+PTXRVLyzm+HJ99Hwj9IZ/g02VT0O7OPpyQ66fPcTH4ecok/BhkgH4zV+CzhaNhG7cXCyeuRVhJxX5PSUmFrp4u0pNipeNJySnSf9NTlO/0L/ysY8o1PzzMv4/EqwHSCyfyuJJghOzohf3fDMfxjb1wYPuPj3WvV3yfPrluCHkP/WUSguIN4Nh/BdyHjoZBxl54/bQW90srtikvJxUNNHXxKFOW97wHsryXXQxQFJ+yBd57f0C28Ui4jVyJ9q00kfjXJPheL3uspkKGzyJcjdSH8+sb0Z8dI/3eXY+WNsI2K3Jc6MCWBRrC3/V/byWcGrLAseU8cXwb2jqJyRSQ4TUHvizSsOi1Ar3Gf4tuvV1RdGMxzvuU1XlWxy5/jH/+8kGp8wR0HrUMbZpJkPT3JJz/V1ZeAlXsrzLCuerMjpvIbtsVM2fYsDPS4ycf4aWkrWYMwsg2D3FuRzAyqtQxwctSD8uoGQ1GV3EflQ39PIezvcny06Av3F4bAgR/jYDbQn8Ktu7bq3E1RA2Ory2BTQO5Msg8glspLmgz/Et0aKOPNO9P4BdSFi2qpm6o7vys2PYUR63G2d//RKHj+6yOfYFWjjmI/H0SrkU/xXNwNVLdsaN43VBNfSaEEMK+Sx0dHeXvcdUJtk5ER8u9ovcFa+/ugCDfGHHsxXvZyocQecK1lRYD22Pn+5bQTU7Ghs3XsS/u+Ta0eL4V5pz7C/3Ov4lhy6+JU0kZoXw6LfwLDrffxB9/UfkQoU6owXakB2bPbgytuEgcXnYS3pGy45R3aoWZy7rA1a4QARtOYOuRe48F9k/jVaiH9mPD0MdgA37dtlOpR1LIi/Ui6jMhhNRHdHYkhChFaFOFnw2Cx/wA7LwN6D/lkxa1MWnZR/Y4wCBPjF25Ap4Oabh6PkScSzQt+8i62rbyRMvhK9C0YRqSw6l8iIzwOEbi0VP4bPzfOBlcCu2K9w2yg7YB+OBAbBr/K77/M+OZAqVXsh7Kv+2PvBLqqj4TQkh9R3f+GbrzT8jLp9uaa9g82gSlpYXISQ7H5Z+WY/XOa8ilhp2U1RvXMMiNlQ9fiMKscCRcXI5/L15DEZUPqUOvWj2U3vk33IBft9Kdf0IIIf89FPwzFPwTQgghhBBCCKnP6LI3IYQQQgghhBBSz1HwTwghhBBCCCGE1HMU/BNCCCGEEEIIIfUcBf+EEEIIIYQQQkg9R8E/IYQQQgghhBBSz1HwT145wq8hEEIIIYQQQghRHAX/hBBCCCGEEEJIPUfBPyGEEEIIIYQQUs9R8E8IIYQQQgghhNRzFPwTQgghhBBCCCH1HAX/hBBCCCGEEEJIPUfBPyGEEEIIIYQQUs9R8E8IIYQQQgghhNRzFPwTQuoFXqKH5sPaw82JF6ewaU5OGDrMCiaSimn1UXV5J4SQp8XzPCQSNeGDOIWo0n/lu+llIVRjNXWJtF4/b8qs62nbLbydBab2MYIV1R/yFCj4J+QF4XkH2PdbiGYOeuIU5Wn3PIQJa6IeG4b0tBRTqJYqtllRyqxLu20HLDg4HotmtYSDvjhRoG+GnrNGYt3B1zG0bQNxouqZe16uVP7vjR8hznn+npT3Pt8GIyAqSjpciwrHRb+/sX52HzRERWOh+UKv8jTyw7W/Z8NWbLh0W3Ot+jSXl6O9mEZV6+L5BnAe8yV+8A7E5dthOHPmF8wZZg91uUaUsK5rh6bApPxvTPHuoSic/9ZDOi6v3ecXpOs4vqyTOKVCpW0OD8E/3gexbIIL9OXWxeuNw/+ibmP10IppVSmSL0UM2BxW/rf+t67j2OGNeLdzQ3GuzND/3cG1PePQoDzvmhi1h6X/X0V9U2RflHlS+fCtF+KouIyqw7UoH8xsLVuW+ZRD1abZNaXi/MPzEtgOXYLvT1/GubAb+Ps026dDHSCRKxtpvqLCsNZTS5wimyafL1URVmvV3gk71vRG4J6BuLqxM74ZbAAD+e35ZCCiltvBSIn996KNmDcIUYttoVleN9QwbvFg3Jn3dN8F9kM64/reAdg3REecUhnPa2HoG00xrsWzNSN59UZwn7kZu739ceH2TXifP4Qv3mkllw91eO4Mr7aeXfNbBZfydEZoM24ltp68CK+w26zen8SGuX0r1XueM4fblPX4wYvVxVu34H3xCJZPaA/t8mX0wvJA2bL/WNRGnNYIk4+xdV1fh24sHc93xEJfuW2ICIOX1358OrpZ+XEpqC1fqvxuUsX3stEgr0rfYWXD+5/Mhp5cvuqK/dgwvD91UqUylcfzvdHtizt476vLcLMX95/Dcry56jbe/WIdrKr8nb77Pryz6joGu9uLU2QU+e5W9vv9Seuq6pnaLbqGGP1+V/h81wlTm6mLEwlRDAX/hLwwDrDpPgVOdk//hV0QuhZnd0/D2eOn8bD0HmKOs89s/FpohphC1Z59mxWn4Lrs2mLO+q5oFHkZK4bvxYGgitMaF+SH+cMP4lCkCUavH4qBds+nEZPp/6lsP+z+GGEJ4sS6UEPeBaUR+7F02jTMnz4f3x1NR8vp27BxZktxrkxpykmsY2nmyQ3zVxxFmjhfUBp5CMuqpvn0N0SK8wWqWJdWj6XY/NXr0AnYia8XrcChCBu2337CDFcNMYXieN4CLh0aIfPBA1h26AzLahqRpbd/xWfCNsxdhn1XNNFr6Q58+pqROFdxipShIsrKcMnizbj40A3Td+3EuMbK11lF9kWN5RPzB74qy8uqkywfaTi7SszXtCU4HiNLlnlqrSzN6tO4j3vwXi1L8/2pivOPRvs5+Pa7MTAN3YcNi7/EoVBTjPhuJ6a2r7xPS0u10MVjYKWLAs8DZ9cYO+Y3QdP7CVi3IwRbA0vR6z03rOmhKaYgAr6oBAWFJXhUVCpOqUoXvYc6YXgT5Y/NMjyvh+4rfsGG2UPRzCgPCVEZ0GjkgmErd2JW17LlOsLWToJSPgPRgYG4ITcEe1+RnoOECwQtZv2M7SveQadG6rgXk4hCo2bo+dEmLHtbdvFDuFjhumQfNi0cgdYmRUiKSoeaZTsMXbodc3qJ+97EETbi4W/TpIUYeDrDxpb9Ex+HaGGGVmM0smD1NS8RN9k23IrOhbZjJ7yx5ke2zbLlKJIv1X43qeZ7uTTzJP6Vfo9VDF7HjuKhOP/l8wCZ6Q1g2ayFdMykhTtKkm+jSDpWRXE+iosKUFxcLE6QUeS7W+nv9yesq5JnbLdwtyLQZ7ovNsQbYN4iV0ywer7nTVK/UPBPyCuMz7iC+JunERudgGIUIDv6pHQ8LaNQTFG/CXcV3Wd0QZOMG9i06Dqich4/pXE5aTix6BTOPLDGyI9aQOs5BBeFqedl+yH0DLLqqKWkSN6RfRe+J0/C59QxHPxqMtYez0XzMWPRVr4MHsUhUEhz+nTF4BeNAk5ueVmRsuXIpzl/GznyaVSwLlfPwTCL+AmL5m7BsaP7sW3GfBxJdcCg1x+/c18rrW5o1yIP/572RX4zF3TSFqfLy7yLS8L2HP8DPy2Ygr3BJujS102cqQRFylARYhmeObwLayYuwMmc9hj9jqs4UwmK7IsayofLvYsrYj68/OPYmeUREvzL8ueL6FxZvgpjr8jSXE1gaQqQdFWWJjC24vzT/o1hcIjbhy9mb2b79CB+mD0PB+OcMOiNyvl6EBmJ4p4e6FVx8/+5aNXDBq1y4vHZugj8djEZP/4UgPVB6hjQ07zirixBolcgOo73wgdeBeKU58DiTUx80wFc9B5M69Ebbw3qick77kANlujYo6mYqAnsGrF/0v7GqpEjMXHUqIrhsz+RJRxjOp6YNrUtNB94Y+Wg7hgztB9GLvZitVYHnXp3h5qwX83exLTxTtBIOoy5vXrgrcG9MGVHOFuXOVzcm4urcoA1SvHoUQE0nJrCSZhm6ggbQ6AgLgbJwrizI6zZKvmArZjItuedAT0xfXc0W441eg/pIKRQMF91892klKI4pITK2hDlQ3Q0eGXPY3VGH1nx/0K/cU927NrAzskAibHxkIhz5eVdnYTfl3Zk5yrpXiynyHe3st/vT1pXGVW1W7i8bGxfH4A9WSaYPc7mhfTQIK+ml/WIJqTe4ltvxrtfR2HSul1opsPaCUMrupTJd7ETukAbtF8Ojzn/4u0VNzB6zh64tXOSNWSUIOs+NxN2A/Zi5LIwvLP4NPr1d6/U0OXVHOHguQ8jloTg3dUReGfJPxgwuH9Fd0hFtxkWsBmwFcMWBmLclyEYs+AQunXtUOluXm3bo+i6pDQbo3MXDdz+IwBRRU8+nXFFqTh+OAlaXZ3h8hQ3+Mq2uVHfnzH8C7bNrHz6DeyhdLDgOP4O3p80DlxZXnlNNJtUuRthbfuinIJ5L8NxhQgOiwKsbGD7nHsJPu26JBoaQE4OcsVxlATiu6FueGddoDhBCZ07oXWD27i1Lxh3GrRDu87i9CfKRnZOKdv2l+RrMd8fIeGsCO0chYoiTlTeE/eF0uWjPKHreSNrCyA2GhHiNOAW4mJZLGZtV+lcJrl5GZeKeqBv/+cb/duasuWn5iK8RDbOcSU4czAIn/6Thcr3sNXR7a3OOLdrIEL+1wM7R5ugodz28t3a4c5+V3zYwRm/buqPmz/3xT8LndHVQC4N++jcowX2buiD4D398e96Vyzrpl2pK7PsEQNHDHmz05PXpcByFKHIuiw9OyPqwJDy4fLEyj1h+C7tcHv/YMQc6ow39NTgMq5/Rfq1TnBQZpvcOqA1q5P3/j2N63kc2xc8In6ei5kTJ+Krg6ySCOwcYCNcmEoQ77xXQ713L3RkuzXH53cci5fdbX1w8Sds/uYb7DgahlJ2TGv16i5dV5r3IfhmC+sqRdq9TGna4iLZxSqtxnYwZeeBsBtsTTbOaCqs19kBwrWHpLhIobJA3cmOhflsm+OiUcTGOa4AgUER0ocL1CXil4si+RI9y3fTi2pL1PQ9qMi6hOBXr+UC9Pv4EksTircWHEWvPl2rqc86sPT49YntFvYlCPVEX6RZdYWNcT9YN/wXiclalQKbqo9Gjmb1+3lReF0qbLdwRdnYdiYDuu2sMKC6qx6EVOMlaeUQ8h8S+xPO/zoL3vu2ITkfyLz2OfssjM+Cz8kT5V3s1BsvxoAxr6NB7G74H16JW7GGcHrrR7g2forGseFwNLcMRPDRLxB8h4dV/83o3NZQnAnod1uDHm6WyLi0DOf3zobf5WgY9NiE7m5msgQKbrO++yb069EYWVfW4uL+xbgemAHL17ajU0tdMYWopu1RcF1Sjsaw1MhFTFjtl+MfhKbivoYRbFgs9VTYNrewCkLon0txPSQXFn03sm02EGeqTq37oowSeS9ja2MJZD1Ahhj4yDSAloEBdPX0xEEXEtZYfVZPs66gy1fx0OU9fPphDzRiDW8hDi/MvoeM3CodOdUl0BGXo2+giwbVXGBw7tQBRomhuBESiFtJxmjrVrnbu5R6A9lyTGzQdvQyjHWJwdHffMSZylB9GQpBezHLNieRsDD02VS3LxQqn2fGAh8J23rWYBcCMOkUFnQJ7XdOolGpAaKpcR0+54vRxaNfpXc8qJo6p8b+vxTy1fJ+ZCoOBuQiT9xGqYaNMNYuA9t/DsG2YB5dR7ngi65VW9e6GDFAG5eOhGLp4TQUtmiC794xLw9itFq1xK6PbGAQEY0VO8Kw+44Ew2e64dNWVfao/LpCHl+XwstRRC3ryvAPx7S1V9kQjL9Sq+nyfzsa8zYGYtZ3EfB7VIro8yHsc4Bs2JeCVDGZQjKzpRf6zIYuwmfv90MzswYoTQ3F5XPnEBT7SJaGBd827J/suBhkyu8fOY2aOLEwEYiLvC1UMOk0Lu0yDmzdil1/h0vHG7M0wtPTcZG3pOMCB7tGrCbwSIqVXVZwdLBjdTIDYX6RKFB3ghM7JLSlFwR4JEbflaaxYWmE5SQKFwNE1lYW0rp8LzleNkGRfMl56u8mlbclGkBDy4CdFvXEQRdqalWOxVq+BxVZl7r9XAwY9z4M7h3GlcNLcD04E+YDdqCvu4OYQlRLu0XAFV1EQnIH2Hn0hHHUeaRylaPk8kcjdy9F5H1x4nOi8LpU3G5JCc9EkkQPTYTHUwhRQPVnUkLIc8PlBCI2+Biig64im32vFqSelY5Lh4iI8i521q7DoJ+4E94HtyIy6BCCD05DWKIdnF27S+crRT0AwXu/wV22nBsHPkV4hhGsmrqIMwEjK2eoJx2Ev/dBxIadwJ2zc9gX2CLcEnutKbrND69Ox/6vXseF80eREO6NyAurcTfZDDZN20nnl6thexRdl5ROA2iiAA+zxPGaZLJ0kEBLaCU+Dc4fN37dwLb5MEKPzEJoIvtCbv4UXcRrUdu+KKdI3tXE4FbfFA79F2DWyEa453US18TZAjXHCfgpOBgXxOF88BV8PkCcWUYu2C4bNKvGQSpY14M/lmHVkYfo8ukeHL1+Bb//vBJjO5tLg0d5au3m4M/y5fhgWpXqxfP6cHVxRmFoEG7hBsLCCuDQoXOll/kJ1DotwilhGdcu4udVXRG9aho2+ivfzVmhMqxLtewLRcunLnEaarh06jzUenrAvWrdehEkD7Bjwx38fiEZ328JxoE0Cbq2f/x9EJf+uIGtPin441goPvd+CLNWpii7jNK9tzUaRUVi2tYoHLqYjK1bA/FDjA5e7135RY6V1vV9CA5WWZfCy1FELesqTM3E6WvpOHnlHmIej1PBscD2+OVUHL30AIkl7JiNT8UxNi4dbuTh0RMC9Gr57sW+6zlQM2yNNz7fiX3/XsMfO2fCRa73hEljewihpeHIHeUv2ROGf7d6lp8XGjsIQfxDxEXFScerEnqgODrYsDQZiLv7QJwmgYO9BfuUgoSofOmiHOyEywz3kHo+AnGwhmNzfTja20ENqdI0Akc7W7acPCTFVFzmcHQQphUiMUa8q69Avip5yu8mVbcl1MwmYNjKYLwrDuNXXEF32eP0FWr5HlRkXeYur8MwYy98fhXaAEdx6+/JuBJSAst2Ayvf2a/UTlj0WLtFoKaehfiIeNi374574V7sbypfECt/NDLUF1nP8QkWgcLrUnW7JacQOVCHbnWPthFSDSXO0oSQusLzutA3NkLRvajyu1Ecl4jMe3nQNLZV/s5Yxh08KLvVxYcjOwPQ1DEWJ7Dvl+S74K3HoNuQyXBu2wcWltrIucUC+ETlLpWXaHZAm/e8MG7VTbEB4YWOtmxdulUaqbVsj8LUpP9TgtJ/UOFBFLLEbea4OORmlkBT//HA9FkpvC8UyIpax/k4LgSkN67g0I7JsI36H5auPCvtrlqmNOkvrBw/HtPEYfr4SdjlL84UVQ62ZcOeWZVbhapYF4dEnJzrgWHDpmLdj+dwz3YYZu/ej4W9KvccKY3Yh4Xly5mBgxV9ymXUu6J9W3XcDQlECVeCG8Hh4Np0RMcqN0pLw3ZjtrCMiR/hq90xaP35NsztqvzVIUXKsC7Vui8ULJ+6pKamhgLvU/DjeqFv75cg+k/Jwc2y93XxuYhJYwGoXtXteohouReAxabl4pGmBCbsM89zsDWTIC8lD4nl5/ACRCYXw8hMB7ry541K68pBtNy6lFqOImpYV13jcAs/vuOJ2V/vgU9gLHJ4PTj0m431X71e/oyzo70QWBchPaLyy/4uXpHd5ef5hrCzE+4GxyP+jvRPqmHH0kjv+yOuPI0TmyY86BGHWOk0IY0mC6QSkXAjHNF5anBs1hL2tlZsXjzi7gr7wgR29sK6EpAg3vgXvqvtbIXvtyQkRMm+IBTJ1+Oe4bupBsq0JUof/IWLO8bjpDic2jkJwhMQldTwPajIuoQLMXrGFsC9u8gQV81xRYj9rT1+3v5D5fekVGonRFTbTlDj1JEdvBfhoXsQcVO4sPMcClHVlN7VivzBK5Bv8tKQO8oIIS8PCdRYQ7y0SkOhlC9lDXeNp+gGzLMGVBm2TDYiNLbL5FxegAv/3oV26w/g9uYPGDrHD2/N/RYORk9qqDyO5w3QZOS3aG0Wg9D9H4gNiGm4mSgmqKTm7Xl+2IoqVqyk0kp/Kv2syHeyklSxL8qU3tqDeSwYnfntJTwqvYPf5q7G1ewqp/2CJNy8eBFXfH3FwQ/RmZXTlEYfxGK54FYYVuyv3CpU1bqEbuGZN//B/nULMH3ASPwvzAojpr9V/tN+UrkJCBSX43fxCpLKXxIgauuK1nr3cTskCerq6kgOCcMDvQ7oUKWHAHJiESAs59xJHFr1Ab45Y4w3P5302M9E1UqBfNWlWveFouVT1wq84XOBQ49BvZV+Hln1Kj8aIGzO46co2SMMZe6fCkCrySHwlgYw6tCQnsMrn3Ck6dn0yuF2TetSZjmKUCRfdYfLj8WFHV9g3qg+8Bi+CbeKAP1e/SE8LS08P24vvTufgL9mV37Z34Kfy674NWFBO/unkAXx4q9QPK4JbIUu0bmxiE2RTQHnjEbCjf777O+kd2DZuPSt/rGI428imp3eLJy6wM5ciwW8LI20w4CzbDlFLPgvf3RfnFYqu0BQpqZ8VY/t38q7WEWUaEsUJ+HenYtIifQVBz9kP6p6Hqvpe1CRdXEsYBcmKvJ+ldrbCWrsP+7eAfj9ugqx4otI6x+W8YqCeIJaExBSrr4eKYS84opQylpoalW+HNWE51VLiis13lSBK41BzInJOPFNV+xd2hr7ty5DitYIdOrlLqZQRBfYOOkiw28ZgoK8pY2HpDvXhB5pz09hMSspDcW6S+pJoMVKrvCpu/4JzYwK0s+sUaPMV24pL92p4piAfWYL4oXpIoX3hSJ5z4uTBsmXtnyPEynNMXJy76d7nvphAkIqBbe+CI2TdYMt94zr4nkzuIwchwGtK37wmOOj8I9PODTsHVHzLyZXZtnFBTZoiDd238GVO2z4eSxM2JQ2nYVXdVWP4/IREhYDzt4BT/taCFUSAh8NFtnxRUXlx3tJiaz+VNQg9pnVn9LiKmeEWvbF05TP0+HZ9rP1svNYWTAv3PkTTmslRcVCc74S4Q6gz+kLkPQZhJbFz+fEUSINotUqBT0NnS3wVic95e+i16gEwm6RnrPlSE/pbHq1P0dWLcWWI80Xm1ZRN2RpSkpezqCAb/YaPpw9G+/0Fu6sy+SH/gvpzdtSVm+kU5rA3pZlgo9DvPzvisrTcYC18DqU1ASI7/oDz7WAx8yZ+OBdd9lFQzN7WAm/gpcYj/KY3bExhBv9pdF3ZT9ZauaIRgbstBobLdznx5272VBzckN7oRtHfIzsZYPajdHInP2bEofYst4TBi3gIPyaYPwdhD9SNF9VPPN3U01U3Zao6XtQkXWxgF4oBBbE83LHG6/WAJy6eqVp9Zaq2y06Euiwcs1/zo81kPqj8hFKCFEZrR7L4bn9ALp2MxWnVMW+CoX2mrrQHbEyjstDTsYDSEwbV7xxn7eCoaku8jPiUFLly/VZCIs37bwSnTu7SEe40kfIi9mLqPhC6BjbyhKUe/I2AwWsocnmaci9cEfTFWZCY+mp1LQuUVw20ksNYN2k9vtfOk1MWUOQpRffyVRVrfvLuDEMxYiB5+2gZ6SO/Jw0YWfJJkoVs4Y6Ky9Oo0q5yeRmpbJIwwkNy/6Ea832KYvVMmXPqiq1L5TIO8dfwd69N9DQ8wN4VnlvoKo9/bo00fH9Ffh0Wu/yrrHCryE0cbYB0tNkP7OlAOFZXreOrVB6azdmvfkmJkmHidgXVormLl2f+IZ0Idhu6tyIBRGpSBKnvVBandGmGZAUG1Vex5JTWH2zc4Rzef1hgYc92+SU6n98urp98bTl8zSEXhzxSazO2zuwMK5Mc9iybb6XFFf+EkB5Bf+chp9mH3R0VvxFlsqIv5cPWOihafmxzGHAqPb4sr+hEgF57YQ3vMelFULXUre8J4lQnxtbauBB2sPKLxesgaLLSbzP8mWui2bldUMfThasbtyv5sF9lWABHztFa6jXnI8nnlebeGAiC9CnfzgEFmpCd3AO1iPGowf7vii8+i+uCmnUWbAt3J1PZcF2lWuN5TQ1pS/gg4EVGunL9qf92wuxiAXg4zsZI0eYpy08Y83oN4Qp+yD85n/7sYPRmE0Kv+SFDKEMne2kLxZMipW91T/8Dgv3LduiFdueR3ExSBPSNLFHIyHajY+VXgwQfs+/44x34MpO90k+pyB9laAi+arimb+b6rItUcP3oCLrEs4JuQ/YOcG0CUzEVQvn3sZjr+Hdye/jxT22XvN3t4wiaRSgwnaLwMBBD5b8Q8Qr9bZN8l+m5FFPCFGE8GXmMGQ8rJ1d0XbYgPKfdqvsDjLTimHcdgaatfOEfVs2OLJWsZg2OeAYsm0+QL83psOp3Rto88Y2tLaJQ+Q1X+l8AWfiBtuWHuzvGkGDNW8MHAdLx81NagiYqxC++4sNXNH8ta/g3nsU7FsOhXOvdWjLWscPEoJlCcrVtM0BSIh4AKMuX6Nrj5Fw6Pghuk6aDJMnNdpqVXP5SGVFI+Qm0Gpoq8rdwqsQGmm9hzSC2s1YBGWLE+UotL9K3NDunTlwbjcSrUd8x/ZFJpJuV27KCT8bdj/pDuAwGh07vSbdF7Yt+8JIV7a8ewF/4YHhaLiP/QRO7ceg/Ttfo5l+OCIDWTkzSu0LBfNeJm7PT7hY7I6xE1uLU0TadnAZPBh9PDwqhi6OSv+MobynWRfHJeDvQ5ehMegLbFk1DZ6vv4HxK3Zj0WuauHLoT6RUqoc16Yh27TQRd+kILl67hiDpcA4nLkWjQftOaCOmkjJyRndhe4aMwLgvduFTTwMEHz2MmErrUoNZ++Hw8PSUGwahpalc+aiqDA2c4c6WM2DkRCzYtRaD9YPwx68B4kwg5M+/EWs9Gks2zIDn8NGY/N1X8LSKhtdfN8QUj3t8XyhRPrVoYO8mzWu/To3Y2UcT1p1kZeBiX3H+CT58DHH247Bs/Udsn47CxPXrMNouCqcPy78KUk7+P/C5pAnHJtW/zI63/Agjz0Rh9MSqbyJTzM1LiQjTs8WquU0wtoclJr7fEbPbl+Cf82koVLiOKcb3fCLiGjth27TGGOVuhWnTXPBB44f485xy71JRZDnXLyUj2tQOqz9ywugeNpg5sw1GNczFSd9qTnhPIFRX22Zm8HA1w2A3UziwSEzT1Fg6LgztKj16lIu7yaVo3s0Z49wt4NmNDS21Kp07azyvXvaGH4vMNbt8igOXTuPXM5dx6NshMHsUip++O4p8YV/YO6CRUJUM+mL+4cPYdehQ+bD4dbF+PLiEqzeLoGY4CMvPeeO305fw64qe0M8LwM7v/5a95yLOF4GxpVCzHouN50/jN59L2PFBMyDxD2zbLetSoNPYHg3BIyFa9lKAxPC7yIE+9PXECwKMBksjPITAN38XWw4fxa8XLmLbh63Y8v/Ams1XZOdnRfIlRyXfTSpoS0hJ7GDZWtaGKB8cHSuvs5bvQUXWlX79GDJN3kGft+ey5QxHiyE70am1GpKDzlR+5v8ZCRdedO1k+bBv7Q5DTUDduGN53hrqV+Srtu9uQU1plFmXqtotAuFC4Fu9zcDdSYeX9EoXIbVT3VFGCCkn/ExXyjU/PMy/j8SrAZXfUC/iuBTcPr4GiVw/uL31Hfq+8x36DOhT3h21OGo1zv7+Jwod30fnUV+glWMOIn+fhGvRFdG0ZusF6P/eNvR/zQM6aqyx9hr7zMZdWwt9FRWX4TUHvuzbxaLXCvQa/y269XZF0Y3FOO/DvqHk1LTNHJeL6GMzcD1KA7b9V8HdYzi0QzYiQvZTykqrrXwEwp2GMztuIrttV8ycYQO9ajpV8iwoaTVjEEa2eYhzO4Jld3mqUGR/IfMIbqW4oM3wL9GhjT7SvD+BX8jj38gZPotwNVIfzq9vlO6Lfu+uR0vhlhLDJ26E1697kWf1NjqP/AzNzOIQtm8KghPL+pAqsy9qz3sl2X9h35FENH7rQ/TUrEirZjkY87dtwzdyw7rPh+OpO2wInnJd8T9/jI9X+aC02wTMXb0M7/eSwG/NJHy2u/JvY9fIuTPammUi6F/ZBZUyty5fQaZZB7g4iRMYteZv4ythGzavxmQPI4Rum4qF/5N7cFdKgg6TvsNX31UMq75bjVFy1zVqyhfP/l5T7lcSKg9abK5c+TQdg5Xsb1d99TF66wWwAGUy9kRV1MXi6xswb94fyGr7LuZ+tRSj22Tg2Pwp2BZYwz3rqvtCifKpjdGgBbL8fsoatzBF309leZ8xqOL8U3T9W8yefRAP2r3H9unnGNPuAY7N+RDbr1fUeXnCseh96tKTA3EWBBsiD/duV/xkmzJKYqMwbf1dRJrbYsGHbTHDlcPF3Vew6JLq+8zmh93GpE2JyGnmiM+ntsaEZkX4c9MVfH2zREyhGEWWU3wnAlO2xuOBswOWftgS4xsX4tC2QGy4U8t5oRIO/ca4YtuCTmxoi2EWajB2bSGOd8L0tmIyRthPu3ffxEU1Cyye4YLvZnXEd6PMpT+5V6am8yqXcQTLJq/BPzeSwJs4wr5hEeIv7MGqt9/FzhDxkQ9ne+ndeDVdG7RwcUE7cWjr0hoGfIY0CcdF4sepM7D7XDgeaFjD3qIEiWw5K8dOwt5wWd45LhjfT1+MvwLiUWzsCFu9HNz+exPmvv0ZfLNk29TYwRZqSEF8pPj9GhohfURAeENCYkyUdJKto+xn/tRNGqNth1aw181AyB9rMP2N+fDNkC1HoXyJVPXdpIq2hEDNaDC6Cu0JuaGf5/BK+7S270FF1lUc8w3O/voLcsxGodOoVXBpZ4i0Mx/C5/ITX9rwlHRgO6gsLyvh1BDQbjmvPG9tq5zravruLvPkNIqvS1XtFuG7xX1cB3zStAD7D8Qi+UnnTEKqUHN0dJQ9qlOH2DoRLbxN5SXR3t0BQb6qPuk8vZetfF42VD5EnvAMse1IDxZgNIZWXCQOLzsJ70jZlyDv1Aozl3WBq10hAjacwNYj96oP7GthPzYMfQw24NdtO1V+d/BZ1JR38nLgLadg7+WFaCWOyytFMDZ188QvKbTPFKU39ijemVgI31GjECoGboS8alT13VSXXtbvwVfRs7ZbeLtG2DajGQZaF+PMT9cw80yOSh8HJfUb1RRCyCtNeIYw8egpfDb+b5wMLoV2xfviAP0G4IMDsWn8r/j+z4xna1zJv+XoJVFj3snL4f4xrJb7lQT5Yfr4pTitXA/w/zwT4YUBqWFIlf1cOyGvJlV+N9Wll/B78FX0zO0WXQ2UhEfio/kXMN0rjwJ/ohS688/Qnf9XC5UPqWvSOx6GG/DrVrrjQciLwvMW6LDlX3S6Nxs/fnGk2hcGEkKeD/oeJKR+oOCfoeD/1ULlQwghhBBCCCHKoUt3hBBCCCGEEEJIPUfBPyGEEEIIIYQQUs9R8E8IIYQQQgghhNRzFPwTQgghhBBCCCH1HAX/hBBCCCGEEEJIPUfBP3nl0Jv+CSGEEEIIIUQ5FPwTQgghhBBCCCH1HAX/hBBCCCGEEEJIPUfBPyGEEEIIIYQQUs9R8E8IIYQQQgghhNRzFPwTQgghhBBCCCH1HAX/hBBCCCGEEEJIPUfBPyGEEEIIIYQQUs9R8E/IU+B5QNJAIvtAyAsiVD81dQn7t37WQ16iiS59HDDMriJ/vJ0FpvYxgpWEjr2avGx1g7aH6jMhhJAXT83R0bFU/Fxn2DoRHR0tjr147d0dEOQbI469eC9b+ZDH2by3D79/0Q5hywdj6u54ceqLx/NGGHcoENNTZ6L7zBPi1Mp4vjdW3NgFu+3d8P62FLy24zbm5UxH3/ne4HuvwfldI3BtTnPMP8qjw3JfbDNbA7etLXDs2BTYisuQV4pY7Pbshc2hdX8tkecd4DhgDLQityA8Jlec+mRC3rsv3wUjn244fi4FTu/eRpf86fjtEMt70zUYN3EEkn9vDp8gHmaevhisvwY/e7fAqE+mwFBNXIic0tJYBG/shcBkji2bg26LWejqMQIWpsbgc8KR4PslrlwKQBHHwdzzMoa6W4p/ybYldC527zkijj0d3a77MOL1dkj/czBO//t86iHPN4Cx2+fo1mcITI00UXg/AJFnlyIgKBqlLF/KUGZ/GTRzxKaPm6GHXh52fH0ea27J1sW3aAqfRU6wyU3Dd5uCsD28RDr9RaotX0aDvDCij6M4VqE0aTMOfbseuUqWoyLqom4IFN2nz3t7eKuFCh2nZeqqfMq8SvWZEEJI/aX6Fgch/wElhfkoLChAfmGxOOXVJMQcyan3oW9mDgnPQ9fGClxeASwb2bJGPWBl0RDpqUlAzB/4ato0zBOGVSeRxv47u0o2Pn/aEhx/YdfOHGDTfQqc7PTEccUJec/Nvg9NA3OoscxKjKwAtk/1TGR51zNoiLxslvf7f+DyL9Nwdjcbjp1EXmkaoo/Jxr1+WYK798UFWk7HgHc/hFHmMVw9/DmCbxeh0bAf0b2DmXR2pv+nsmXs/hhhCdJJz644H8VFBSgufn71UKPJUgx843VIonfi8sEVuJ1igxZv/QQXBw0xhTIU3F9W9vhhUTM0jb+FUdMrAiUBdysCfab7YkO8AeYtcsUEq5fhjmnt+SrNPIl/pfu/YvA6dhQPxfkqVwd1Q0bBffq8t0fR47RMnZUP88rVZ0IIIfVVxTcQIURhKb9NQr8WHTHrt2RxyqsrJSUNag3NYcE+27PgPy4yEubWdmzMAhYWDZCWHA8u9y6unD4NHzZ4+cehAI+Q4H9SOu5z2hfRua/mqeRhdhqgaw5d9tnQxArZ6ZHQNpTlXdegAR5lsrwX3kXKzdOIZ0NsVByKWd6zo05Kx+Nv+iK7UJZ3U5fXYZJ3FL571uBu0GGE/TkZARHasHMZCI7nUZh6XraM0DPIUlHEl3d1En5f2hFeV59fPbRoPxi6KT/B58AWRAbtx/Vf5yM8ywGN23eSJVAxoQfFG+ObwiUzBtPXR+N63uN1i8vLxvb1AdiTZYLZ42ygJ1ytedkVxSEltKzeiEN0NPjncNdfUBd1QxnPe3sUPU7L1FX51Nv6TAgh5JX0fFodhNQxoYFlMflvvP93EEZOchMmiHMUx3OOGLxiHw5fDYFfZAQuXvkHmxf2h7ncssynHEJAVFT5cHJ5Z3FOBZ43gevHO3DALwS+N85j+wJPTD0QhfPfeogpgAGbw3DtwEz0n7MXR4PCcMH/NL6d7Q4TuXUJ3a3thi3B96cv49ytMJw5swezX7OHeqU0Jug0aycO+ofgUqAXvp/REVpKZj0lORXFpmYwZ5+trU2QGHYHEmsbaKERzM0LcZ/NVyVhmy367cDrn4Vg/LLz8BjkiXZTo/D2mxXlI+Rdv+0SDJh9GW+vDMOYOXvQsY299A69dH7rzXj36yhMWrcLzXRYgDr0MiasiZIO738yW+HGc15mKng9M7BFQNfQBDkJd6BubAMNlnddg0I8ZPMVpWtoCWREIlPstctxOYg/Mw+X/G6gmp7IT8TDAjYDtmLYwkCM+zIEYxYcQreuHaQ9M8po9zxUnl9hGO1ZuR7yBlPw2tcH0WXQfoxZ7ocB7m6wHX4Gby/3xYCebSrKUc0RDp77MGJJCN5dHYF3lvyDAYP7Q1tuXeqcBlCQg0JxHHwgrm10w7FTgeIENkmV+0tigSFt1XH1n0gEFT35K4orysa2MxnQbWeFARJxohJepnrI8/ZoNfUm3v1kLoxYDZBOQ1O0m3kb46dPg744zX5sGN6fOhON+v6M4V+ESfdXv4E9oCm3ntrqhoBvuwXvfb0HLZvPxaAFQRi/3B/D358LC92K5dRWDxXNu0Lbw8rZoP1yeMz5F2+vuIHRrJzd2jmVl7OgLO92A/Zi5DKW98Wn0a+/e6W8K0Jlx04tdaOciuozz0tgOeUUJp4MwagpXR9fDyGEEKIACv5JPaEOrYaW0JToQ7+hsVLBVhnrCWvw+ZuWiNi1DEs/mo11e6JhP2kTlr4t67YtyDy1Vtb1fdpSnHrCY6L6Q7/AmlldUHRhC77+YiuuO4wDi9kfZzUcI5sFYvfyL/DzZR6uMzdj3muG4kxAy20hNn07GkbBe7Dh02X4NcgIw7/dhZmuFS1DYV1ff9wRuac34usVOxDW+l0MtRFnKqgkKRUPjE1hxpnA0joPKYFs3LIRrDlrmDa8h9RE1TYyJW2+QJ8BXVAavgW+R7cipeE4NGkozhRpOC7EgLGjoRW/B/5/LENYnBGajd0FFwcx77E/4fyvs+C9bxuS89l+ufY5+yyMz4LPyRMKd6XmWXCfr2sKHZZ3PeM85MaxccNG0GN519G7h9wsxfPOSe/g8pB/iUpBwglE3rqJEiXu7uq7b0K/Ho2RdWUtLu5fjOuBGbB8bTs6tRT6J8gUhK4Vu44vRWTV7szlmsK0wQkEBKTAsv+3aFr0AwJv5cOm/1TYqctS6Hdbgx5ulsi4tAzn986G3+VoGPTYhO5uFXU+LfIqiuzfQ7cePaDHil/ICp9/DwWFRWIKFe8vW304SvIRGlEgTniylPBMJEn00KS6l1HUou7rYQNoaBlAvYGeOOhCTU1WvzguFmFHtiPTbCK6dJOdLPS7LEUby2gEH/kfcuS/qg2Ho4VVEEL/XIrrIbmw6LsRndsaiDMVrRsCezi7NUKi1xfw9ToH3vEj9Bo8oDyorLUeKph3RbZHvfFiDBjzOhrE7ob/4ZW4FWsIp7d+hGtjLTGFiOW9uWUggo9+geA7PKz6b2Z5rzhnKkJVx06tdaOMyuqzBrTNLdBAogs904ZP9R1HCCGEUPBP6gWOK0L0mp745X13/LrupNIvIhM0ae4Myc2D+GbLQZw5dQJHN87B7CmL8EeYmIApjL0i6/p+0hfxeeLEKtr37QHD8N34bN5W/HV0P7bN2IB/q4shJQHYPf0bHDlyCD/M/hTHEozQqaeLOBPoPGYEGoXuwLy5W3Ds6EH8OHcq9tx0xLCxvcQUgIuwrrCfsGTJDhyXrms7riv7KHZSCu43MGWBvj2sLVOQ4p+MdEsr2FpYwbxBKlJU/C4syxY9oJWyGz4HtyJK2o18AxKqlI9VpxEwSNwB7wNCV/ODCD4wFaFJjmjqJss7lxOI2OBjiA66imz2twWpZ6Xj0iEiQvGu1JkpeKTBgn9de+gZpCAvKhkPDa2gr28FHY1UPMwQ09Whh1enY/9Xr+PC+aNICPdG5IXVuJtsBpum7cQULPjOuCLr3hzqi6wnxhQPkBTwMyK8TyBDOwXJ53/DzYtnkdPACrpi/GZk5Qz1pIPw9z6I2LATuHN2DguKFuGWXE/o/MBluBTwENav7cGoL67Ac+JKtHAwh/xb0lW6v7Q1oINCZNf+/kYgp5AFxurQ1RbHlVDX9VDNbAKGrQzGu+IwfsUVdG8hzmT45C3w9U2ARf/P4GAyBJ0GdEXe5aUITqzyTDrnjxtsW4VHS0KPzEJoohFsmruJMxWtGzKJ3rMREvAnoi4sxOWr8dBx6g4TcV5t9VDRvCuyPdauw6CfuBPebF9EBh1C8MFpCEu0g7NrdzGFSD0AwXu/YXk/hBsHPkV4hhGsmlacMxWhqmOntrpRTkX1meMeIXJVL+yd0BO/rj6m+DmOEEIIkUPfHqTe4Epz8SgxBUWlT1et79y+i+KWY/DZp5MxfFgfuDTXRrzXUZwLqfH2WSXC4wfmpkasVR2H2LLGWXEEYqoLoOPu4E7ZzVM+HLFxgL6RsWyU14W1tRGyY2KRY2AAXT096BtkIS46C4bWttJu2cK6TNm6SpITkVi+rnBEKxusJ7Jgv9gUJtZ2sNBLRnJcMtJgzYIjS5gVpiJdhb3+hW3W1mfl8yAOOWXbXBKB7AeyjwIh7/rGRihIj0W+eKdUopWFrPQsaBrbVnrs4ZllsmCfN4WWkR30tJORm8HGWd71rCyhU5KKvGwxXR0q0eyANu95Ydyqm2Kg6IWOtoCmbpXb0rUqQakQN5YUgWefeeFxhOJi9pmDmlj0mcl3wVuPQbchk+Hctg8sLLWRc4sFe4kVdZ5DIqIPeODQxqnwu3gOj0yGwe2D/ejaRBYFqX5/KfsDNMrfA30R9bD0wV+4uGM8TorDqZ2TcEPuR104rgTpp5fiVn5/dPpwMewLD+DyP1cev5D5IApZ5Y+WxCE3swSa+ubCBssmKozlPbXib7Lvx6JYooeye+2qq4c1KyvnontRyBPzynGJyLyX93g5Z9zBg7KX4bNzZnYG2x4d2TlTtWo+dpSrG6qrzxyfjdz4BBSy+ksIIYQ8DfoGIUSU9PMCLNt7Fw0HfoBZ637AD6f8cObMt/BopEyjWg2lj7XdKncFryA0K8uwYJ4lUlMr+2MJ1CWAoecmXAgOLh9WexqyWRpoIE0jrqtUfulPWlcNSpKQlmEK0zY2sHyQhGQk4d49S1i5WsCYRf5JYjLVYBtca/lIoKYOaLlsEoMO2dDXheVdXQNir1vV4JOQm2sKbRsb6Oaxzyy3eTmW0HWwgFZ2KhuvWzxvgCYjv0VrsxiE7v9ADBSn4WaimEDFci4vwIV/70K79Qdwe/MHDJ3jh7fmfgsHo8p1nuNKUZDyD26fXoDT60ciMNEKzfq9JT5vXYf7q1pK13jmBdTDYnZc3bmIlEhfcfBD9qPKX8EcfwURITHQM7ZCVvBvSK32GfHSStsp/VxddmpVWul6QeG/72Lvl/OlFxLrth7Kyrm0ysWLUuGE+Fg5y+8jlp6NVJwz69LzrPPye5cQQghRLQr+CRFxJTE49eVkvNevK3q2bI0ho5bhmv4IzJriLqaonXD3Li/nIWBgCKPyxqwlTMv60iqsSLjphCyftZg2fnylYfqKE8iRpimFmtBOrNT45SoFAXzL0ViwajI6VnoLoAY0NFgsUlj2CjcWlKTpwqSDE0yTkhCHWKSmWqF5OzNIUpKhql+lEwjlU/SIlY+2odyLuiyhXfE4O1OE0hIg/9ZaMeiQu1v654mKF8/VgrccDbfhk2EuqZJ3dtbjiyvy/ihHF9p2TtDJTEI2y/vDbCuY2plBPStZLGfFyLrBVy7/BrbD4NyqlRJ3ibvAxkkXGX7LEBTkLQ0Sk+5cE3oDPxdcaQxiTkzGiW+6Yu/S1ti/dRlStEagUy9Zned5M5h3GAd7K33puIArjUJ0eDi4ho6QPWmumv1VrpBnS9SAjiJd+XUk0GFBYH7tj1NXUpf1UBm8wdvo3MUW96JDod9lIZoaVFdv1CrVMelnFiirNmSsy3ooK2e1Kj0c1DiWs5JiuQukLxMl6kYd1GdCCCFEURT8k3qDV2NBnJUl1MWXaClDaP+3GbcSi8a7SF94xfGPkHJtL87eKERDa1vpT7UpKiToJoo6vI3Zb3aApbkdOk35CH2F39FTAsflISkpk7UFcxB28SKu+PrC76If4nIlbFuKpc97chyPtHuZULeygU3Z9mk0g6P8y6LUGqPr2A8wpLPci7OatkFT3SwkxtwTJySyYL8YJs2bs2A/EfncIzZegGYtnVCYlozMqt2OFaDVYzk8tx9A126m4pQK9+JuosTubbi6doCunh0se30Eh4r3lUnznvMgExL1HKSLd0qT7vghp0ACaV/cStvDWuAs6uHUZX0hKmsMmy4fwMlRLu8WbWCsmYXs+xV5z8suho5Vc3CZiaxcHyE3qwAm1k4oyUlGoRJ5z8tKAUwaw0i87cfzerDrvxbubm2Fe5RyilFcwqYIb9F/rF4VoIRlidPQFMcZTVeYCT/FoGLCqk07r0Tnzi7SEa70EfJi9iIqvhA6xqwSSbdNE5bdV6Bb397lxwDPa8LYzAbISZO+1E11+0uU8hAJpTpwtq/9/qmBgx4s+YeIf8KjKS9HPVQMz5uiyYh5sMzeg8s/fo6bOZ3RccSYx99mb9wYhuV1zA56rMLls31ReXuelTL18NnyLi3njAeQmDYu/5UJnreCoaku8jPilHpZZl1Rqm6osD4TQgghz+rl+1Yl5CkIP4PkOP883v3FF+/M91D6Z5CEtlqBuStGfPoVlk0bhQEeQ+E5dR3e76mOyNBgabAtPCds09EDfTw80G+wO2x1gQY2HaXjwtDKQrbOpD1fYru/NjzWHsFxP2+sG5CAq+HSWUrx338EKV1nYePKD/HaME+8uWAbtu/figluFQ3yIJ9LyGo1ASuFNK+PwdTvZ8BV/hZgyH4cCzLA0K9+wMfvjcSQtz7Bum2TYB91CIcuyJIIXbqTUzPQyN4e95Jl9/mTU9NhZGyM9BTl+/kKP4HlMGQ8rJ1d0XbYgMcunOT4fYnAKG04vXkEo5d4o1+rBCRV+ant5KtHkOs0CwOHf4jGbTzRYtA2eEzbivaOcsGI1B1kphXDuO0MNGvnCfu2bHC0FzaC7Yj9uBMndF/+AS5dR8LR9RP0HT8JRumHEB4h+2sh77mZGdAztcfDLFnec3PSoa1rzMaVy3tG4DHc1xmBbuPmwbn9CLQctgMuTR8hNvCfSs9tC3ed7yfdARxGo2On12Db0oMNfWEk/Zm1ACREPIBRl6/RtcdIOHT8EF0nTYZJvuxvBUI91LUT/sYD9q3dYciKRN24o7gcDzTUV6zuC5tUbOCK5q99Bffeo2Dfciice61D26bqeJAQLE3AcQmIvHoZXOsvMGjENDi1ewOth+9Gt/aaSLr6Z/kz2irZX2VYIHueFY97XztY1XAcCxch3uptBu5OOryq6aLx0tTDMhI7WLYeXL6fpIOjY/l2abdbhk4t8hHx13rcLwrC9WN/oLjFQnRpV+XCRYkb2r0zB87tRqL1iO/Q2iYTSbevSmepqm4oUg8rPDnvim5PcsAxZNt8gH5vTJfWsTZvbGP5ikPkNV/pfFVRXfkoUTdUVJ8FfLNPMfZMFDxHVvwaByGEEKIMCv5JPVGC/AfpKCjORd6DrKfqAnv7+zlYfTwb7SavwMqt32Lhh67IOb4YS7fcFFPooMfcbfhmmzCsxCBbwKjvPHF8GyZ0k6XiCoPx09u9MKT/cEz07IWhb/6Ip3lhfv6VNfh4zjHkd52E+WtXY5qnGW5tnoxPd1UsLef4cnz2fSD0h3yCT5dNQbs7+3BCrp8+x8Xg5ymT8GOQAfrNXIHPFo6GbdxeLJy4FmElFYd/SkoqdPV0kZ4UKx1PSk6R/pueonynf44rRMo1PzzMv4/EqwGPvZWaKwlGyI5e2P/NcBzf2AsHtv/4WPf64ug1OPP7MRQ7T0KXN1fDpb0Z7p+dDB/fyiXJcSm4fXwNErl+cHvrO/R95zv0GdBH+sytkPfQXyYhKN4Ajv1XwH3oaBhk7IXXT2txX+6lkHk5qWigqYtHmbK85z2Q5b3sYoCi+JQt8N77A7KNR8Jt5Eq0b6WJxL8mwfd6upiiQobPIlyN1Ifz6xvR/71t6PfuerS0EbY5F9HHZuB6lAZs+6+Cu8dwaIdsRESm+IdSOrBlgYbwd/3fWwmnhixwbDlPHN+Gtk5iMgVkeM2Bb1A2LHqtQK/x36Jbb1cU3ViM8z5ldZ7Vscsf45+/fFDqPAGdRy1Dm2YSJP09Cef/lZWXQBX7qwzHFWD3gTjcb9oUW8eZwKRKvwkBDwncx3XAJ00LsP9ALJKr1DHBy1IPy6gZDUZXcR+VDf08h7O9yfLToC/cXhsCBH+NgNtCfwq27turcTVEDY6vLYFNA7kyyDyCWykuaDP8S3Roo48070/gF1L2ZkrV1A3F6qFMzXlXbHuKo1bj7O9/otDxfVbHvkArxxxE/j4J16KrvdrwDFR37CheN1RTnwXqjk7QRzLSw6lrACGEkKej5ujo+DRx0jNh60R0tNxrjl+w9u4OCPKNEcdevJetfMiz4flWmHPuL/Q7/yaGLb8mTiVlhPLptPAvONx+E3/8ReVDhDoBtBjYHjvft4RucjI2bL6OfXGygIi3a4RtM5phoHUxzvx0DTPP5Kika/irUA/tx4ahj8EG/Lptp1KPpJAXS1X12fRDL7wxIhJnXvsAUXIXbwkhhBBF0bcHIc+BScs+sscBBnli7MoV8HRIw9XzIeJcomnZR9bVtpUnWg5fgaYN05AcTuVDZITYJ/xsEDzmB2DnbUBf/kV8uhooCY/ER/MvYLpX3jMF/q9kPZR/2x95JaiiPguPtjW0swViQpBW9hOxhBBCiJLozj9Dd/6JqnVbcw2bR5ugtLQQOcnhuPzTcqzeeQ25zxCo1CdWb1zDIDdWPnwhCrPCkXBxOf69eA1FVD6kDr1q9VB6599wA37dSnf+/2uEnildf/kLTYPfx54N4gtbCCGEECVR8M9Q8E8IIYQQQgghpD6jWweEEEIIIYQQQkg9R8E/IYQQQgghhBBSz1HwTwghhBBCCCGE1HMU/BNCCCGEEEIIIfUcBf+EEEIIIYQQQkg9R8H/S4je9E8IIYQQQgghRJUo+CeEEEIIIYQQQuo5Cv4JIYQQQgghhJB6joJ/QgghhBBCCCGknqPgnxBCCCGEEEIIqeco+CeEEEIIIYQQQuo5Cv4JIYQQQgghhJB6joJ/QgghhBBCCCGknqPgnxBCCCGEEEIIqeco+CeEEEIIIYQQQuo5Cv4JIYQQQgghhJB6joJ/QgghhBBCCCGknqPgnxBCCCGEEEIIqeco+CeEEEIIIYQQQuo5Cv4JIYQQQgghhJB6joJ/QgghhBBCCCGknqPgnxBCCCGEEEIIqeco+CeEEEIIIYQQQuo5Cv4JIYQQQgghhJB6joJ/QgghhBBCCCGknqPgnxBCCCGEEEIIqeco+CeEEEIIIYQQQuo5Cv4JIYQQQgghhJB6joJ/QgghhBBCCCGknqPgnxBCCCGEEEIIqeco+CeEEEIIIYQQQuo5Cv4JIYQQQgghhJB6joJ/QgghhBBCCCGknqPgnxBCCCGEEEIIqeco+CeEEEIIIYQQQuo5Cv4JIYQQQgghhJB6joJ/QgghhBBCCCGknqPgnxBCCCGEEEIIqeco+CeEEEIIIYQQQuo5Cv4JIYQQQgghhJB6joJ/QgghhBBCCCGknqPgnxBCCCGEEEIIqeco+CeEEEIIIYQQQuo5Cv7JK4HnAUkDiezDM1DVcl5F/+W8v4qE3aSmLmH/1t3+4iWa6NLHAcPsXmwdUVVdVdVyasLbWWBqHyNYSV5smRFCCCGE1IaCf/JKsJ2wD963r2P7BHtxyuPUnEZh5Z+XcSE8CgFRUbgWthl9qjT6FVmOMnjeCG8fiMKlzUPFKS8vVeddVRQpQ57vjWXXo7BriqU0jhuy/Ta81/WVzeu9Bj5REVg3XHY667DcF35bPcG3XoijrB4IdaHqcC3KBzNbv9zBmr77Pryz6joGu9ewv0xHoceMyyxdFCasicL7KzbD9ikDXYNmjvjluz7Y974tWuqKE1+Ql/V4r5auIUa/3xU+33XC1Gbq4kRCCCGEkJcPBf/klVBSmI/CggLkFxaLUyrjeQkGzVuBwcah+GHhdMybNg3zP96BG+L8MrUtpz6rL3nn2FkrOfU+9M3MIWHBnq6NFbi8Alg2spVeGLCyaIj01CQg5g98xeqBUBfmrTqJNPbf2VWy8fnTluB4jLjAl1VxPoqLClBc/OQ67zBoBZx0QhF0cDrO7p4Gr193sFw+BSt7/LCoGZrG38Ko6eex5taL/Wp4lY537lYE+kz3xYZ4A8xb5IoJVi/3RSVCCCGE/HdR8E9eCSm/TUK/Fh0x67dkcUpVFmhko4Usv9/wy9FT8Dl9Gj5eIcgQIkU5tS+n/qpPeU9JSYNaQ3O21wF7FvzHRUbC3NqOjVnAwqIB0pLjweXexRWhHrDByz8OBXiEBP+Tsrpx2hfRuS/36S/v6iT8vrQjvK4+uc4bGGshP/I3hAWdQvzN04i/HYKCKnW+NjzP4Y3xTeGSGYPp66NxPe/Fl8urdrxzednYvj4Ae7JMMHucDfSesvcFIYQQQsjz9HK3fomUVec92Df1c7SVa1DyaIcJk/ywdWAPqIvTJabDMfWtv7Dro7NY4zEYffqfwr43x8FAnC90rx462g87B72Bzn124LtpF/Djh7/ikw4tpHdQFcEbjMXW25HY+YEQdlUwencv/G//ghEGZetqALthS/D96cs4dysMZ87swezX7Mu3VcB7boF/1B6M7zcX/zsXBN8Qfxz8cS5cG1akMZ9yqFJ37ZPLO4tzZHi1BtDS04O+gS40hNrMaUKXjUsH3QbgxPXVthyBQtvMm6DTrJ046B+CS4Fe+H5GR2hVzFaYWgM9SLSrGRoo122Y5xwxeMU+HL4aAr/ICFy88g82L+wPc7ltVizvJnD9eAcO+IXA98Z5bF/giakHonD+Ww8xBTBgcxiuHZiJ/nP24mhQGC74n8a3s91hUql86qYMU5JTUWxqBnP22draBIlhdyCxtoEWGsHcvBD32XxV4bXGYuCXkRjsXrnOa3bZi/e+/AXO4sYLeddvuwQDZl/G2yvDMGbOHnRsYw81+by33YL3vt6Dls3nYtCCIIxf7o/h78+FhW5FGu2eh6Rd+MuG0Z5V6jxYvRbqj5YuODU2gdV5dTYuGxoIGwK+wRvovzISQ3sLF0QqaHb7nW3zT3BqIFfgEgsMaauOq/9EIqio8lfCf/54V2Cby3BF2dh2JgO67awwQCJOlCP0VrCccgoTT4Zg1JSuleoFIYQQQkhdoOD/FZB8PxZFWraw0REnMDpNx8JdLwZe186jhOPAS9wxafgiuJT64qD3d7jIDcAQWyM8zIpHdvndsMawNAIKzHvDreA0S7cR5x40hFv3j9BTbtk1yjyNi9dL0KbXQOiLjVee10bv3q4oDfSGT6Z0ErTcFmLTt6NhFLwHGz5dhl+DjDD8212Y6Vq1VWyPoW81gv+WL/D19+dQ2OkjrFo0oPxiROaptbJu29OW4lS8dFJlrWbj9+BgXAg+iQ9asqBk5Fb2WRgPxvkr69FLTFbrchhFtll/KNvOjzsi9/RGfL1iB8Jav4uhNuJMBfG8HlquCsakvx4fJq4ar/CFGIH1hDX4/E1LROxahqUfzca6PdGwn7QJS982E1MolnchX2tmdUHRhS34+outuO4wDiwOepzVcIxsFojdy7/Az5d5uM7cjHmvGYoz664MS5JS8cDYFGacCSyt85ASyMYtG8Gas4Zpw3tITVRhYPXwNOLjSmDWYmD5vhHqvG1zVufjvBH/UDoJGo4LMWDsaGjF74H/H8sQFmeEZmN3wcXh8Trv7NYIiV5fwNfrHHjHj9Br8IDyYLAgdK20C//Z3UsReV86qTKr2Ri+IhjvrjyJDqzctF23ss/CeDDGL1kPWyFN/nHcDX8Iszavl9+FFi7+ObbuAP7O34jJl06SsdWHoyQfoREF4gQ5//HjXabmbZaXEp6JJIkemkh3QlUa0Da3QAOJLvRMG0K4bkMIIYQQUpco+H8F8OkxSEUjWJqK47wFBrTvDi7mN5y+J5tm2GIs3DX9se/oVzh56ziOnT6HewZA+gO5B5sl9rBgQX7e3e+x+dJB+Ib/gd2XzyJT3RwNFXzBF8dl4KxXELhOvdGr7G+0+sPdTQOhXn8jU7zQ0HnMCDQK3YF5c7fg2NGD+HHuVOy56YhhY8ua5xX8t8zGroN/4q//LcSag/Fo2KU7monzCmOvyLptn/RFfJ44UV7k7/h8/HhMGz8Lf0YDWT5r2WdhfDymT9qMQDFZrcthFNlml749YBj2E5Ys2YHjR/dj24ztuK4hzlRYHqK2j8ef8x8fjm0/iSIxlSKaNHeG5OZBfLPlIM6cOoGjG+dg9pRF+CNMTMAokvf2Qr7Cd+OzeVvxlzRfG/Dv47ENq0MB2D39Gxw5cgg/zP4UxxKM0KmnizizDsswKQX3G5iyQN8e1pYpSPFPRrqlFWwtrGDeIBUpTwj4noZQ56PDgqDm0Bu2muJESX/YNtZAetjf5d3srTqNgEHiDngf2ILIoIMIPjAVoUmOaOr2eJ1P9J6NkIA/EXVhIS5fjYeOU3eYiPP4jCvSLvyxob7IqiYex73fcWHneJzcMQvhaSzOv7WWfRbGx+PUT5vZuULY5gLEXfdCgc0QNC67DqQzBPb2JUi48bf0gmE5bQ3ooBDZueK4nP/68V6mpm2uJKcQOVCHrrY4LofjHiFyVS/sndATv64+Bl5+HxBCCCGE1AFqfbwKsqKRVGwMKxPZHVbOciz6WWfiYsBx5IoNyGbWLcGl+SHgkXQUUOPAqRUjNVMuCmpoC3O1ZATduSW0RGXT2D980QPkVhdkPEHqKW+ES9zQvZ+WdFyjV2+4aofi4qkU6TjP68La2gjZMbHIMTCQdsnVN8hCXHQWDK1toV3pjlkcYsMrxuPiYpGvpYeKe8k14x7FItjXF34XryPpIVv3vdu4wsalg18EshRsYCuyzcKz0aamRihJTkRi2XKLwxGtZKDJcaV4FOmL5OvVDJEsdFMiKLhz+y6KW47BZ59OxvBhfeDSXBvxXkdxLqS6W8bVE/JlzvKFRLYvyvMVgZjq8hV3B3fKrk7w4YiNA/SNjGWjdViGSGTBfrEpTKztYKGXjOS4ZKTBGpYtLGFWmIp01fX6l3oY5o0MdTfYNpfVea5pb1hKQhEXWlHn9Y2NUJAu1F8DaRd8iVYWstKzoGlsW6kruVDnc1IrxrPvx6JYogfZkmvHFcXiHqs/SXeuC7EmSnNuI4WNS4foCBSK5Vp880/EPWwGB5cW0nHN1gNhXnIRUWE50vEKpeK/1fuvHu8VlN3mJ9/T5/hs5MYnoJAdB4QQQgghdY1aIK8CPgIJDwBLEyfWaG2Azq5D0TDlD5yIk0VhPG8OayMd5DyIKb8YgIYsKEIKUjMq3nKtYWKLhqXxSJGLC7n4dZi5ZQr+VublZ3EncfGWLjr17intquzW1x36N73hXR7ASaAuAQw9N5V3yRWG1Z6suSzRQAMxlUwp237xI5O5+1107zQfvgo24lVHkW1WQ6nQri+VD5b4WkKn6qnqmf+knxdg2d67aDjwA8xa9wN+OOWHM2e+hUcj+eClNmK+KnlSvniUiJ+EzzxLpKZW9sd1WIYlSUjLMIVpGxtYPkhCMpJw754lrFwtYMwi/yQxmcpknERsMgsYm/dkm8vDsrk7NJO8EcuOSxkJ1Niu03LZVN4FXxj6urC8q2ug8l6tXOcL/30Xe7+cX3ExRFVKfBAZkgqTNq/DkAW79m06gw8/gTglLvRJ/WeP9zLKbvPTnBEIIYQQQp6/um5xkacSj8TMApgYOkBTfwQ8nDhcCzyItPLGp4P0Wf70rDhxnAUhZo4s0E9ESoY4gbE2sgGXl4CkZ/zVK46Lhde5CBh27wsXuKJnd3NEnjuN+PLtKUJJUeUuueVdc1ecQNX7ji8HRba5FGpCu7482BVwSj+7q8pn/rmSGJz6cjLe69cVPVu2xpBRy3CN1ZFZU9zFFLXjuBLk5TwEDAxhVL5uS5iW9UNXmGrKkG85GgtWTUbHSm8B1ICGBlBcWCiOs2A/TRcmHZxgmpQk3JtFaqoVmrczgyQlGQliKlUR6nzs7QhoNukLc1bn7ZqaIyP8dMXFNpb30pLKXfDLu+L/eQJlW12XhE1LCjyFPHMPODkOhH3jYiQEn0Jp1aC1kGdbrwGdarqqC/67x/tT0JFABzzylb3AQgghhBBSB6q0AsnLSGhjx96Lg5pRI3Rp9waa5p7A8Yhsca7AELoNWHjESaRjPN8QPZq0Y4F+IpLlAn1rYyvW2o1Hojj+LO6c9EG8eTe4j+gFV5toXDp1S5wjbG8ekpIyWTs4B2EXL0q75Ppd9ENcrgQcX/xSPuuqyDZzHI+0e5lQt7KBTVmQrNEMjtW+3KsmqnnmX9iENuNWYtF4F+kdWY5/hJRre3H2RiEaWtuWv/lcESFBN1HU4W3MfrMDLM3t0GnKR+hb+QXvtVJZGao1RtexH2BIZ7mO8E3boKluFhJjxJdcsFqcmloMk+bNWbCfiHzuERsvQLOWTihMSy5/Fl0ZWj2Ww3P7AXTtJr5co4oHwT7IMuiGRh16wco4Ggkhlet8zoNMSNRzkH7norQLftIdP+QUsGOylB2EL6rORx9C1H1H2L32HqxKziHqpvyb/kQpD5FQqgNn+yf3OvkvHu9Pw8BBD5b8Q8Sr+LETQgghhBBVePlaZaRa0jf+6/bE662sEX59HyIr7bo4pGYDdh1W4qMeH2HSyG3op52AfK2OGOg+BHZqwrPW5rA01EZeVqzc3cpnEHIalxPs0POjwXBMOA/vEHG6yH//EaR0nYWNKz/Ea8M88eaCbdi+fysmuJW9Ma12wvPhNh090MfDA/0Gu8NWF2hg01E6LgytLBQLbhVdjiLbHORzCVmtJmClkOb1MZj6/Qy4KtnLV1XP/AvJCsxdMeLTr7Bs2igM8BgKz6nr8H5PdUSGBksDGEXznrTnS2z314bH2iM47ueNdQMScDVcOkspKinDkP04FmSAoV/9gI/fG4khb32CddsmwT7qEA5dkCURyjA5NQON7O1xL1l2nz85NR1GxsZIT1H+8pbwOI3DkPGwdnZF22EDqr9wknQaCRl2sOs3GMYZ5xFbZTXJV48g12kWBg7/EI3beKLFoG3wmLYV7R2Vq/O6dh6wbekB+9buMGR/qm7cUTouDA31FavzZfdYAsMAAJXFSURBVDguDHeD78DYri1Kbv+NhOquLOWk4fwdwL2vHayedMHoP3q8K4PnNfFWbzNwd9Lh9YSuA3yzTzH2TBQ8R1b8GgchhBBCSF2h4P8VIbzxP6UBa5yr++BEcLI4VYbjwvGXz2+4W2yLTq0HwD53DzYf/h7nMxqiU/uuMJE+pC17NCDtQcWjAc+C44Lg5ZMMR2dnpPucQliVgDX/yhp8POcY8rtOwvy1qzHN0wy3Nk/Gp7uUebObDnrM3YZvtgnDSgyyBYz6zhPHt2FCNzFZrRRbjiLbnHN8OT77PhD6Qz7Bp8umoN2dfTih6j7mSrj9/RysPp6NdpNXYOXWb7HwQ1e2jYuxdMtNMYVieecKg/HT270wpP9wTPTshaFv/ghl38EnUEUZclwMfp4yCT8GGaDfzBX4bOFo2MbtxcKJaxFWUlHPUlJSoauni/SkWOl4UrLsBXTpKcrvEI4rRMo1PzzMv4/EqwHV3vkV6nzs7WQYWzgj7/Yp3K+Spjh6Dc78fgzFzpPQ5c3VcGlvhvtnJ8PHV7k6bztoG/q/Jwwr4dQQ0G45TxzfhrZOYjIlPLjli9zSLMTdOPt4l39G+GWA3QficL9pU2wdZwITPB5k/1ePd0XxkMB9XAd80rQA+w/EIrmachaoOzpBH8lID6euAYQQQgipe2qOjo51/nYitk5ER0eLYy9ee3cHBPnK/SQeIf9xPN8Kc879hX7n38Sw5dfEqeRVpNf3L4zqHoEzK2cjsbT6oFS44d9iYHvsfN8SusnJ2LD5OvbFVZ+WVMbbNcK2Gc0w0LoYZ366hplncir/lKIc0w+98MaISJx57QNEyV3IIoQQQgipC9T6IIRImbTsI+saPcgTY1eugKdDGq6er9K/m7xSeL4xnNu2Qv7NE0is+JmGxwixavjZIHjMD8DO24C+rjiD1E5XAyXhkfho/gVM98p7YuDP8xI0tLMFYkKQpuiLPQghhBBCVIiCf0KIVPP31km7Ra/bshZT+2ng31XTscH7kTiXvJKsRsLRMgOxwedkEX4tHiWnY/uPN7D9Fn01KIq7FYOPf4zBP8m1daJrCqNGGnh454Zq3rtCCCGEEKIk6vbPULd/QgghhBBCCCH1Gd1+IIQQQgghhBBC6jkK/gkhhBBCCCGEkHqOgn9CCCGEEEIIIaSeo+CfEEIIIYQQQgip5yj4J4QQQgghhBBC6jkK/gkhhBBCCCGEkHqOgn9CCCGEEEIIIaSeo+CfEEIIIYQQQgip5yj4J4QQQgghhBBC6jkK/gkhhBBCCCGEkHqOgn9CCCGEEEIIIaSeo+CfEEIIIYQQQgip5yj4J4QQQgghhBBC6jkK/gkhhBBCCCGEkHqOgn9CCCGEEEIIIaSeo+CfEEIIIYQQQgip5yj4J4QQQgghhBBC6jkK/gkhhBBCCCGEkHqOgn9CCCGEEEIIIaSeo+CfEEIIIYQQQgip5yj4J4QQQgghhBBC6jkK/gkhhBBCCCGEkHqOgn9CCCGEEEIIIaSeo+CfEEIIIYQQQgip5yj4J4QQQgghhBBC6jkK/gkhhBBCCCGEkHqOgn9CCCGEEEIIIaSeo+CfEEIIIYQQQgip5yj4J4QQQgghhBBC6jkK/gkhhBBCCCGEkHqOgn9CCCGEEEIIIaSeo+CfEEIIIYQQQgip5yj4J4QQQgghhBBC6jkK/gkhhBBCCCGEkHqOgn9CCCGEEEIIIaSeo+CfEEIIIYQQQgip5yj4J4QQQgghhBBC6jkK/gkhhBBCCCGEkHqOgn9CCCGEEEIIIaSeo+CfEEIIIYQQQgip5yj4J4QQQgghhBBC6jkK/gkhhBBCCCGEkHqOgn9CCCGEEEIIIaSeo+D/VcRJoMbz4sjT4yWa6NLHAcPsnm1ZvEQPzYe1h5vTs2/TsxCKRNJAIvvwDFS1HFKzl62cab+rjqrOLf9l1Z1XeScnDB1mBRPJk8uVt7PA1D5GsKqDNIQQQgh5tVDw/4rRdFiCzTPOYW33VuKUx/GwQEf3jVj3oQ/2zPLDvqmfo22VgMagmSN++a4P9r1vi5a64kQ5fI+N+OBMGPp0q7nhp922AxYcHI9Fs1rCQV+c+ILYTtgH79vXsX2CvTjlcWpOo7Dyz8u4EB6FgKgoXAvbjD5VykaR5SiD543w9oEoXNo8VJyiGJ5vAJMh32D4r0H44EQARn85B1aGlbdVkTQvK1WXc1V864U4yvaxsJ+rDteifDCz9fPd73XCdBR6zLiMd1ZFYcKaKLy/YjNs5eozzzvAvt9CNHPQE6c8f7WdW14W9mPDpGUmDO+tvI43pm9EK4eG4lzlqLqcn3he1TdDz1kjse7g6xjatoE4sQpdQ4x+vyt8vuuEqc3UxYlVqCoNIYQQQl4pFPy/YgwMraBVkoGEB/fFKY+z7rgKM9sYIPTfr7Dx2CJsOP4LwsV5Ulb2+GFRMzSNv4VR089jza1qqkFhIUpQhNJicbw6dm0xZ31XNIq8jBXD9+JA0IutTiWF+SgsKEB+YfUbzfMSDJq3AoONQ/HDwumYN20a5n+8AzfE+WVqW06dcZyKPh8PgXrgRpzbsg+5Th/B45PhkMhfrFAkzUvquZdzzB/4iu1jYT/PW3USaey/s6tk4/OnLcHxGDGd6KXZ7woS6rPDoBVw0glF0MHpOLt7Grx+3cFyKc8BNt2nwMmujoJ/Rc4tL5HSlP04x8rt3OHNiCt0Q8eJO9HS9GmOHRWWcw3nVS7ID/OHH8ShSBOMXj8UA6vpWcHdikCf6b7YEG+AeYtcMcHq+aUhhBBCyKuFgv9XTPqNjzB5yzBsvFW5iV+G563QpVlr5IRvwu6QM7gWdQ4BCTEo4GS7muc5vDG+KVwyYzB9fTSu5z2hChQXg0cxSorE8SqEwMN9Rhc0ybiBTYuuIyrnxVellN8moV+Ljpj1W7I4pSoLNLLRQpbfb/jl6Cn4nD4NH68QZIhlU6b25dQRx2Yw5vwRsuFH3P17A7x/uwSudQ9YirOlFEnzknre5czl3sUVYR+zwcs/DgV4hAT/k7L9ftoX0bkv6X5XmAUMjLWQH/kbwoJOIf7macTfDik/1uuawueWl8mju0gMPYnY67vg/9MC3M1vjxZdXMWZdU+R8yqXk4YTi07hzANrjPyoBbSqudDH5WVj+/oA7MkywexxNtB7jmkIIYQQ8up4BVpnhOdbYvxEP/w621867Ju1DQMaPKERxrWAnQmQeC9CnFCFxAJD2qrj6j+RCCqqYfcXye78lzzpJqhmY3TuooHbfwQgqspyeIOx2Ho7Ejs/sBCnyBi9uxf+t3/BCAPZtgtd1u2GLcH3py/j3K0wnDmzB7Nfs4e6XAOT99wC/6g9GN9vLv53Lgi+If44+ONcuDasSGM+5VClLt0nl3cW58jwag2gpacHfQNdaAibymlCl41LB90G4MT11bYcgULbzJug06ydOOgfgkuBXvh+RkfWQBdnKiPUH2lFzWDRXks6WnDsPex6cz7i5YM7RdIooLZ88bw93jt4E35/z0VTNXEammLqX7dx+cg02LExwYDNYbh2YCZ6z/wZf1wPw4Ur/+C7uT1gIlc+CpVzLfud13sDm25GYvc0O+l4GZOJv7M69hM89SrWV5ta64/lFPwSdRCLF+7HmRA/fD/JDX1XncG5YF98P6WNXBnVXjcUITy2YzNgK4YtDMS4L0MwZsEhdOvaobw3Bw9WZxvoQaKlC06NTWD1WZ2Ny4YGwoaAb70Z734dhUnrdqGZDmAx9HJ5F/f3P5ldHsQJ26zfdgkGzL6Mt1eGYcycPejYxr7SO0X4tlvw3td70LL5XAxaEITxy/0x/P25sNCtkq9azi28ZCQWz7qET9r3wfhRh7HzI29sGfc1BptqiilEWu0xZOD/sH6yF3bP+AffjJyHLgaybuc874JJk09jki3LI28Ajzd8sW/cFFgIedYbj5UzN6PPk86NtSnyx70UQM/EkS27rKxr2RcqLGepGs6r8riiVBw/nAStrs5wqVJ8ZbiibGw7kwHddlYYIBEnVqGqNIQQQgh5NSgXIZAXJAkXvRdh/Z8L8fPtZOBRApLyxVkijtOFlkQXOiaNYaGRjQe5rA3NxoVBIgZrUrb6cJTkIzSiQJzwBLXc+YejMSw1chET9lCcICfzNC5eL0GbXgOhX9741Ubv3q4oDfSGT6Z0ErTcFmLTt6NhFLwHGz5dhl+DjDD8212Y6Vq1hWmPoW81gv+WL/D19+dQ2OkjrFo0oLwBnnlqraxr97SlOBUvnVRZq9n4PTgYF4JP4oOWgNHIreyzMB6M81fWo5eYrNblMIpss/5Qtp0fd0Tu6Y34esUOhLV+F0NtxJnKSNsL34MZaDprGayedPVAkTQKqC1fHBeLX5ZuR2TjiZj7vuyZeOt3l+KdptH4Zcn/ECd/KrEajlEtgrBn+VLsOJ2Ldh9txLzXDMSZipWzTA37Pfs4Tp5/iJZDXi9/xl14t8LA/h1QfOlvnMmWTlKIYtvTlAV3J7D1cApcZnwLz4c/YLtPPrp8PBV9NWQpFK/PNdN334R+PRoj68paXNy/GNcDM2D52nZ0KnuA3mo2hq8IxrsrT6IDq1farlvZZ2E8GOOXrIetkCb2J5z/dRa8921DMjtXZF77nH0WxmfB5+QJlB21Go4LMWDsaGjF74H/H8sQFmeEZmN3wcXh8WPQ2a0REr2+gK/XOfCOH6HX4AGVg9fazi3GtjBHDho5D0Hp3V345eJJ3NPrjbF9RsGobB+qOWPEiE0YbZUFP7/12HH+T9w3eQPTB70NM2maUvClLNAvZR+1eqO9cS5yOQ0IW2vg6Ab75Mu4VuXcqCiOK0RJCaCmIUHZE+617gtVl3NN59UqHoSm4r6GEWwcxQnVSAnPRJJED02klaJ6qkpDCCGEkJcfBf+vAI7LREzMOQREnUN6iR5rYSYgUZwn4PnGGD3OC7tmeGPXe5PhqGaIXsPZZzb+40enMNVJ7mVN2hrQQSGyc8XxJyksZME/G54U/Os0gCYK8DBLHJfDcRk46xUErlNv9Cp74ZdWf7i7aSDU629kinelO48ZgUahOzBv7hYcO3oQP86dij03HTFsbFk4XsF/y2zsOvgn/vrfQqw5GI+GXbqjmTivMPaKrGv3SV/E54kT5UX+js/Hj8e08bPwZzSQ5bOWfRbGx2P6pM0IFJPVuhxGkW126dsDhmE/YcmSHTh+dD+2zdiO62KAqCgedmiy4DCGjm4OifVb6DvXE5rygRajSBpFKZKvkptbsPrnBLSf+Rk87Idgzsddkb5nKX4MqdI9RMMfP83YgKNHD+OXxbPwa5gROvdxE2cqVs5lnrTfOa4AXn96IbfVEAxykqWF8RD06liCf0/8jUdK9HxQbHse4Nqhn/HHlhOIMEzB1R2/4dcfzyJR2woWprIUytTnmjy8Oh37v3odF84fRUK4NyIvrMbdZDPYNG0nS3Dvd1zYOR4nd8xCeBqQf2st+yyMj8epnzYjlSXhcgIRG3wM0UFXkc2qREHqWem4dIiIAC+Wj1WnETBI3AHvA1sQGXQQwQemIjTJEU3dHt/mRO/ZCAn4E1EXFuLy1XjoOHWHiThPqpZzi6RhI5a+AGG+n2Fv0HFcDF6H38PToW5ojbI+QpImEzHMNAIHD8/DwZC/4RuyBVsDgqFu1RZNpCmEqJ9HKQvStRr3gH1aKBLVOBasa6KDQ1tER/sgR8leLzWpbV+ovJxrOK8+JpOlgwRaOuJ4dXIKkcNKR1dbHK+OqtIQQggh5KWnulYSee543hDWhnrIz44vD6Bl0nHhzEysOjQDm25Eo7TAD7+xz8L4V3/MwP5Y1lIuJzSeFVDbnX816f+eKPWUN8IlbujeT9YdXaNXb7hqh+LiqRTpOM/rwtraCNkxscgxMJB2wdc3yEJcdBYMrW2hXSmIjUNseMV4XFws8rX0YCiO14Z7FItgX1/4XbyOpIds3fdu4woblw5+EchSMFhQZJuF555NTY1QkpyIxLLlFocjusY73I/THrgUvTwskX5gPk6s+hmP3Fei72t2bPlWaL4qAB9smwfrQbWnaahe+8UARfcFx5UgeMNSHM7uj1n7FqPXowNY/c0VFFUtv/goRIrXAzguDsnJJTA0NS9/vEJxNe/3/H/+xIUHzdBvRAvpuOHggWhfdBFnTuZIx1WrRPYITGGRcFTIjosi4RPH8qhsfa5ZiWYHtHnPC+NW3RTv6Huhoy2gqSt7Ez1XFIt7kb5IunNdiMlQmnMbKWxcOkRHoFCJ+qxvbISCdKFcDaSPDUi0spCVngVNY9sqjyvEISe1Yjz7fiyKJXqQHd1laj63WBs1ApfnB/9EuZ4Bwp/k56As1m1t7wLNe/64nq8v67mkaYOWFlZshUmQvYmhlP3HjjMWIrs4tUZE9HVAXQJ19a5oaxOP63eTpKlUpbZ9oQilyrmW8+rjFPkDRZaoqjSEEEIIeZkp1kokL4nGMGeRz70HlV9TznE5LMC6irD4q8iBAZAZCv9Yf+l4WPwNpNX0bP+TFIhv+39S8F+buJO4eEsXnXr3lHYNduvrDv2b3vAuD4JZg13CAjbPTeVd8IVhtSfLoEQDlX/EijX35drHmbvfRfdO8+GrYJCjOopssxpKhTZyqXwgxNcSFj3OtHU7SML34MJPfyDWayW8fr4Dq6nfovvHG9GtVTguf/kN1FvWnuZ+iSJlpPi+4Aqv4OjJGJhbWyHhxG+4ml/d8oUArYK0KFiZKB861LLfi33w9+lUOA9+HU4swOrv0RlFF07Au/Ye08+BMvX5yYTn2JuM/BatzWIQuv8D8Y7+NNyU7+qjMhKoqQNaLpvEwFY29HVh26yuUd71Xabyvij8913s/XJ+xQUuBVgZsyD+QSzixHHh5XaWRg1RkhUn7a0gvCvDlgXJapYfYL3Qi0kYph/GDOcSXPLdi2jputixVFrC/r8rOtqEIzDqEXhOHRKbLmj1yA8BD6SLVgnV7QtlyllZ7OCq9eSiyNlHVWkIIYQQ8jJTvOVGXjwNO+lLtlIzq7+NzPNasDY0QVFWbJWf+5JTyLOQXgM6tXTf5JI3448Br+F68hOqSGGxdDlP6nIqPCPudS4Cht37wgWu6NndHJHnTsu9iK5IevdUvgt+eVf8FSfwPO7dPjtFtrkUakIbWU0+1OWUDnwlQsHm3Jc+M8xxpXjw+xz4hzdHm9edEL/5E2kAokgaxSi+L3irtzHrHVvcCgyF9dsLMbLan/9Sq5RfaVHwlS8IqIJQlfwPn0KakweGdB6IXl2KcfnvU4/3RKgTqqrPXWDjpIsMv2UICvKW3s1PunNNeodf9Yqk3eflHxsoG079eQJKr7KGcwvPW8DKUAu57NyUV75/GsPSkENaRjRKpdPsYWYAJIUul/Zakg4HJmLOD29iW0S67E+ktYgNNj3RMv0iAgpZvWKRdWP7TiiMPq/0iy7lCS/lU2eReGkx25fSKaraF0qUcy3n1Ur0JNBiW1pY0+tbdCTQAY/8ukhDCCGEkJfei2glk6dlYgsztTSkZjypBcYa08ZA+oNYWWRUnZSHSCjVgbP9s91vQlw20ksNYN2kygur5Nw56YN4825wH9ELrjbRuHTqljhH2Lw8JCVlsjZlDsIuXpR2wfe76Ie4XAk4vrj8WdmXiSLbzHE80u5lQt3KBjZlt0o1msFRyRdlPXyQARhboPxXww2bw9xGgpJiXRg0tpH2plAkjSIU3Rc8b4rhK+fBJW0Pvh73OQ6kd8aMlWMqvclfyrYxnMR3HPC8Hays1JF1L+257FP+yiGciXFEz8XvoWPhOfzzz1O+7e0ZKVuftXosh+f2A+jaTXxhQLkC6UvnOA25V7hrusLMXPysNLYwFitz6o/3PRC2OedBJiTqOUi/c1EMbv2QU8CO6dJiIYGYUkE1nlscWfAPpD6IEscZdQdYsWA/LbNsGgd1tsq8jACx19JVhCRnwNDSFXblL7NkwX5pEezsXJEacw45rO7xapZoY6+DoMgbYpqnJOkMU0vheloUy7qQd2X2hYrKWYHzahmdJqbs2GPpa3ikyMBBD5b8Q8QLXSueQFVpCCGEEPLyU7J1R+oar9UcHRr3Rkc2dGraGmZ4BC2TvtLxjjaNKj8vyhrTFnp85QZ2VTlpOH8HcO/LgrIagkNezwmWbl1hqP+Ee9ZZ0Qi5CbQa2urx4K9MyGlcTrBDz48GwzHhPLxDxOki//1HkNJ1Fjau/BCvDfPEmwu2Yfv+rZjg9oTfrqqG8Iy9TUcP9PHwQL/B7rDVBRrYdJSOC0MriyfnUZ6iy1Fkm4N8LiGr1QSsFNK8PgZTv58BVyVve9+77IMcp/fQZ+ZEOA+ein7rv4VD6nc4tvIvaI38Bm5ttBRKoyhF8mXiuQwf983HXyvXIzQ/CNtW/IGCvguxwLNKAFvkhve3zMHw10di/Krv8HarTPj5XJXOUtX+KsNxYfjr5B00btsWRef+xkUlY39Vbo+i9Vm4w+wwZDysnV3RdtiAKu9CCEBCxAMYdfkaXXuMhEPHD9F10mSYPPU1jTvITCuGcdsZaNbOE/Zt2eBoL2yEdG7y1SPIdZqFgcM/ROM2nmgxaBs8pm1Fe0fFj8FyNZ1btO1grlWAlAy5Z/IN7WChno7UjEfihNu4lZwHpw6LMab1IHRpMRYTRuzAkoFDYMZiaxnhTf8mcDTPxPU76Sx4LkUp1xJOev4IfJpHI7SdYdN6MOw7TETnCWvhrBWE2/4B4kxl9oWKylmR8yrD83roPaQR1G7GIugJv2zB85p4q7cZOFZOXk/oeqKqNIQQQgh5NVDw/5LTbfIR5r++BnOFoXMHaKg1ZkGKbPyTju1ZU1iOMWtMc2msgf3kvpnCW9J3H4jD/aZNsXWcCUwqL6Gciec6DFm+A31ebylOqUy4m3Vmx01kt+2KmTNsoFfNcjguCF4+yXB0dka6zymEVbmTmH9lDT6ecwz5XSdh/trVmOZphlubJ+PTXcq8HU8HPeZuwzfbhGElBtkCRn3niePbMKGbmKxWii1HkW3OOb4cn30fCP0hn+DTZVPQ7s4+nEgQZyqo+Ppa/LPlPNS7fYJeH02AcfwWnPh8K1IurcBFHx20nb8Ypje/rjWNhYK/eV5bvni9vpizeAjUTn6NTT6yh+of+qzGxlNq6L94Cdzlf1c/4Qj+CHfBe8u+xNRB+gje8gnWnSiLUFS1vypEePsiFVm4ePzsU3T5V932KFqfhZ+US7nmh4f595F4NaBSrwCOy0X0sRm4HqUB2/6r4O4xHNohGxEh/jymsjguBbePr0Ei1w9ub32Hvu98hz4D+pQ/Z14cvQZnfj+GYudJ6PLmari0N8P9s5Ph46vMMShT47nFxA5mSGLnJnFcYCL89F8SksVpwjnF9+wS/JVuhh49FmNKr7FoWnQWWw+sQECl95boQSfbF/7SKlUKXssAXPwlhCpW1StRsxyD3u9tQ+83Poa9VgCu/zQZN+/J1qXMvlBVOStyXhVedthqxiCMbPMQ53YEI6OaOs9DAvdxHfBJ0wLsPxCL5OeYhvy/vfsAjKLo2wD+3CWBhPTeO733Kr33roKiWJAiKGDBLsLrq4hiQcAXFEUQlQ5SpQvB0ENCgATSewLpgdTNN3u3qaRcMPqR+Px0ye3s3O5svf3vzuwSERHVHSpPT88a3pP868Q0ERYWpvT9/2vfywN+PmUfolcX6TX9GN8NNcT61S/hjyoe9CbfUGoxpD3WTXeAcVwcVqy8jJ8ia35SJ0kquE4YigULvGAYGYIdiw/gWAhPDv/NBq8MxEd2KzBg8jqk/0OBguu837DjmWAs7LIAp3R6wCH9XWrr2PJvVtVxVfJuhXmLu6OzWy4urtiH1Ttv39ekRHJzwZq5zTDEKR+Hv7+AeYczUPA35SEiIqK6hb/kdZwkGcHZVW4SMAUzu/dCbtghXKzmCf3y+VvQET8Mfe0i1t0ATIvexV9D8kPmYnYdxFvT9uOAfyGMTJUB9O+m0vz/j5AkL4wa0QppR/fBp5rtnv5+tXVs+Ter8rhq2gCS/yV8NW0zvt6dXPFzNIz1URAUghdf+wNzjmZVHLDXVh4iIiKqU3jnX6jLd/4lqSfmzFmBnqokREVuw8Yj3+NGDk/S6P+H5s6//QoMnLQOaf9AsCA1fxU79z8Ov2e6YunJB6j3TURERET0L8HgX6gv1f6JiIiIiIiIKsJbxERERERERET1HIN/IiIiIiIionqOwT8RERERERFRPcfgn4iIiIiIiKieY/BPREREREREVM8x+H8IyW9DICIiIiIiIqotDP6JiIiIiIiI6jkG/0RERERERET1HIN/IiIiIiIionqOwT8RERERERFRPcfgn4iIiIiIiKieY/BPREREREREVM8x+CciIiIiIiKq5xj8E1G9J0mASs9A/BUf/iGSgQmaj26Prt7/3DSJqGqStzdGjnaElQH3SyIi+vdh8E8PTJI80L37ixjg0FBJKavr8OP4adJUmP6DAVd9ZDv6DzyzLBSTxnRRUmqfxbCjmmmU76a/vAAmD/H6k7dB94GL0MzDREmpmGmvn/DEh5cxvJe7kvL3MmrbAa9vnYY35reEh6mSKLSe2gehW0bc333iDY+HdDnLxXJs7421y/rh0sYhOP9lN3w63Axmf7G8kmSA5z4YjsCX7ZWU2iNJffHBpVBcuLEKg6Etp4QR+OSaSLu8HD1F2YvyXAwNxfY32mjzSC6YsackTxFJaoGXjmrzXjj8OrzLDKt+Wuoxq/Gn+K78/fLdhdAbWDZaJcbTCvOPyf0bMd5IGU/Dx/F1iEg7/jaaa8qshzHrgioej++H6KjjfOlWHmDoqusV5vFdMxYqOYNm3BZo8+RSrD5wCkcDb+CU7wGseGUArJVlUaSqZahbeXSZ905Y5FMqPTgQR4/+ijcnN0ODoumZ2qLP/AlYvnUsRrZtoE0jIiL6l2DwTw/OsAuGdH8UzRvdUxJKSJIdHMyNcDcjGhlqbmYPSpLsYe/qgntZKTBx6wbjUifMta0w9QD+3DAbR0p1R/fswl1l+MPJA86PzIS3W9XBP/KzkZ+Xg/z8fCXhb+TWFgs/6wGXkDNYMm4TtviV2/7vxGDJJ+cxu3T3QyzilcEPG7WbF9a+1gRN70Rj+doArL5UiL5Pd8Wy3hVf9HsoWHrAyUL8jY5EWNEu4yq2FUPxN0qkyf1WnnCW8wjOTVoowWFjOLuKP0V5FOpuj2GoJ1AgFYpxW4vAthQdpmXTIAvXL13CFdGFp4p9DblIDNL2+186jHMBBYCeN1ycROakKERmySMRGrvDWSXyR4Ur5fGEq5sBCqVkhCnjK+r8j51DiJxFh/nSqTxiLg0yAyvMc+LPqygUx3U5IG8x/wd8s+QJdHHRw+3wGORaNEOfF7/C4qkOYhwlqlqGupVHh3k39IKLvfh+VgyuifTrYZkw8uyCicu+w/we2u1V7eeL18ZtxbYQK0z+bCSGuP19x1QiIqKHDaMyenDW7rCFCFqSlf4yPOAgTkCTUiKUfnog+j1h75yF2AAf5Dt0hL2Bkv53yItE/NUDiLp2qKQLC4NUDy7eZJ1/Dr+82wlHz8cpKX8P+W52r7nd0ST5Cr564zJCMypYdtn3cPZcAg5dSCrprt1D9kO6nFv1dkarjCi8tTwYP5+Kw3ffX8RnfnoY3McODf/Gi1F/SRMPuIg/BZHhiNSmiPjXA47iT3ZEGOLkZS3yOIkw8969HOh7N4W3nMdGBM7mQI74XtGWIklq9Jo8HPYIwtUrdwFzK1jrKQNlOkwrcdtreHbSJEyfMAu7Q+UModg+e4Im7dlJ87A9XJTHQ4xHvhEdHYlwOYug5+WmGc/tiFDkaLaPJnCTJ5a4Hx9OKPq+0r21G2k6zpcu5VGr72DvIjnPTOzSRNaR2P2yNs8bP2oSgEZjMHtWWzRMOYalwx7BYyMHYsLbR3EPjdCl3yOlagdUvQx1Wj66zHtjTziJP9LF1XhW5HlicB/M2RAGlVgi/UZ0kEesoc5IxL43DuJwihMmvNgChg/rdkxERFTL5F9UIp1JkhmGT/LF5gVn8cvjk2Gt8sKkZ85r+n+a74vXW8m3uwRDN9gbFiAprzGmTdqBdS8ew6onP8Zwm5K7hXJ10ZGTfbFu2ER0678WX8z+A9+9sBkvd2gBg9InY4YdMHLoWnw24xi+n70Xy8bMRhsj7SBJ6ojnZhzCc65ylU8zDJ3og5+enAl78X3JZBqWzluJ/g10O7GTDCbg7fmn8XL7/pWWWcOwPUYM+Z8oz1FsmPs7Pp3wKrqbac9ka7M8Gp5dYKt3A7d9/ZGi3w72nkq6wn1KIKbPmgeXAT9g3PuBeOKd3zFwSO8yQZkueaojSe5oNesannr5FVgUV21uinbzbmDanNkwLUoTwa9Jy9cx8KXTmLrkKh5/fRf69u9RUuVWkKQGMG37DgYvOIOpSwPx2MKN6NTGvThQkFVXZqn1Sjz1cSieW74ezRoB9iPPVNhUwajPtjLNGCaP6aZJL00uj1n7DzB04Z+izFcwWZSnazvvCsvjNngTJiwW5Xn7EAYO6nX/MmzohW7d9XFj+0WE5j3Y4VXq2Q43f+2MFzo0xuavBuHaDwPw+6LG6GFWMi2d8oiPjXu3wKYV/eG/cRD+/KwzFvc0KrsudBiPq43YpxMyESTffBXU6gIc3uqHN39Pg742SbdpiW2j56SO+P1/gxH4XR/8MMEcDQuVgQpJUsGzRzP8+Gl/XJGbGKzojLe7G0Kv/HKuRkMRNMt3lpMiQ5GrCZrl+NcNIv5FbMQtTb+hyGODdAReCQOcG6OpfEwRQbscX8ZGiuBW+R4Mh2D0YFsg+CgOBN8TEbmlfOO6mC7TKuENF3kCuVGIKn9dtLG7CFGBu1HhuKOMx9nDFfL1vuii8bh5wFkup1zLQJtyH53nS6OK8hQTeeRaAwVRiC43Ub1+fdFJbB4Zx3/BnihtrZqUU99j5aefYu2uQE3tAI1qlmGJKsqjw7zrebtpluHtyDDkiWmr1Tm45BesOTrpGZQ9jqvzErB3RywMezRGxwoqscjbq8PMg3j2QAAmzexR5nhARERUV5U+CyDSQS78fN/AZ7sX4aebd1CYcRQ/iM9y/4o9C/FriFJJ3MoNduIE1Nl7GApvrcePpw7gtkk/TOk/CRbFJ1FemtoBOXb90DXnELYe+xInUqzR9ZEX0UcEdDJJ1QwTx3+JSQ7JOPPncnzrcxz3nJ7GvP6DlMCiEFKhCKzlIMKwH9pbZiJTra85YTbz7Ar3uDO4kC2PSQeWrqLMGXBpPKLSMkuqxhg//itMdkyDr+9nWHtyN+5YTcScYVNhW9vlESy8OsAw5SoSYi4hKdUSdl4tlSGlmI9DC0c/XN39Li4HZMJ+wJfo1tZMGajQJQ8aQN/QDHoNTJTOGCqVdr7V6ggE7vwGqbbPontPbbt50+7voo1DGPx3/k8sNe2hRM/9FQx+cjrMbu/AuR3v4LJ/KuwGr8WAXh6a4TJ9z0UYPGUyDKM24uz2xQiMtECzKevR0aNctYaqyhzxPU5uno9jP61BnFieqRfeE5/l/vk4fmBfcVOFnKufKE0Y3kXIHSWxHD2vtzH4sbFoELEBZ3csxfUIc3g//h06eykXsoqI8jR3uAT/Xe/D/6YEx0ErRXnkEK8UT0s46GciPLCKxhIqNYwa6cPEUF3cNVCWcwljjB9shNM7r+LdHYnIbdEEXzxhVyaYri6PYauWWP+iM8yCw7BkbSA23DTAuHld8War0retZVWPR0+tEv8WQon9Ne6EJGDrxUxkKcGdLtMy694CKydbIeNcMN79IQT+Xu6YYKMMVBi2aIb1L7nCMiQc/xHjWS/G89jLXbGoec1+qrw93CBPOSb8pjZB8HB308xFVKj2rrWnyKNGMgJ9Q5Cj5w1vsWsZaQJnCTFhJUG76agJeESs5puHdiEwPUOkWMK61GMKdJlWMWMvuIgYGHGRiCi9QAV7TzexJuQAXXPrW8PTzUWMJ1OUJ0GbIIJ4Z/EnPTIcqWWC+BK6zpdGFeUpZuQFZzlPfBQicrRJRVyaeEM+VEeG3Ci+qKBOPIMtq1dj/f4gTb+sumVYrKry6DDvzmLe5coTMfJFDoWTo73m6HQ7LkqbUErK1QTc0beAc7mLqlr6MLKzRwMDY5jYWEPeC4iIiOq6mp1R0b+eWp2NuOgTOH/rBJILTVF4+wKO3zqGi6EnRHcGEdnaTcrAylmc3uUgwOctbPLbi1P+y/FLUBL0zJ1QfM5n4A57ceaYdetrrDy9FT5B27HhzBGk6tnBWj4LFvQ9p2KYXRh27nwd268egI//Z/j5ejyM7Vpp7vDIQYkIyVEoThQNvXrDPfEqYkRwpYeG6ODRFmFhx3V+5oCBtQusRJkDqyizQZNnMdomGFt3vIqtAfvhE7AKqy/6Q8+xLZpoctReeSTJFI7ujVEQ4ydO5a8gKSYHFu7dytaKkKnP4srmFbjltwNXd87H1RhxMtu8qzJQoUMele0zGL3UH08p3bQl5/BIC2WgIMWtgo9PNOwHvQUPqxHoMrgHss68C/+Yknb0dh3Hwjx5E45v/lRMaxeu75+haa/r0G5I8V1yxy7jYRazFse2rEKI31b4b5mFq7GeaNq1r2Z4sSrKrM64hAj/PQjzO490MdqchCOafk0XHFzcVEFKPqdpvhBx1Qdp5QKXIk6dR8M0Zh2ObV0tyrMN/ltnIzDGDY07P6LkUOhdhP8meb624cqWNxGUbAHHph2VgYpGDcSazsHdNKW/Ik5e2PbjMPgXdRsGYVknZVgpp7dfwerj8di+5yreO3YXtq1sUP7ST1V5HunnBBcRfM5eHYptp+KwevUlfBveCGP73X/LVZdpVUWXaXXtZAfLsBDMXxeGHadisOLzEJwvdx3ikQEucBd5Zq0KwVaRZ9WqS1gbboxJA8tdJaiCvJm5uTuLPTFVBN/aNkly7Q53dzvxKR7RoTmaPB5ucih5GwkngxEpjiaezU3hKYJ2FRJEHu0VOrl20ojxfWBYGIjDO4KRnik3xreCpRygaoZXP60ymogAtkwb/hKe7vLtdZFl7sHiB9Z9MVFuvB+FGCVmt/Jyh3z5y3zC2uI8cvfn6jGawug6X8WqKE8x5bkDiI64L4+Xh3xx4i4iQ4sbPNynumVYRhXlqW7eZZ5urqI8WYgNVy6WCJ4eclouYsIrqNqQKvZVGMBQudhcmlp9DyEf9sWmZ/pg80d76kXzJyIiIv6a0QNygYO5AVLTIzXVK8tztnCBKssX50TAWkyOi7MzUBwXWbvCThUHv5vX5TMtbZr4I+WlIFP5WhO3dmiU/CfOp2r7i0l5yNN8KBT/iZNeEXJ19G6N4LDLcv1O6On1QFvnKFy+FavJpQsnUWa1KPPZKsrc2r0jGt4+i8vZpjA0MIZhQ2e0tHcE0mOVNsK1Vx6oe8DeVQ8pMZdQqC5AUnQQVC6dYF9+caeEIk25S6ZWRyIztQANTUXwoZwQa+iQpzDlN5xaOw0HlO7guucg1xwuIlf3Tjr0Lq5nD0KXF96Ge+4WnPn9XHHVXrnKtomlvYg7biFZGa1anYeIn9vjh2++1bRZliRjmFpaICcpAtlKLQMDwzSkJaWhoaVr2erduszXX1RUnrzbocV3sdXqGKTezrq/PMk3kaKUB1IQ0kWs17CRpZKgEIGLHCdVKSkaby7xxbSibuk5rLqhDCt2F2HRykchIjET9xoaiJCptMrzyG2sXW0NkBWfhZji+cpBSFw+LGwblXtwpC7Tqpwu05InZyeOFwV3shGl5EFBFkIStR9lReNJi7uLNKVmhFmjPITH5lVQ5qq4ws1NrrURiajim/FN4OYqplsYgQhNmpvI0xDIiEH0lSCEZang2awl3F3lFvZRiCy6Qe40CSO6N0DB5b34TewL6Zq71mawsC6qpaLLtEroe7ppLiTK1dK1bfi1JMkI7m624tiRixQxLCJM7uKRIc9ybiQildhavkBQKI58ScFlH3h36lzRnXcd50tRWXlKU3u5ap47kCYC8swyZbYW05JrvkSVmvcKVLsMS1RVnurmXZKs4OYulyca0cqNf3n/dnOVL0DFIjq0aOctr/KdVi2lIzMqGrli2yQiIqoP+ItGD8gNDmbyA/2KHk1VlpOlOF1MiRCnxFpy+0lHcxsUpEWi6J6MvpUrrAujEF+qOrY6ajnmrZqJ/ZnyyZyBCMjtUSDGU/LwLT04mNtCSo1Wno4uobCwQPzbA52cg3Ap9B4ktR4MnLuj1T1fXEzRZNKJYwVldrCwLi6zfHLpKgJFlcPz+GzuMayXuzk7MLdxAU77bEKY5mS19soDl86wbXhHnAjHQqXSQ1ZUoAjKOsBebhNbhnzBoYTm833nszrkyY/F7ZunEB/io3S+SL9X9hChls4hOCBcBPmOSPP/GQll2rWr5RrtYuSF4ly8skOLAcSswLDjV8U1DORuQEdx0q6nr6k+XUKX+fqrtOUpLBdYFsrtNu4rj1i3yif5s9yjUj1AaXKz4e9/Gz5Xk5UuFbfE9l5WodjelI/CnYMX0WpGAI6VWa5V5dGDvma+Si9BeRsW/4j0smGXLtOqio7TkheV2DZKK9unHY95704ltSJE91XvBhWUuSpKu/G7ItiN0aZAzwsu8g3xpAiEy7EnGmvbsUeJ/V26BhFrw967O9zsRCCfEokIZT/1eHQsWotp3zPtgYWrVuGt0Z5iNlSwsCm6ba3LtEq4ieBWng9N2/symohAWl5AF7B6ZH9MGDgQ40atxDU5KUaMR8St2hoFcmgcjd8WlH3g3es/BMsjEXSbryKVl6eEqwi6tXlKmiNoyWUWf3LFeCv+GdCofhmWqKw8us67qzzveSL4L77Jr6SJ35nyFz5KiK2w7IZIRERUb+l6dkdUViN32BveQ0JqqVt3CklygINZA2SmRRTfTdW077dUITE5rPhOsZOFM9RZ0Yit9O1rbrA3V+G2CL61d7VkHiJI18Pt1FAUaNLkszbROfdBy6RTuJgrAkYRzXm5d0Fu2MmSu4zVkF+p52hueH+ZzdWlyuwOWzNxYnr1A3y4ba622/IsFn77KNYEJ2m/UkvlkRl7dYSZyhotXriJ6R+LbsYUNFI5w95L2+ChhHwqXULzWQRiZc9ndclTPclsKrp1d8XtsKsw7b4ITUs9GE4MFQGg+CMCYqlUNCmpGkCtp6ek5WmaRGRf/6S4hkFxTYPd+5Cr/YqidspcNW15VOXWi0pu516QX6adu05y88UY9SusRvzPKkC+Zr5KL0FlNxLp2lozutG8mk0sfRG/FbNubI/Hu5god+N1nJZmNGXzlO3Tjift4rWSWhFF3ffxSFdyVcvSXfNke8RHo7iVd5Mm8GggNp+wW9pXwtl6wkXsy7kRYfL9cNy8lQ6Vd1e0l6s7KFXO5ffSjxvbSvMjadqkD4aMHInBHbWvr7Owkqv1C7pMqxRPd7mafBaiw8q9dcLACy7yqBNLXTBQqsBLojzasLsJ3OUaBVIkoiqL1XWYr9IqLU8pHpo77rmIjShXtb+RB5zk+D1BzLtyDJfULTB03jw8/1QvWIltQ6dlWErl5dFh3o3EMpRHGR+JiKLfFLMW8JAnF3UTQfe/kRYwMYCh2O5yK2kSREREVN/Iv8lENWfpDGskIKnCO9meImgW54Qppe4U6XnAwVSc24qgvYimdkBaFIpumN2vAfTLbaFqy35oa5GB6xGBSooIBgvz4ObWGQnhJ5Ahn3CqHNDGvRH8Qq4oeXThKYL/+8vsKE6kS8qshp4oT1byRQRGndd0AXHJMHfoDDfDomC3dsqjqSnh3gqFMRvw++pHsVfTPYuA6EJYu/eAWhN0KSy9YK5EZpLkBhMLPWRnJCrRl0KXPNWQJBs0Gf8qHNI34sx37+FaRjd0Gv9YcVt+tboQmSkJgE0TWCmjle/YeU25gKdmTIf8oG61OgsZKakw0MtAklLLIPamLzJyDMSiE2fsNS6ziBZFUKnWkx/zVXOa8iSnwMDGC0bKfEiSI8xtjJGdHKlcYKqByHQkFZrBqYl8//L/j1otITIxF8YOxnAsnq+G8HLQR0ri3VIXuKoXdTsbsDdB0+J1ocbgSe3xn0HmmsBel2nJk0tMy4OetSFci7ZdPWN4l4r/5PFEJeWhkV4+rig1I075JyP8ngp6hYX3tbk27P0BxnyzBT16lnsegImRCOiERhawEKtBkgzRecoIyI+cvHHqqPJKODfNw+NiI0QkKfqDboqw2KEtWony3IsMR6JcZuW99Ll/vIW+Hh7o5OWFDhPXa2ohWVopd611mZZC3n9cXcVBENGIue+qgCec5U1GTLvoJrqBl7u2CnxEqLZpVVGNggQR3Fb20FAd5qtIleVRyM8dcXWVnzsQc3+1+YYNNQ/Xg5kjXMRo5O3CfeoivLFgAaZ1sYR8DUOnZaiosjy6zHsTd7jIV5OitM8mkCQTdJr7BDrri+Vx/CCuazKV1aiJDawksc/e/yxAIiKieqns2RSRrgryIMEGzVoMFyd0/UTXsyQAbuQGO8McxCeXat9u7gZ7vSQkJGtvv0iSHRzMjZCVFlGmHWlZYbiVmAn7Vi/hybbD0av1TCwY9zQc4jdjf2TRiagIrgut4GmXiss3k0QgKIJvdUt4m5zFpcqvKtzPqPoyi9N5XI/LgneHt/FY62Ho3mIKnhm/Fu8MGQHb4vPiWioPOsHOrSHSbu1ETMQFJGm6E7h1Kwx6bl3Eki+loCvaPbEQjdtNQOvxX6C1cypib5xXBip0yWPgBofWw+HacmhJJ4KSogsNRu0Wo0uLbAT/9hnu5Pnh8p7tyG+xCN3blZQm6fIepFo9gf5TXxHTGocWI9ahS2sV4vwOF7fhjTu/E5ne8zFk3AvwajMGLYatwdDZq9Hes9z7tnQpM24iNTEflm3nolm7MXBvKzpPd3kD0wQjxm7a+XBv3QvmYvR6lp2K583aVDtfcRf3IN35eQycOAfe7SaizcQ1YlqRCLngoxleI2lhCLgGtBrZSnPns0KGRujW1R5DO9uWdC1FEFlZ/gfkczIGkV7eWDPbC5N6OWL27I543usudp+o5LUHlbh2OgaBJq748JUmmNLbAc9O74QF7Qvw+8nE4lfb6TKtc5cSkerpjc+f98SEXs5YsKAJepSrxnH6WDRi2zTD+udEnh72eGpKB/y0pDNmtSx7jJAvKnmMmAanxp3RdvTgshfDYs4hIEaM2OFRfHr8N2z8/SRWPe2FgvDNWLlBG1o3EoG1tdhXo8O0jdVjgm6JYNUUpibawFnedrTvpc/Fuf37So5RaRmQH1dnYm2jfR6EDtMqUVItPeq+QdrX/GWIQD9ZmVZRFfgYOZCXuXvARY62zQbgtR07sH7btuLu7bHaBytWN19lVV4eyWYc3hfj/WHHZjzZRk6xxaAP5WmuxmONlWWdchrnr+VBZT4MH5w4hp8PncbmJX1gmnUR677ejxzo67YMi1WxfHSYd33lYonU/Cms2rELm/84hTUvtAIit2PZynOaiyGlyRcH+o1wgepaBPwqqVYiNXsTUw6HYsyE+5soEBER1UVlfw2JdBW/HdtvxMGt02K8MnYZFo55CV00t8AE+UF+iBWBtNIvs9KmxRWneWhe85eYUq4qaSnymwV8T7yL3+LN0b3Xm3im5yCYxv0Py3Z/h+jC0puuCRql++Cs5gSuEJKhGdRRp3G1JrGUlZs4va26zPJdYp8j7+C3JFv07v02ZvadgqZ5R7B6yxJcLNP2vRbKY9cNdqapSLjlryRoJQefQ7ZpBziUPhdN3Ynr8R3RZtx/0KGNKRKPvQzfgHJnszrkUVkMR4+n12BQqW7gmHGaV3lJDQag66gRgP/HuHhD+xq7/Bsf4XyACp6j3oFzA+3M5Yd/iiObf0SG7SR0mfQhOrYzR+LhF3D8TMnZfH7YMhz+ZQ/yGz+H7o9+hI7tbXHnyAwc9yl3+02HMqvV8bixdxli1APR9fEvMOCJL9B/cH+linojuA4rmpel8BYxglHLV4vnra23JhPyQz/CkV92I9dzOrpNeh+tPDMQ8stzuBBW2S3GysnbyOG115DetgfmzXUWW0IFK93aGe+93gVrSnfTnaCtDF17sgNv4LmvYpDRzBPvzWqNZ5rlYfdX5/DxtXJ3cKtRIALS2Z/dQoidK15/oS3mdlbj1IZzeON0SV1pXaaV/ud1vLw9GWY9muI/z3qjc1QEdhS1llFkXw/Cs2I82a29sHhOOyx8pCECtp3HvH1l62yr1bmIv+CLu9l3EHP+YplaAWpcwpfPv4Hd58ORY9kUHhZZuL53BV6e+j7OZ2nzeXm4QoV4RIUo6/hqMORm4vLr+WLCQwHDwRglv5c+508c3V/q1Q1pmcgUf1RW1pp3++syrWJFr7ErXS1d4eThpqkZU/w+f0H7gLt0UR5lIclP3Rd/VMbOaNGxI9opXduOrWEmaQ9S1c5XaVWUBy26oo9m/K1gLwqmEluyS1t5WmKuleKo1SH4btZcbDgRhBR9J7jbi2n8sRFLpzyHTUFiu9dxGRarqjw6zLurp/Y1f3pWXmjboRXcjZMRsH0Z5kx8DT7JZdeF/EDWVnOHYUKbuzix1r/4gkt5ep7eMEUckoJK3h5ARERUl6k8PT3L3Xv5+4lpIkx+EtFDon0vD/j5lL/V8P/nYVs+9PBynxKI/mYrsHnNuuK7sOXpkudhUxfLXER+64HrhKFYsMALhpEh2LH4AI6F1K15IKqvJO9WmLe4Ozq75eLiin1YvfP2fU1Kiti8cBQTx4fg8KjnEVrAfZiIiOo+/poR1XVln5pWMV3yPGzqYpkF+dkHMbsO4q1p+3HAvxBGcjNmIno4mDaA5H8JX03bjK93J1ca+MvPXbF2cwXCA5BYkydkEhERPcQY/BMR/Q1yI8Oxb/nv2OfHwyzRw0Ltdxlrll/G5eLnxlSmKSxc9HH35pUqnktDRERUt7Dav8Bq/0RERERERFSf8XI2ERERERERUT3H4J+IiIiIiIionmPwT0RERERERFTPMfgnIiIiIiIiqucY/BMRERERERHVcwz+H0J80j8RERERERHVJgb/RERERERERPUcg38iIiIiIiKieo7BPxEREREREVE9x+CfiIiIiIiIqJ5j8E9ERERERERUzzH4JyIiIiIiIqrnGPwTERERERER1XMM/omIiIiIiIjqOQb/RERERERERPUcg38iIiIiIiKieo7BPxEREREREVE9x+CfiIiIiIiIqJ5j8E9ERERERERUzzH4JyIiIiIiIqrnGPwTERERERER1XMM/omIiIiIiIjqOQb/RERERERERPUcg38iIiIiIiKieo7BPxEREREREVE9x+CfiIiIiIiIqJ5j8E9ERERERERUzzH4JyIiIiIiIqrnGPwTERERERER1XMM/omIiIiIiIjqOQb/RERERERERPUcg38iIiIiIiKieo7BPxEREREREVE9x+CfiIiIiIiIqJ5j8E9ERERERERUzzH4JyIiIiIiIqrnGPwTERERERER1XMM/omIiIiIiIjqOQb/RERERERERPUcg38iIiIiIiKieo7BPxEREREREVE9x+CfiIiIiIiIqJ5j8E9ERERERERUzzH4r4vUBlBJktLz4CSDhuje3wOj3e4flzx6gwYG2g91RF0sc33FdVE1ebGo9AzEXy6fqkgGJmg+uj26ej/YcuJ2SA+D+r6/SwbOcBg+C16eJfMneY5G2+HdYWzAfe+f9KDrQvL2xsjRjrCqKo+bPWb1t4Aj1ylRncbgv45p6PEOVs49gU8eaaWk3E+CPTr1+hLLXziOjfN98dOs99C23EmHWTNP/PhFf/w03RUtjZXEUlyf+QnHblzGN8+4Kyn/vI4fnMHF0NDi7uz/xitDKlaTMkuSBaZuCcXplSOVFN1JkgcGv7wIk7qaKCl/XUXl6f+5f/G8XwgNwinf/fhsQX9YizX8sKtuXfwdy7AuMe31E5748DKG93rw/Utehu4DF6GZx4MvQ9dH/fHMslBNN/3DADz22lb07NkRBjUMUoz6bCseT+luRB8HJcf95G2+xaxQPDml4n3QqG0HvL51Gt6Y3xIepkpiDT0Mx7GK6HL8kaR+WHw5FOtnOojPwIhvbuDY8gHaYf2W4XhoMJaP0/6Ed/jAB76rx0BqvQi7lGNG+e5C6HHMa/3/c+yo6bYqz3vP97Xbjzzvnk/ewJRJyrw3XYapHwejf3vtvNuO8cFTT4h5d1yECR/fvw3K3fSPj6Ojo3beJUkNo2YLMeClU5iy5KrY5rejV88Oxdu83ZgzZb779LSqf3d0URv7e3UkqQHMO/8Hw1+7hGkfBuKxhT+ic1v3B7pRUJP11aD1bIz64SjGzp4Mm9LZTVqixeyfMPWHH9GutZmS+P/rYdoOdTlmuk8JLE5/eullTJzzJVp5WCtD7/eX1oWpLfrMn4DlW8diZNsGSmI5xuaYPL0Hjn/RBbOa6SmJRFTXMPivY8zMHWFYkIzolDtKyv2cOn2IeW3McPXP/+LLPW9gxd4fEaQM03B0x7dvNEPTqOuYNOckll2/fzMoyM1Gbk4OsnPzlZR/3q2f38Srs2eL7iVsCVQSq/DPldkDvabPxIgOup1A/BWFwb/iXbEMXpvzGr7YlYSWc9bgy3ktlaEPr+rXxT+3DB9K+dnIz8tBfv5f2VY94PzITHi7/bVlWBi7Gcc2zMbRXxbjakhDuI9Zix5tLZShusm5+gmOiHEc2XsIdwtvI3yv+Cz6L1xNVnLUkFtbLPysB1xCzmDJuE3Y4vdgP1UPw3GsNqjF7Mcl3BHn53aaINXY2RHqrBw4uLhqghJHe2skJcQC4dvxX80xU3QfHkCi+O/Ih9r+12a/g73hygj/cQ++rcrznpl+Bw3N7DSBrIGFo9jgcmBipZ13EzNrZKWLeb+zHWd+1G53R/YcQFZhIsL2aPuP/vgObhX9ZDrMweCnXoBF6h6c3/Ee/G/kwWX0d3ikg61mcOrZN7Xj2PASAqM1SX9drezvVdNv8i6GTBwLg7B1OLN1CW7EO6PF49+jo4e+kqMmdFtfkuuzGPafV2AZvgI7nhiIcwEl+6k6YBl+fmISfMObott/vkVrV2XA/6uHZzvU9ZhZGP8rToj0EztWIjK3Kzo9uw4tbbQXEEr7q+tC7eeL18ZtxbYQK0z+bCSGVFAjVH09GP3n+GBFlBlefaMznlEuZBBR3VJydKA6IenKi5ixajS+vJ6opJQlSY7o3qw1MoK+woaAw7gQegIXo8ORI/9yaYarMXFaU3RMDcecz8JwOaviTSD+5+cwsEUnzP85Tkn556XfOInjhw7h6IHDCElVEqvwMJS51qXfgs+BAzh+cA+2/ncGPtmbieaPTbmvJsfDpl6ui1qUdf45/PJuJxw9/xAsn3u3EH31AKICtiNg20xcjbaCc4uuykDdSMnnEHXtECLCopGPHKSHifGJ/sTkXCWH7iTJAL3mdkeT5Cv46o3LCM148J+p+rQdxscnQmVtB3vx2V0E/5EhIbBzchN99rC3b4DEuCioM2/hnDhmao6bZyPFmriH6LPi+KFJ80FYZt38yb+bLn7vjO0gV1Izt3JEelIIjMy1825s1gD3UsW8595CvNjmNNthaKTYDu8hPVS7HUZd80F6rnbebTqOhVXWLvhsXIZbfjsQuHsGLgYbwa3jEKjFcTU34aR2HFcPI+2u5it/2T+xv9u3Hw7j+O9xfMsqhPj9isubX0NQmge82nfRZqhlkmSCpjMWwCFlA35f/A2SMpQBpagzLuPK4rkISO2ELs9PqHGNoodNbW6HOh8zxfE5RhyfIy6vx9nvX8et7PZo0b2zMlCrttaFOiMR+944iMMpTpjwYgsYVpQnKx3ffHYRG9OssOBJZ5jU8XVK9G9UN88E/mUkqSWmPeuLzQvOarqf5q/B4AaVHHDVLeBmBcTcDlYSyjGwx4i2ejj/ewj88u5f/XYzt5WpKnrgg27KkBKDVwbiwpZ5GLRwE3b5BeKPs4fw+YJesFJ+BCSzKVh9IwTrnpdPU0tYPLUJZ2/8iPFmSj7xg9lr4WpsOnUJp28E4PCJbVg8vUONf0x0KbMkWaHL/HXYejYApy8dxddzO4kfNmWgorrySCNXwleM/3L4eow2B9otKmmWcGH/ArgW5ZMawG30O/j60BmcuB6Iw4c3YsEod+iVmi9dylOeWp0L/8BQwNEZrkqNO12mVbS++s37Adsvi/V17nd88Urv4vUlk8fjOe4DrDn8J04GXsGB3zfi9THeZU4QJLUnhi/5CTvOB8A3JBinxHhWLhoEu1J5qlsXNVmG1ZZnzCqcDd2IaQNfwf9O+MEn4Cy2fvcKOlsr4zCZiK+uhWDDbPnkrITVs7+I7fB7jDEpGVd15PKYtn0HgxecwdSlcpXajejUpqRKrSS5o9Wsa3jq5VdgoTTLkNAU7ebdwLQ5s2GqpJWv6jl5TAXbqsoTHmN+wvh3AvDUR8F44p3fMXj4IBgVTav1Sjz1cSieW74ezRqJ086RJdWUp7+8oGR7rWY8FUtHbnYhVCrlBLXBRAxaGoKR/couw4Y9f8HT//ke3pUdhyogb/P2g9Zh3NsBePL9oxgysBP0C5WBpTX0Qrfu+rix/SJCKzhG1cZ2KJPL0/mltdjiGwCfKyfxzetjMGtLKE5+PlTJUf2xTvZ37e/lxcclIN/GFnbis5OTFWICb8LAyRmGcIGdXS7uiOG1SbO+Bq7F2LcCMG3xSQwdNgbtZoVi6qMly6fa/ULHbbU6WakJYn+2hRgFjM2tkBF9E3qWztAX825slou7YriujM0dgOQQpBZo+9XqDEQdfhWnfa9ApU3Sifx74Tx4NUYvuoQn/xOAx17fhp49SpoPyKrb3yWzmRj18VZ0H/YrHvvAF4N7dYXruMOY+oEPBvdpU7IcddiX9dT6QE4GikNH6RIufNkVew5eUhJEUm2ur4ZD0LiLEeL2rEFSBftpEXXeJVzecxENuo6Ae0MlsQbq63b4QPLO4nY8YGLlKeb571kX6rwE7N0RC8MejdGx0jzp4rc5GcbtHDHYQEkkojqj8qMEPURicerYG/hs9yL8cCMOuBeN2GxlkEKtNoahgTEaWXnBXj8dKZnQ9MudgarUj4SrKTwNsnE1OEdJKCv14CdKVft3cTBKSayI4zhMaHYJGz54Hz+ckdB53kq8OkpEc7LUQzh1uQBt+g6BadGPr2SEfv06o/DSMRxX7uI7PfcVPnvOC+G/fIIlr76NNbuS0f7Nb/Dq4AoeQlAFXcpsOvJ9fPxSJ2Qe+hIfL1mLwNZPYaSzMlBRbXkufI/35s/HW/PX4EIWELHzPfFZ7p+Pt5ftQ5I2Fwy7LsJXn0+Ghf9GrHhzMTb7WWDc5+sxr3PJr6Qu5amIq7M4cU1LQbJy4qrLtDTE+prUwg8bP3gXaw9lot2LX4r1VdL2r2GPt/HlZ2NhemkDPnt7KX69bI7hK77D/O6GSg6xfJ5ZhvcedUDw+sV498UFWL4xDO5imb07VVtdVlbtutBxGepSHi13jHzcBWdXieX59QnkdnkRH74xWHsCnr4XB07eRcsRY0tdVLDAkEEdkH96Pw6na5J0ou+5CIOnTIZh1Eac3b4YgZEWaDZlPTp6aJezWh2BwJ3fINX2WXTvqW3Xa9r9XbRxCIP/zv8hQznUFlf13PAuQippuWPacxl6d3VA8unFOLlpAXzPhMGs91d4pKuynCO+x8nN83HspzWIE8eB1Avvic9y/3wcP7APRTcrqx1PEVUDGBiaQc/IGbadF6OlWziCzh7XDsvei1tBd2HbZmzJRQWxDD1bd4B0cz/Cyx2HqmLQ5n30H9QJeQFf4szutUhyegqNK2pd4GkJB/1MhAdWfNu1VrZDQd4Hl83vjrw/VuHj91fjsseTEDH7/ao61gl/5/5eWkFsAlIsbWCrtoKDUxbiL4l+Bxc4qZ1gY30bCTGljvO1QLO+BndHYdAq+OxajXjrJ9GkXHPj6vYLXbfV6kgiqMo2tkEjMe8mllnIjBT95i4wEfPeyOQ2MtN0n3e1phachNLXnXKi9yHk+jUUKDXkdGHa6ysM7O2FtHOf4NSvb+PypWQ4jPoGXUo9REeX/R1oCpsG+3DxYjwcBn2Opnnf4tL1bDgPmgU35SKvLvtyYsh55Lk/jZ69e8NELH55VqTs28jJzVNy1PL6cmsCc/04JFZSC7G0u9f9kaHvCcuy1xB1Ul+3wwch3wAoEL/9Kn0DlGlxX8vrIuVqAu7oW8DZU0moQHxQKmINTNDkoWjOQUQ1weC/DlCrUxEefgIXQ08gqcBE/HJFI0YZJpMkL0x+8ijWzz2G9U/PgKfKHH3Hic+i/7sXD2KWd6mfCSN9NEIu0jOV/nJyI84pVe19ECWCs0oZXMSGOZ9i585t+HbBm9gTbYEufTpqBqnVyThy1A/qLv3Qt+g8yHAQenXVx9Wj+5GqnGDd+WUORvQci/fW7sKpE8dw6NuPsO+6Lbr2bacZritdytxxQG+YB36Pd95Zi727fsWaud/gcrmmkNWVR51wCb/v2YMDu84jLl+shuAjOCT6Nd3JYGQr89XtsfFwuboWr76yCnt2bcV3r8zCxmueGD2lr2a4TJfyaIjArJGZGYxNbeAx6HXMn+CC20cP4IIyWJdpaeifxfdzV2DXrh348e352BxogW79S6p2d500Gk4B6/Dqa6vFeLZh/Wuz8VOgG4ZNfkTJATRp3hgG17bi01VbcfjgPuz6ciEWzHwD20s9j6G6daHrMtSlPEXOrlqA9Vt347f/LcKyrVGw7v4Imol0tToHR3cfRWarERjmrc0LyxHo26kAf+7bj3s1ONF37DIeZjFrcWyLXKV2K/y3zMLVWE807VqynKU4cXLqEw37QW/Bw2oEugzugawz78I/pqSdb3FVz6s+SKv4+hssHBtDL3Yrzh7biojAfbh5ZKEIHt7AdaXGsDrjEiL89yDM7zzSxblmTsIRTb+mCw6GpMxXdeMpovJ6A1OW+uOpxacwekIPpO2djYth2sLJyzDy8lHkOI+AV1Gc0WgE3N0LEH1lf42CJYcWvWEY8z1O7FqLUE215G8QX9HXGzVAQ+TgbprSX05tbIey9vI+GLQBb726Gr9p9sEV+LOic/cqjnWyWt3fqxIbjzsNbESg7w4nh3jEn41DkoMjXO0dYdcgAfFVXax9AJr1Fb8Bx7euVtbXCkSXWz7V7Re6bqvVSo3HPX0RdBm7w8QsHlmhcbhr7ghTU0c00k/A3Qd8tMRfcff8HPz637H44+QuRAcdQ8gfH+FWnC2cm5b8fumyv4tQC7EXf0DwsX1INopH3Mmfce3UEWQ0cISx8vupy76cfWkxTl+8C6dRGzHp/XMY8+xStPCwK3OHuFbXV6NGMEAGciuoYn6f9DSxRxvDQL5lXkPcDnVQ2+siVRx/xRgNq8qTkSumqAdjI6WfiOoM3c/c6P+dJJnDydwE2elRxQG0VhL+ODwPH26bi6+uhKEwxxc/i89y/3+3z8WvEcptYo2K6tk+gMibuFl0Q0EKQkQkYGphqSQACQePIcigKx4ZqL1Tq9+3HzobXcWpg/GaflmOSQdM/99R/HH9Gk77++MP/6OY1RYws6z8abYPQn7OgY2NBQriYhBTtNzygxBW7mS5NsojScZwcrJAengEMuSg3cQEpmZpiAxLg7mTq6aapq7lkak6vYa9clmunMO2tTPgGvo/vLv0CPLE93SZVrGoUIQoMahaHYm4uAKY29hp2rjK43ER47kXESqCMW151OoYhIVnlRnPzRu3kN/yMbz15gyMG90fHZsbIeroLpwIqPzhkw9C1/JoRSIiqKQ/MjIC2YYmKLovm/37bvyR0gwDx7fQ9JsPH4L2eadw+IAuZ0lacnlMLS2QkySP2wx6DUxgYJiGtKQ0NLR0La7erVYXIOnQu7iePQhdXngb7rlbcOb3cygsWsc6So27BcnpMfQcMQON2/aHvYMRMq6LACOmZstZ1/EURm/A4bXTcOC7F3HmTDhsxq5BF6+Ss778a7sRebcZPDpql2HD1kNgV3AKoYE1WYZqGJlaoDA1BllFy6MgSK7Ecj+V5v9K1cZ2KJfHTuyDiBHbT1F58oMRXlEAXcWxrrb39yrFiGA/3wZWTm6wN4lDXGQcEuEkgiMH2OYmIKkWaxwXrS+kRCKjeH0FI73U+tJ1v6gVqSLIkmxgaOEGE6M4ZCaLfjHvJo4OaFSQgKwa1OKpLQUNO6DN00fx5IfX8JR88WzpUXRyFfuHcU1/vwpQKB+bC/Igic+S/HOdny8+q6G0vtFpX1ZDHCO3DMW2L2fB99QJ3LMaja7P/4oeTbRXEGp9fdWkjUSRGn6H26GO/pZ1ITLokoeI6hzlaEp1gxfsRFRzO6XsI5vlNotxcecRGHUeGTATP1BXcTbirKY/MOoKEqtoA/bg5NOUIuIEt1D8DKhK/RBEHsCp68bo0q+Ppt1d1wG9YHrtGI4pJ7ySZIZx//kcU73C8dNrz2POtGmYPW02tlzXDq9dKhTKRSssfeGjbLXP2iuPAfQMRJA55iv8obmAoO0+GiNWnIE+tC/Qqb48RQqvb8SroizzPj+Ne4U38fMrH+F8etH61GVaRQrLjF8zaVEG7RrTjqf8O6gleaWWGk/sD69j8aZbsB7yPOYv/xbfHvTF4cOfY6hLLZ5caehWHq1Cka58FFI3PIVHurwGn+Ig6zj2H0pA4+Fj4S1OEgcN7Ya8P/bhmK71PDUMoNIDDDt+pZzka7sBHcVy1tMvU/1SLZ1DcEA4TCwdkeb/MxIeYN/LOPM6/vjzFoxaP4+uj36LkQt98fgrn8PDombLWefx5EQg7uYpxAcfwI29z+PsVUu0HPUcjIsWbMFxhAQkwKrNWJiLZejeppuIgfchstI7mRUp2thKb4UVb/PVqZ3tUNkHy6isPFUd62p3f69SQSwSk21g08YZDimxiEMsbt92gGNne1iKyD9WyVY7itZXaeXLrPt+8ZdJscjMtIGRszOMs8RnMbdZGQ4w9rCHYXqC6P9nyb8XTSZ8jta24bj66/M4IF88Wzsb10pXyatFuu7LanUhcuJ/x41Dr+PQZxNwKcYRzQY+joaaffkfXF+VqfFGz+3wb1PtuhAZdMlDRHUOg/+6RN8N9sYSElIrvmUkSYZwMrdCXloEKm35lSshD/po9DdX1ZLbQB89EQzzRwagIzqjzyN2CDlxCFFFQRm6o3sPY9z8eTHW7DyGsz4+8D11AbE1Csp0VQiV/BtV+uKEfFdF+aRVW+XJk2/gIO34J5ituYBQ0s1Zsg/ae6W6lEeRFYlLp07h9KqvsS++OSbM6FfqToYu0yqiKjN+zaRFFKP96daOR9sWtoRaLTLl5Rc/QEpdEI6D/5mBpwf2QJ+WrTFi0mJcMB2P+TN7KTlqi27l0YU8irM7DiLReyhGdBuCvt3zcWb/QU3NCd3loVBEf9nXP1FO8ku6g7v3lSmPZDYV3bq74nbYVZh2X4SmysMta0JdGI7wfTOw79Me2PRua/y6ejHiDcejS9+aLecHGY9anY3bseFQWXvIlxGVNBFwXzqILLuh8PYcAnevfET7H6xhjQaxpWk2ttJbYSXbfG6+WOL6lVY5rY3tUK6lkZUhdm4zc1gU708OsLFSPuqsdvZ3qeVkvP7hDHQq8xRAfejrA/m5RVuYCPYTjWHVwRs2sbFynRckJDiieTtbGMTHobbeSieTl0/ePbF8jMyVwFHmAKOS5uyC7vtFVSSHyeg6bgbsDMrNu9i8pPySeb+XYQwjN280So1Fupj3u+mOsHGzhV5aXLljXdW0FxXLLv8GrqPRuFWrGtwl7g5nb2Mk+y6Gn98xxIf4IPbmBbkm9N+iun1Zkmxh1+FJuDuaavpl6sJQhAUFQW3tqezLtbO+iontUoIhDMo/hqUixsYiRM8R27LSr6P6vB0+CPnBhnp64oiSL447SppGba8LEwMxtgLkVnWBt5EBGompZtfoIjARPQxqcvZG/9+sXGGrSkRCcmVHWy84WAJJKRHyr6aSVk78XUQXNkJj97//Ov/NA8cRZdcTvcb3RWfnMJw+WPo2eg7yxI+PgUGpx8k26oyWRW2zyxDBQK4ElZ5+8dN7a0KtlpB4OxV6js5wLvq+fjN4lnlQTU3KU4BCMRoD/bL3oGVqdRZiY1PF72IGAkXQfk5zEcEXkZkGUEv5mraFupWnLPmO8qZNV2A95nmMUdpe6zKtYq5e8FbaGEuSGxwd9ZB2O1EpTxaiY1Jg5O4Fe6U88isjPdyNkRYTqWkbLye3eXIp3pjWUbMO1NI9xF/YhCNXcmHt5Cr6lfnQWdXLsLry1IR0bhsOh3uiz9tPo1PuCfz+e8VPqTPs/QHGfLMFPXraKClacnkyUlJhoJeBJPkOueZE3xcZOQbyWZicQZNPkmzQZPyrcEjfiDPfvYdrGd3QafxjpU5aqydntem2FN26ddT0qAvvISt8E0KjctHIUmwgZcYlTv9EUKnWu38Z1mw8JeSTS0s7FyA9AWWayodtQ+gdT7iNehqOBScQeq0GT/oT5G3+XkYqVBbOJTUK9JrBvKSlUInIdCQVmsGpiVi+5chfra3tMMDvGvI6TMWCRzvAwc4NXWa+iAFlX1BSrVrb31Ve6DHleYzoVursvWkbNDVOQ0z4bSUhRgT7+bBq3lwE+zHIVt8T/TloJg5SuYlx5ZqC6aaybV52O/IaCtymonPnDjA2cYND3xfhUfKMUJ33C63Kt1X5d8u5+/Pw9iw17/ZtYNkwDel3SuY9Kz0fjRybQ50aI5brPWSm5cDKyRsFGXHIrcG8Z6XFi99SL1goP4Hya9LcBn2CXl3bilCmtHzkF4gU+Sn6921XOZoHr6n1S/1eNOwMW/lVDLVMnnT1+3JDODyyBD0H9CveBySpISxtnYGMRM0D7WpvfSnEsTij0AmW3mUi8Qo19G4CEykGGZXUjPg3bocPxKAbbBzEKr0TKmar1LRqcV3IGjWxgZUkjsNVNE0y8zCBg3QXUX/zCw6IqPb9zUcq+qskw+bo4NUPnUTXpWlr2OIeDK0GaPo7ObuUvVOh5wF7EwkJKaFKQgXEicDJm0CvASIALP1dQW5f59xpKPoPHYqBw3vBVfyONHDupOmXu1b2ZfNXK+AQzkS7oc+Lw+EZfRLHApR0jYvw8UmBxxMf450ZEzB88gt468cZaF7BpXP56v/1a6LQnSbjpcdGKeUZgGbW2va0upTZ7/hppLV6BkuXvoBRYx/DrK/norN8N66Y7uUBbiI0NB+NR83FpLFjMHSM6Lq7F590nf11J+J7zMeX8rRGj8Gjr6/BN7+uxjNdS04Uqy/P/SI3fo9T+b0w5dnWSopu09LI64rpqxZi3NgJmPbhF5jaKhW+x88rA4Hz2/Ygus3z+HTZHIwZOxHTl63BE20icWCrj2a4fJ6RY9cZ49/8LxbPnoTBQ0dizKzlmN5HDyFX/TVBTs22n6qXYXXlqQm1OhC/HbgJr7ZtkXdiP05VELfKQa/HiGlwatwZbUcPvi+IjDu/E5ne8zFk3AvwajMGLYatwdDZq9Hes2Q5G7VbjC4tshH822e4k+eHy3u2I7/FInRvpz2hlZePsdtQuLYcCvfWvWAuvqpn2UnTL3fWpuLEXiznfLPOaD7qv+jVbxLcW45E477L0bapHlKi/bUrothNpCbmw7LtXDRrNwbubUXn6S5PqGbjMWoMl9bD4dp6PFqNWY+eHcyQeGkH0kvlkZfhLf+bsHRri4Ib+xGdpwxQqK26aufL0wX6IhAx8xTjE/12ViUn2fE3TiPH+Rn0lZdhu8fQfupcOCrDykgLQ8A1oNXIVmVeqSeTi1Rb22Hsxv/gm7NGGPrJTuz1PYblg6NxPkgzqEZqZX8P+BV7/Mww8r/f4qWnJ2DE4y9j+Zrn4B66Ddv+0GaRq3THJSTDxd0dt+O09/njEpJgYWmJpPia1zevbpvP8P0PLoUawfvRnZj8zjEMbBWN2HIPi9Rlv9CqfFtF7K+4GSlXo/8WHXtMgGfnlzFg2nOwSNqGIOWNtfK8Z6Ymw8TGHXfTtPOemZEEI2NL0V+zeU++tAd3Go1HzydfReP249Fy9Fp0bHoPEZd+L1ObRf7duRMrfnc8JqNTl1HKfjoAFsbycrqI6OAUWHT/GD16T4BHpxfQ47kZsCp1bNFlf9eFXKTq9mW1Ohoh589A3fp9DBs/G97tJqL1uA3o2b4hYs/vLn7ORq2sryJpRxBxQw2XYVNLLuhVQJKc0WxIT6hunJSv693n37od6nLM1BDHZ2dxfHbv8Cy6PfMJGhv64cbZi8pARS2tC5l8MazfCBeorkXAr9I8DfF4P1uobybh6N9d3YGIap2epaXlYuXzP0ZME6mpyvveHgIObhaIj3p4ylNaoxbvY9mI6ejZfDB6ujhCrbKEVxPxWfR3NQzGzhvibFWpTlpoNRAT2juKk4BN8M+qsEKtyFqAwNsNMGmcJ/obpuBwwF3cUypAFhYaY9SKffhg1igMGTUAjc0BQ8+e4rPcPwoW17/A7zdU8B7xIgaZ/Ikft1xCjph2YaE+Wk2ci155v+PbvTc045KpVPHI9ngUT/V3R+Luj/HFyZJWqSpVLm6eC4C6RX8MnTgRAzs74M7WT3HKZjw63TuA9SJYKy3J7ypyWo/E5KefwNhxozF4VF8Y+H6DE2EmOpU5J+gcgvVbo/+EiRgxoAVw/H84ZT4C7bO006pJeVSqTNwIvovmQx7D5MfHY+jwYRjgHIlN2y4jTyyPvGhf/Blhi24TH8P4SSPRyTUbV9a/iSX/C8A9ZV1VVx6Z57DZGGJ2tmQ5ZwfjtuNEPD3RCTc27EdEgW7T0qyv/I340r8LZs5/En28cuD3/Zv48IdgZCt58qL+xNkIO3QZPwljxw9Gc9NIHFmyEF8cTYSk5Em6eAl3XHpi2KRHMUZMq0crU8QeWoaly44jWZRF1+1HVu0y1KE8hc1G4oVhDXF61Q7cENOvyu0cL4x/1BN/rngTR8Puv8oi7xf5Ft3EiaMREvd9jaAbZR/bXJDii5jbtnDq/BiadR4JR3GWn3j6TZw+GYACUR6pwQD0mv4KzILfwbFj2rSCpPO45zAdHbq4I+ncAaTnm6Dx4/vQt/8oeLUfAKtGgIFtT/FZ7h+FhjFfIDxehbvhl3DXsie8uzyKpmJaLs6myLy6DKcPHkdOqYbq8jK8E38X1q0fQ4tu48UJ/zB4WEYi4MJlFIrp6zIe81YiUGjWCZ5i+p5t+sPO/C4SfN7CqeMXkV+uUv69PC807eKJ6ENvIvJO2WVo2OVLjJk8A15NG8NA1QgWTbXzZJ62GTcjtC1hC+LP4Y66Ndw7TUTjli2guv4/RDYaAfucA/C/Wnr/ykNEvDF6P90B7Y3icPF8OnJLlaW2tkNVQQIub9uInXuP4Pi21Vi56jxcHp2Bjun78MOhEM20dDnW1cb+rlKl4sqxy1A1H4BhIs/Q3t7AjW1YtvBTnE8tWdZ6LUdjWl8XBO36Lw5cLUCu9xBM7+eKkIMrsOdS2dcaFNo9gilTGiPs5x9wLrHsupRVt82rChOQcGEjgq6IwOL8alw8cR5mnWfA4d4+BARql091+0WRqrZVqNOQeF1ss44D4C22Da9mYt7jt+HMr58i4V7JvKucR6NNMxckX/4vQmMLUGAzBG1buCIlYAVuRZabd9NH0LJ7Y6Se/QFxmWXnXcq4IILHhrBtPR7NOontzyIV0Udehe+5W8XHliJ3I68i32kkWvR6QuQdDc92faEO+QbRyXlICQsAHPvDq/NEeHg44N65TxFlNh6OudrtWd4Oq9vfw1K6oFnvViLA3YC4nA5o2q8JUk9uQVJDUf4ebrhz6mck5ei2L+dEnkBCtguc2o1F445DYGuaitjjr+PM6cDidVEb60s+thTluZ1gh2ZTpsPN6ArCLkWioNwxQ4IVnGasRb9+YnP+9BWEJBQoQ0r8W7dDXY6ZFm1ehFfj9vAQ6e7N2qNR9llc3bIQgeXe9Vxb60JCQ7R6cSSeHQT88eFh+Ja7yCKTYIBeT3TEhz1V2P7NFexJKjsdInr4qTw9Pe8/E/6biWkiLCxM6fv/176XB/x8yj5Ery7Sa/oxvhtqiPWrX8IfBSV3MMqTLwy3GNIe66Y7wDguDitWXsZPkZXnp7pt8MpAfGS3AgMmrytzN/ffxHXeb9jxTDAWdlmAU1XsG1Q5kwG/YdIjwTi8dAFiCv/eZShJKrhOGIoFC7xgGBmCHYsP4FjI3z3NVlh44jcMPPkoRn9Q9DJNKiIvny6LfoPHjUex/TcuH5K3CT1YjVmJ4XMGo0H07zj30WxcD9Pup5LnExjyxkJ4uWYhbNUMHPnteo3ffFIRbocV+6vrQvJuhXmLu6OzWy4urtiH1Ttva2pSlSa5uWDN3GYY4pSPw99fwLzDGTV63SsRPRy419ZxkmQEZ1e5ScAUzOzeC7lhh3CxXJXc8uRjddARPwx97SLW3QBMq28mRnWdSvP/v5IkeWHUiFZIO7oPPtXsG1QxeRk2btsK2df2Ieb+G0a1Tq5eG7PrIN6ath8H/AthVPIcs1pl1bK/tjnAsDGYsnQJxngk4vzJMu2T/tUaOvTXVlNvNQYtxy1BU+tExAVx+ZCW3DQide8cbJn5IvyuSmhgogyQmZiiMHAdDs4cisP7gv5S4M/tsHp/eV2YNoDkfwlfTduMr3cn3xf4axjroyAoBC++9gfmHM1i4E9UR/HOv1CX7/xLUk/MmbMCPVVJiIrcho1HvseNHB6QqYTmzr/9CgyctA5p/8Ifa6n5q9i5/3H4PdMVS09W3h6SKifZv4qJCx5H/Pqu+DO4/izDnssuYOVkKxQW5iIjLghnvv8AH627gEye1Go4TryAYV3F8pFykZsWhOhTH+DPUxdq+LYMor+G2yERUe1h8C/Ul2r/RERERERERBXhZVMiIiIiIiKieo7BPxEREREREVE9x+CfiIiIiIiIqJ5j8E9ERERERERUzzH4JyIiIiIiIqrnGPw/hOS3IRARERERERHVFgb/RERERERERPUcg38iIiIiIiKieo7BPxEREREREVE9x+CfiIiIiIiIqJ5j8E9ERERERERUzzH4JyIiIiIiIqrnGPwTERERERER1XMM/omo3pMkQKVnIP6KD/8QycAEzUe3R1fvf26aRFQ1ydsbI0c7wsqA+yUREf37MPinByZJHuje/UUMcGiopJTVdfhx/DRpKkz/wYCrPrId/QeeWRaKSWO6KCm1z2LYUc00ynfTX14Ak4d4/cnboPvARWjmYaKkVMy010944sPLGN7LXUn5exm17YDXt07DG/NbwsNUSRRaT+2D0C0j7u8+8YbHQ7qc5WI5tvfG2mX9cGnjEJz/shs+HW4Gs79YXkkywHMfDEfgy/ZKSu2RpL744FIoLtxYhcHQllPCCHxyTaRdXo6eouxFeS6GhmL7G220eSQXzNhTkqeIJLXAS0e1eS8cfh3eZYZVPy31mNX4U3xX/n757kLoDSwbrRLjaYX5x+T+jRhvpIyn4eP4OkSkHX8bzTVl1sOYdUEVj8f3Q3TUcb50Kw8wdNX1CvP4rhkLlZxBM24LtHlyKVYfOIWjgTdwyvcAVrwyANbKsihS1TLUrTy6zHsnLPIplR4ciKNHf8Wbk5uhQdH0TG3RZ/4ELN86FiPbNtCmERER/Usw+KcHZ9gFQ7o/iuaN7ikJJSTJDg7mRribEY0MNTezByVJ9rB3dcG9rBSYuHWDcakT5tpWmHoAf26YjSOluqN7duGuMvzh5AHnR2bC263q4B/52cjPy0F+fr6S8Ddya4uFn/WAS8gZLBm3CVv8ym3/d2Kw5JPzmF26+yEW8crgh43azQtrX2uCpneisXxtAFZfKkTfp7tiWe+KL/o9FCw94GQh/kZHIqxol3EV24qh+Bsl0uR+K084y3kE5yYtlOCwMZxdxZ+iPAp1t8cw1BMokArFuK1FYFuKDtOyaZCF65cu4YrowlPFvoZcJAZp+/0vHca5gAJAzxsuTiJzUhQis+SRCI3d4awS+aPClfJ4wtXNAIVSMsKU8RV1/sfOIUTOosN86VQeMZcGmYEV5jnx51UUiuO6HJC3mP8DvlnyBLq46OF2eAxyLZqhz4tfYfFUBzGOElUtQ93Ko8O8G3rBxV58PysG10T69bBMGHl2wcRl32F+D+32qvbzxWvjtmJbiBUmfzYSQ9z+vmMqERHRw4ZRGT04a3fYQgQtyUp/GR5wECegSSkRSj89EP2esHfOQmyAD/IdOsLeQEn/O+RFIv7qAURdO1TShYVBqgcXb7LOP4df3u2Eo+fjlJS/h3w3u9fc7miSfAVfvXEZoRkVLLvsezh7LgGHLiSVdNfuIfshXc6tejujVUYU3loejJ9PxeG77y/iMz89DO5jh4Z/48Wov6SJB1zEn4LIcERqU0T86wFH8Sc7Igxx8rIWeZxEmHnvXg70vZvCW85jIwJncyBHfK9oS5EkNXpNHg57BOHqlbuAuRWs9ZSBMh2mlbjtNTw7aRKmT5iF3aFyhlBsnz1Bk/bspHnYHi7K4yHGI9+Ijo5EuJxF0PNy04zndkQocjTbRxO4yRNL3I8PJxR9X+ne2o00HedLl/Ko1Xewd5GcZyZ2aSLrSOx+WZvnjR81CUCjMZg9qy0aphzD0mGP4LGRAzHh7aO4h0bo0u+RUrUDql6GOi0fXea9sSecxB/p4mo8K/I8MbgP5mwIg0oskX4jOsgj1lBnJGLfGwdxOMUJE15sAcOHdTsmIiKqZfIvKpHOJMkMwyf5YvOCs/jl8cmwVnlh0jPnNf0/zffF663k212CoRvsDQuQlNcY0ybtwLoXj2HVkx9juE3J3UK5uujIyb5YN2wiuvVfiy9m/4HvXtiMlzu0gEHpkzHDDhg5dC0+m3EM38/ei2VjZqONkXaQJHXEczMO4TlXucqnGYZO9MFPT86Evfi+ZDINS+etRP8Gup3YSQYT8Pb803i5ff9Ky6xh2B4jhvxPlOcoNsz9HZ9OeBXdzbRnsrVZHg3PLrDVu4Hbvv5I0W8He08lXeE+JRDTZ82Dy4AfMO79QDzxzu8YOKR3maBMlzzVkSR3tJp1DU+9/Aosiqs2N0W7eTcwbc5smBalieDXpOXrGPjSaUxdchWPv74Lffv3KKlyK0hSA5i2fQeDF5zB1KWBeGzhRnRq414cKMiqK7PUeiWe+jgUzy1fj2aNAPuRZypsqmDUZ1uZZgyTx3TTpJcml8es/QcYuvBPUeYrmCzK07Wdd4XlcRu8CRMWi/K8fQgDB/W6fxk29EK37vq4sf0iQvMe7PAq9WyHm792xgsdGmPzV4Nw7YcB+H1RY/QwK5mWTnnEx8a9W2DTiv7w3zgIf37WGYt7GpVdFzqMx9VG7NMJmQiSb74KanUBDm/1w5u/p0Ffm6TbtMS20XNSR/z+v8EI/K4PfphgjoaFykCFJKng2aMZfvy0P67ITQxWdMbb3Q2hV345V6OhCJrlO8tJkaHI1QTNcvzrBhH/IjbilqbfUOSxQToCr4QBzo3RVD6miKBdji9jI0Vwq3wPhkMwerAtEHwUB4LviYjcUr5xXUyXaZXwhos8gdwoRJW/LtrYXYSowN2ocNxRxuPs4Qr5el900XjcPOAsl1OuZaBNuY/O86VRRXmKiTxyrYGCKESXm6hev77oJDaPjOO/YE+UtlZNyqnvsfLTT7F2V6CmdoBGNcuwRBXl0WHe9bzdNMvwdmQY8sS01eocXPIL1hyd9AzKHsfVeQnYuyMWhj0ao2MFlVjk7dVh5kE8eyAAk2b2KHM8ICIiqqtKnwUQ6SAXfr5v4LPdi/DTzTsozDiKH8RnuX/FnoX4NUSpJG7lBjtxAursPQyFt9bjx1MHcNukH6b0nwSL4pMoL03tgBy7fuiacwhbj32JEynW6PrIi+gjAjqZpGqGieO/xCSHZJz5czm+9TmOe05PY17/QUpgUQipUATWchBh2A/tLTORqdbXnDCbeXaFe9wZXMiWx6QDS1dR5gy4NB5RaZklVWOMH/8VJjumwdf3M6w9uRt3rCZizrCpsK3t8ggWXh1gmHIVCTGXkJRqCTuvlsqQUszHoYWjH67ufheXAzJhP+BLdGtrpgxU6JIHDaBvaAa9BiZKZwyVSjvfanUEAnd+g1TbZ9G9p7bdvGn3d9HGIQz+O/8nlpr2UKLn/goGPzkdZrd34NyOd3DZPxV2g9diQC8PzXCZvuciDJ4yGYZRG3F2+2IERlqg2ZT16OhRrlpDVWWO+B4nN8/HsZ/WIE4sz9QL74nPcv98HD+wr7ipQs7VT5QmDO8i5I6SWI6e19sY/NhYNIjYgLM7luJ6hDm8H/8Onb2UC1lFRHmaO1yC/6734X9TguOglaI8cohXiqclHPQzER5YRWMJlRpGjfRhYqgu7hooy7mEMcYPNsLpnVfx7o5E5LZogi+esCsTTFeXx7BVS6x/0RlmwWFYsjYQG24aYNy8rnizVenb1rKqx6OnVol/C6HE/hp3QhKw9WImspTgTpdpmXVvgZWTrZBxLhjv/hACfy93TLBRBioMWzTD+pdcYRkSjv+I8awX43ns5a5Y1LxmP1XeHm6QpxwTflObIHi4u2nmIipUe9faU+RRIxmBviHI0fOGt9i1jDSBs4SYsJKg3XTUBDwiVvPNQ7sQmJ4hUixhXeoxBbpMq5ixF1xEDIy4SESUXqCCvaebWBNygK659a3h6eYixpMpypOgTRBBvLP4kx4ZjtQyQXwJXedLo4ryFDPygrOcJz4KETnapCIuTbwhH6ojQ24UX1RQJ57BltWrsX5/kKZfVt0yLFZVeXSYd2cx73LliRj5IofCydFec3S6HRelTSgl5WoC7uhbwLncRVUtfRjZ2aOBgTFMbKwh7wVERER1Xc3OqOhfT63ORlz0CZy/dQLJhaYovH0Bx28dw8XQE6I7g4hs7SZlYOUsTu9yEODzFjb57cUp/+X4JSgJeuZOKD7nM3CHvThzzLr1NVae3gqfoO3YcOYIUvXsYC2fBQv6nlMxzC4MO3e+ju1XD8DH/zP8fD0exnatNHd45KBEhOQoFCeKhl694Z54FTEiuNJDQ3TwaIuwsOM6P3PAwNoFVqLMgVWU2aDJsxhtE4ytO17F1oD98AlYhdUX/aHn2BZNNDlqrzySZApH98YoiPETp/JXkBSTAwv3bmVrRcjUZ3Fl8wrc8tuBqzvn42qMOJlt3lUZqNAhj8r2GYxe6o+nlG7aknN4pIUyUJDiVsHHJxr2g96Ch9UIdBncA1ln3oV/TEk7eruOY2GevAnHN38qprUL1/fP0LTXdWg3pPguuWOX8TCLWYtjW1YhxG8r/LfMwtVYTzTt2lczvFgVZVZnXEKE/x6E+Z1HuhhtTsIRTb+mCw4ubqogJZ/TNF+IuOqDtHKBSxGnzqNhGrMOx7auFuXZBv+tsxEY44bGnR9Rcij0LsJ/kzxf23Bly5sISraAY9OOykBFowZiTefgbprSXxEnL2z7cRj8i7oNg7CskzKslNPbr2D18Xhs33MV7x27C9tWNih/6aeqPI/0c4KLCD5nrw7FtlNxWL36Er4Nb4Sx/e6/5arLtKqiy7S6drKDZVgI5q8Lw45TMVjxeQjOl7sO8cgAF7iLPLNWhWCryLNq1SWsDTfGpIHlrhJUQd7M3NydxZ6YKoJvbZskuXaHu7ud+BSP6NAcTR4PNzmUvI2Ek8GIFEcTz+am8BRBuwoJIo/2Cp1cO2nE+D4wLAzE4R3BSM+UG+NbwVIOUDXDq59WGU1EAFumDX8JT3f59rrIMvdg8QPrvpgoN96PQowSs1t5uUO+/GU+YW1xHrn7c/UYTWF0na9iVZSnmPLcAURH3JfHy0O+OHEXkaHFDR7uU90yLKOK8lQ37zJPN1dRnizEhisXSwRPDzktFzHhFVRtSBX7KgxgqFxsLk2tvoeQD/ti0zN9sPmjPfWi+RMRERF/zegBucDB3ACp6ZGa6pXlOVu4QJXli3MiYC0mx8XZGSiOi6xdYaeKg9/N6/KZljZN/JHyUpCpfK2JWzs0Sv4T51O1/cWkPORpPhSK/8RJrwi5Onq3RnDYZbl+J/T0eqCtcxQu34rV5NKFkyizWpT5bBVlbu3eEQ1vn8XlbFMYGhjDsKEzWto7AumxShvh2isP1D1g76qHlJhLKFQXICk6CCqXTrAvv7hTQpGm3CVTqyORmVqAhqYi+FBOiDV0yFOY8htOrZ2GA0p3cN1zkGsOF5GreycdehfXswehywtvwz13C878fq64aq9cZdvE0l7EHbeQrIxWrc5DxM/t8cM332raLEuSMUwtLZCTFIFspZaBgWEa0pLS0NDStWz1bl3m6y8qKk/e7dDiu9hqdQxSb2fdX57km0hRygMpCOki1mvYyFJJUIjARY6TqpQUjTeX+GJaUbf0HFbdUIYVu4uwaOWjEJGYiXsNDUTIVFrleeQ21q62BsiKz0JM8XzlICQuHxa2jco9OFKXaVVOl2nJk7MTx4uCO9mIUvKgIAshidqPsqLxpMXdRZpSM8KsUR7CY/MqKHNVXOHmJtfaiERU8c34JnBzFdMtjECEJs1N5GkIZMQg+koQwrJU8GzWEu6ucgv7KEQW3SB3moQR3Rug4PJe/Cb2hXTNXWszWFgX1VLRZVol9D3dNBcS5Wrp2jb8WpJkBHc3W3HsyEWKGBYRJnfxyJBnOTcSkUpsLV8gKBRHvqTgsg+8O3Wu6M67jvOlqKw8pam9XDXPHUgTAXlmmTJbi2nJNV+iSs17BapdhiWqKk918y5JVnBzl8sTjWjlxr+8f7u5yhegYhEdWrTzllf5TquW0pEZFY1csW0SERHVB/xFowfkBgcz+YF+RY+mKsvJUpwupkSIU2Ituf2ko7kNCtIiUXRPRt/KFdaFUYgvVR1bHbUc81bNxP5M+WTOQATk9igQ4yl5+JYeHMxtIaVGK09Hl1BYWCD+7YFOzkG4FHoPkloPBs7d0eqeLy6maDLpxLGCMjtYWBeXWT65dBWBosrheXw29xjWy92cHZjbuACnfTYhTHOyWnvlgUtn2Da8I06EY6FS6SErKlAEZR1gL7eJLUO+4FBC8/m+81kd8uTH4vbNU4gP8VE6X6TfK3uIUEvnEBwQLoJ8R6T5/4yEMu3a1XKNdjHyQnEuXtmhxQBiVmDY8aviGgZyN6CjOGnX09dUny6hy3z9VdryFJYLLAvldhv3lUesW+WT/FnuUakeoDS52fD3vw2fq8lKl4pbYnsvq1Bsb8pH4c7Bi2g1IwDHyizXqvLoQV8zX6WXoLwNi39EetmwS5dpVUXHacmLSmwbpZXt047HvHenkloRovuqd4MKylwVpd34XRHsxmhToOcFF/mGeFIEwuXYE4217dijxP4uXYOItWHv3R1udiKQT4lEhLKfejw6Fq3FtO+Z9sDCVavw1mhPMRsqWNgU3bbWZVol3ERwK8+Hpu19GU1EIC0voAtYPbI/JgwciHGjVuKanBQjxiPiVm2NAjk0jsZvC8o+8O71H4LlkQi6zVeRystTwlUE3do8Jc0RtOQyiz+5YrwV/wxoVL8MS1RWHl3n3VWe9zwR/Bff5FfSxO9M+QsfJcRWWHZDJCIiqrd0PbsjKquRO+wN7yEhtdStO4UkOcDBrAEy0yKK76Zq2vdbqpCYHFZ8p9jJwhnqrGjEVvr2NTfYm6twWwTf2rtaMg8RpOvhdmooCjRp8lmb6Jz7oGXSKVzMFQGjiOa83LsgN+xkyV3Gasiv1HM0N7y/zObqUmV2h62ZODG9+gE+3DZX2215Fgu/fRRrgpO0X6ml8siMvTrCTGWNFi/cxPSPRTdjChqpnGHvpW3wUEI+lS6h+SwCsbLns7rkqZ5kNhXdurvidthVmHZfhKalHgwnhooAUPwRAbFUKpqUVA2g1tNT0vI0TSKyr39SXMOguKbB7n3I1X5FUTtlrpq2PKpy60Ult3MvyC/Tzl0nuflijPoVViP+ZxUgXzNfpZegshuJdG2tGd1oXs0mlr6I34pZN7bH411MlLvxOk5LM5qyecr2aceTdvFaSa2Iou77eKQruapl6a55sj3io1HcyrtJE3g0EJtP2C3tK+FsPeEi9uXciDD5fjhu3kqHyrsr2svVHZQq5/J76ceNbaX5kTRt0gdDRo7E4I7a19dZWMnV+gVdplWKp7tcTT4L0WHl3jph4AUXedSJpS4YKFXgJVEebdjdBO5yjQIpElGVxeo6zFdplZanFA/NHfdcxEaUq9rfyANOcvyeIOZdOYZL6hYYOm8enn+qF6zEtqHTMiyl8vLoMO9GYhnKo4yPRETRb4pZC3jIk4u6iaD730gLmBjAUGx3uZU0CSIiIqpv5N9kopqzdIY1EpBU4Z1sTxE0i3PClFJ3ivQ84GAqzm1F0F5EUzsgLQpFN8zu1wD65bZQtWU/tLXIwPWIQCVFBIOFeXBz64yE8BPIkE84VQ5o494IfiFXlDy68BTB//1ldhQn0iVlVkNPlCcr+SICo85ruoC4ZJg7dIabYVGwWzvl0dSUcG+FwpgN+H31o9ir6Z5FQHQhrN17QK0JuhSWXjBXIjNJcoOJhR6yMxKV6EuhS55qSJINmox/FQ7pG3Hmu/dwLaMbOo1/rLgtv1pdiMyUBMCmCayU0cp37LymXMBTM6ZDflC3Wp2FjJRUGOhlIEmpZRB70xcZOQZi0Ykz9hqXWUSLIqhU68mP+ao5TXmSU2Bg4wUjZT4kyRHmNsbITo5ULjDVQGQ6kgrN4NREvn/5/0etlhCZmAtjB2M4Fs9XQ3g56CMl8W6pC1zVi7qdDdiboGnxulBj8KT2+M8gc01gr8u05MklpuVBz9oQrkXbrp4xvEvFf/J4opLy0EgvH1eUmhGn/JMRfk8FvcLC+9pcG/b+AGO+2YIePcs9D8DESAR0QiMLWIjVIEmG6DxlBORHTt44dVR5JZyb5uFxsREikhT9QTdFWOzQFq1Eee5FhiNRLrPyXvrcP95CXw8PdPLyQoeJ6zW1kCytlLvWukxLIe8/rq7iIIhoxNx3VcATzvImI6ZddBPdwMtdWwU+IlTbtKqoRkGCCG4re2ioDvNVpMryKOTnjri6ys8diLm/2nzDhpqH68HMES5iNPJ24T51Ed5YsADTulhCvoah0zJUVFkeXea9iTtc5KtJUdpnE0iSCTrNfQKd9cXyOH4Q1zWZymrUxAZWkthn738WIBERUb1U9myKSFcFeZBgg2YthosTun6i61kSADdyg51hDuKTS7VvN3eDvV4SEpK1t18kyQ4O5kbISoso0460rDDcSsyEfauX8GTb4ejVeiYWjHsaDvGbsT+y6ERUBNeFVvC0S8Xlm0kiEBTBt7olvE3O4lLlVxXuZ1R9mcXpPK7HZcG7w9t4rPUwdG8xBc+MX4t3hoyAbfF5cS2VB51g59YQabd2IibiApI03QncuhUGPbcuYsmXUtAV7Z5YiMbtJqD1+C/Q2jkVsTfOKwMVuuQxcIND6+FwbTm0pBNBSdGFBqN2i9GlRTaCf/sMd/L8cHnPduS3WITu7UpKk3R5D1KtnkD/qa+IaY1DixHr0KW1CnF+h4vb8Mad34lM7/kYMu4FeLUZgxbD1mDo7NVo71nufVu6lBk3kZqYD8u2c9Gs3Ri4txWdp7u8gWmCEWM37Xy4t+4FczF6PctOxfNmbaqdr7iLe5Du/DwGTpwD73YT0WbiGjGtSIRc8NEMr5G0MARcA1qNbKW581khQyN062qPoZ1tS7qWIoisLP8D8jkZg0gvb6yZ7YVJvRwxe3ZHPO91F7tPVPLag0pcOx2DQBNXfPhKE0zp7YBnp3fCgvYF+P1kYvGr7XSZ1rlLiUj19Mbnz3tiQi9nLFjQBD3KVeM4fSwasW2aYf1zIk8Pezw1pQN+WtIZs1qWPUbIF5U8RkyDU+POaDt6cNmLYTHnEBAjRuzwKD49/hs2/n4Sq572QkH4ZqzcoA2tG4nA2lrsq9Fh2sbqMUG3RLBqClMTbeAsbzva99Ln4tz+fSXHqLQMyI+rM7G20T4PQodplSiplh513yDta/4yRKCfrEyrqAp8jBzIy9w94CJH22YD8NqOHVi/bVtx9/ZY7YMVq5uvsiovj2QzDu+L8f6wYzOebCOn2GLQh/I0V+OxxsqyTjmN89fyoDIfhg9OHMPPh05j85I+MM26iHVf70cO9HVbhsWqWD46zLu+crFEav4UVu3Yhc1/nMKaF1oBkduxbOU5zcWQ0uSLA/1GuEB1LQJ+lVQrkZq9iSmHQzFmwv1NFIiIiOqisr+GRLqK347tN+Lg1mkxXhm7DAvHvIQumltggvwgP8SKQFrpl1lp0+KK0zw0r/lLTClXlbQU+c0CvifexW/x5uje600803MQTOP+h2W7v0N0YelN1wSN0n1wVnMCVwjJ0AzqqNO4WpNYyspNnN5WXWb5LrHPkXfwW5Itevd+GzP7TkHTvCNYvWUJLpZp+14L5bHrBjvTVCTc8lcStJKDzyHbtAMcSp+Lpu7E9fiOaDPuP+jQxhSJx16Gb0C5s1kd8qgshqPH02swqFQ3cMw4zau8pAYD0HXUCMD/Y1y8oX2NXf6Nj3A+QAXPUe/AuYF25vLDP8WRzT8iw3YSukz6EB3bmSPx8As4fqbkbD4/bBkO/7IH+Y2fQ/dHP0LH9ra4c2QGjvuUu/2mQ5nV6njc2LsMMeqB6Pr4FxjwxBfoP7i/UkW9EVyHFc3LUniLGMGo5avF89bWW5MJ+aEf4cgvu5HrOR3dJr2PVp4ZCPnlOVwIq+wWY+XkbeTw2mtIb9sD8+Y6iy2hgpVu7Yz3Xu+CNaW76U7QVoauPdmBN/DcVzHIaOaJ92a1xjPN8rD7q3P4+Fq5O7jVKBAB6ezPbiHEzhWvv9AWczurcWrDObxxuqSutC7TSv/zOl7engyzHk3xn2e90TkqAjuKWssosq8H4VkxnuzWXlg8px0WPtIQAdvOY96+snW21epcxF/wxd3sO4g5f7FMrQA1LuHL59/A7vPhyLFsCg+LLFzfuwIvT30f57O0+bw8XKFCPKJClHV8NRhyM3H59Xwx4aGA4WCMkt9Ln/Mnju4v9eqGtExkij8qK2vNu/11mVaxotfYla6WrnDycNPUjCl+n7+gfcBduiiPspDkp+6LPypjZ7To2BHtlK5tx9Ywk7QHqWrnq7QqyoMWXdFHM/5WsBcFU4kt2aWtPC0x10px1OoQfDdrLjacCEKKvhPc7cU0/tiIpVOew6Ygsd3ruAyLVVUeHebd1VP7mj89Ky+07dAK7sbJCNi+DHMmvgaf5LLrQn4ga6u5wzChzV2cWOtffMGlPD1Pb5giDklBJW8PICIiqstUnp6e5e69/P3ENBEmP4noIdG+lwf8fMrfavj/87AtH3p4uU8JRH+zFdi8Zl3xXdjydMnzsKmLZS4iv/XAdcJQLFjgBcPIEOxYfADHQurWPBDVV5J3K8xb3B2d3XJxccU+rN55+74mJUVsXjiKieNDcHjU8wgt4D5MRER1H3/NiOq6sk9Nq5gueR42dbHMgvzsg5hdB/HWtP044F8II7kZMxE9HEwbQPK/hK+mbcbXu5MrDfzl565Yu7kC4QFIrMkTMomIiB5iDP6JiP4GuZHh2Lf8d+zz42GW6GGh9ruMNcsv43Lxc2Mq0xQWLvq4e/NKFc+lISIiqltY7V9gtX8iIiIiIiKqz3g5m4iIiIiIiKieY/BPREREREREVM8x+CciIiIiIiKq5xj8ExEREREREdVzDP6JiIiIiIiI6jkG/w8hPumfiIiIiIiIahODfyIiIiIiIqJ6jsE/ERERERERUT3H4J+IiIiIiIionmPwT0RERERERFTPMfgnIiIiIiIiqucY/BMRERERERHVcwz+iYiIiIiIiOo5Bv9Ub0gSYNDAQPuBiIiIiIiIijH4/xeSJA907/4iBjg0VFLqB9dnfsKxG5fxzTPuSsrDQZIsMHVLKE6vHKmk3E+S+mHx5VCsn+mguXYx4psbOLZ8gHZYv2U4HhqM5eO0u2uHD3zgu3oMpNaLsCs0FBcr6C6EHse81rwIQkREREREWgz+/40Mu2BI90fRvNE9JaF+KMjNRm5ODrJz85WUukkt9sq4hDswtbWDgSTB2NkR6qwcOLi4ai4MONpbIykhFgjfjv/Ono1X5e7DA0gU/x35UNv/2ux3sDdcGSEREREREf3rMfj/N7J2hy1iEZ+s9NcT8T8/h4EtOmH+z3FKSt0VH58IlbUd7MVndxH8R4aEwM7JTfTZw96+ARLjoqDOvIVzhw7huOiOno1EDu4h+uwBTf/xQz4Iy+TuTUREREREWowO6gC52vjIyb5YN2wiuvVfiy9m/4HvXtiMlzu00NwZLmbYHiOG/A+fzTiKDXN/x6cTXkV3Mz3NIEkyw/BJvti84Cx+eXwyrFVemPTMeU3/T/N98XorQ20+wylYPP8oZnmUjFeymIFl8/djurM2TZfySAYT8Pb803i5fX9Mm7QD6148hlVPfozhNjVraiCpPTF8yU/YcT4AviHBOHXud6xcNAh2pebbbua2MlXeD3zQTRlSQpKs0PmltdjiGwCfKyfxzetjMGtLKE5+PlTJAQxeGYgLW+Zh0MJN2OUXiD/OHsLnC3rBqtS0JKkB3Ea/g68PncGJ64E4fHgjFoxyh16ZPFboMn8dtp4NwOlLR/H13E4wLBmsk/i4BOTb2MJOfHZyskJM4E0YODnDEC6ws8vFHTG8JiTJAA4zD+LZAwGYNLMHVKW3GyIiIiIiqvcY/NcJXnCwAHLs+qFrziFsPfYlTqRYo+sjL6JPI20OSdUY48d/hcmOafD1/QxrT+7GHauJmDNsKmw1gV4u/HzfwGe7F+Gnm3dQmHEUP4jPcv+KPQvxa8hd7YisXUXAWa5WgKULbBCDhDtKvw7lgaU8ngy4NB6Bwlvr8eOpA7ht0g9T+k+CRQ0CT6dnluG9Rx0QvH4x3n1xAZZvDIP7c1/h3am2Sg4g9eAn2qrvs9/FwSglsRzTke9j2fzuyPtjFT5+fzUuezwJEbPfz3EcJjS7hA0fvI8fzkjoPG8lXh1lrgwEDLsuwlefT4aF/0aseHMxNvtZYNzn6zGvs4GSQzutj1/qhMxDX+LjJWsR2PopjHRWBuqoIDYBKZY2sFVbwcEpC/GXRL+DC5zUTrCxvo2EmJoG7/owsrNHAwNjmNhYQ6WkEhERERHRvwOD/7rAwB32IqjOuvU1Vp7eCp+g7dhw5ghS9exgbaxkafIsRtsEY+uOV7E1YD98AlZh9UV/6Dm2RRMxXK3ORlz0CZy/dQLJhaYovH0Bx28dw8XQE6I7g4hs7aZgJAJ98wIR/KdrejVsLJ1gmB2NWOX6gE7lsXaBFXIQ6PMWNvntxSn/5fglKAl65k6aquy6atK8MQyubcWnq7bi8MF92PXlQiyY+Qa2ByoZhNyIc9qq7wd8EJWlJJbTfkBvmAdtwFuvrsZvu37Fmrkr8GdF8bPBRWyY8yl27tyGbxe8iT3RFujSp6MyEOj22Hi4XF2LV19ZhT27tuK7V2Zh4zVPjJ7SV8kBdJSnFfg93nlnLfZqpvUNLusrA3UVG487DWxEoO8OJ4d4xJ+NQ5KDI1ztHWHXIAHxlVzkqIxafQ8hH/bFpmf6YPNHeyDJDxYgIiIiIqJ/DUYAdYF8N14VB7+b1+UoTpsm/kh5KcjM0fa2du+IhrfP4nK2KQwNjGHY0BktRaCI9FiUbQHvAgdzA6SmRyKvggDQxdJZfCcSsaUCYydLFyAtGjFKvy7lcbJwgTrLF2djlARZoeiyM5Cm7dPJzRu3kN/yMbz15gyMG90fHZsbIeroLpwIKK6GUC1JUsPOxgKIiUREUXnzgxFeUQAdeRM385TPUhAiIgFTC0ttr2QMJycLpIdHIMPMDMYmJjA1S0NkWBrMnVxhJEmaadmIaRXExSCmeFpBCKthsI4YEezn28DKyQ32JnGIi4xDIpzg0MIBtrkJSKpZrX8NtZSOzKho5IoyEhERERHRvwujgDpA38oV1oVRiC8V76qjlmPeqpnYn6nWtDF3tbSAyuF5fDb3GNbL3ZwdmNu4AKd9NiGsTJDvBgczICnl/kfBy4Grs6U9pNSSQF+SDOFkbom89EjcVtKqK4/M0dIRSImAiJ01NG3OLaxRkBaJmsStsT+8jsWbbsF6yPOYv/xbfHvQF4cPf46hLjWp9q5C4X313CXNtYj7SShQPsmfJZFJpSr6sgH0DADzMV/hD3//4u6jMeZikD4aaPIo0yosPfbKplWFglgkJtvApo0zHFLkCzixuH3bAY6d7WEpIv9YJRsREREREZEuGPzXAU4WzlBnRSO20jfYucNWBPSxVz/Ah9vmarstz2Lht49iTXCSkkfRyB32hveQkJqoJJTmDFtTfU2tgILiCwbemvb98Xduia1Fm1ZdeSTJHo7mhshMi0BW8Xi84GCuFgFtGArLXIyomrogHAf/MwNPD+yBPi1bY8SkxbhgOh7zZ/ZSclRPrS5AVsZdwMy81PMGHGBjpXzUWR4K8oC0459g9rRpZbo5S/YhQ5OnECo50i++YCBTl2ljL7WcjNc/nIFOZZ4CqA99fSA/N1fpF8F+ojGsOnjDJjYWkYhAQoIjmrezhUF8HKKVXERERERERLpg8F8HOMl30dOiSqrd30cNPbEms5IvIjDqvKYLiEuGuUNnuJV/zLylM6yRgKQUpb+MhvINbBG/loSqart+aGN2G9ejQpQUXcrjKYJ/ICElVOkX9DzgaAYkppZKq4Ycp7d5cinemNZR83R6tXQP8Rc24ciVXFg7uYp+3e/+B/hdQ16HqVjwaAc42Lmhy8wXMaAmDx8Q1OosxMamopFBBgJPncI5Hx/4nvJFZKaBKEu+ph29Wi0h8XYq9Byd4VxUPv1m8HTVftRQeaHHlOcxopv2DQsaTdugqXEaYsKL6lfEiGA/H1bNm4tgPwbZ6nuiPwfNWnojNzEOqTW4gEJERERERMQI4iEnSXZwMDdCVloEMisN+G7gelwWvDu8jcdaD0P3FlPwzPi1eGfICNiW1GHXKsiDBBs0azEcnbz6ia5nqQsEEbiZkCoCzpmY0rI/Ord4HgtHPw6LyB9xQIn0dSqPkRvsDHMQn1yqcrq5G+z1kpCQfE9JqJ48+hy7zhj/5n+xePYkDB46EmNmLcf0PnoIueqvCbY1TRU6DUX/oUMxcHgvuBoDDZw7afrlrpW9dt5iN/4H35w1wtBPdmKv7zEsHxyN80GaQTVy9tediO8xH18ufQGjRo/Bo6+vwTe/rsYzXUteYeh3/DTSWj2DpXKesY9h1tdz0bl0vf+AX7HHzwwj//stXnp6AkY8/jKWr3kO7qHbsO0PbRa1uhBxCclwcXfH7Tjtff64hCRYWFoiKb7yyy5VkZq9iSmHQzFmQsmbEoiIiIiI6N+Bwf9Dz0NT7T4xpaj1/P3kO9I+R97Bb0m26N37bczsOwVN845g9ZYluJhXbhXHb8f2G3Fw67QYr4xdhoVjXkIX5Qa0Wp2H8yfexa5YM/Tq+wFmPTIExlFf4aN9vyCxeFOpvjywcoNt+dcFWmlfIRhXOk0HN75eiI/2pqPdjCVYuvpzLHqhMzL2vo13V11TcjRC71fW4NM1crcUw1wBiwGvKv1r8ExPbS51rj++n9oXIwaNw7Nj+mLko9+hps/gk2WfW4aXFu5Bdo/n8NonH2H2GFtcXzkDb64vGVvG3g/w1teXYDriZby5eCba3fwJ+0rV01erw/HDzOfwnZ8ZBs5bgrcWTYZr5CYsevYTBBaUrK/4+AQYmxgjKTZC0x8bF6/5mxT/YJX+9Ty9YYo4JAU9wNMCiYiIiIioTlN5enrW+Flkf5WYJsLCwpS+/3/te3nAz+f+B+BR/SVJrbDwxG8YePJRjP7ggpJav9m8cBQTx4fg8KjnEVrqIgMREREREdV/jADoX8OqZX9tc4BhYzBl6RKM8UjE+ZMBytD6TX7bgrWbKxAegMSiVxkSEREREdG/BoN/+tdo/vRyTVOA5as+wayB+vjzwzlYcUz3ZxDUbU1h4aKPuzevVPHsCCIiIiIiqq9Y7V9gtX8iIiIiIiKqz3gLkIiIiIiIiKieY/BPREREREREVM8x+CciIiIiIiKq5xj8ExEREREREdVzDP6JiIiIiIiI6jkG/wKf9E9ERERERET1GYN/IiIiIiIionqOwT8RERERERFRPcfgn4iIiIiIiKieY/BPREREREREVM8x+CciIiIiIiKq5xj8ExEREREREdVzDP4roDLQg55aUvqIiIiIiIiI6jYG/xVo/dp0rP9jNj7/pj96uquUVCIiIiIiIqK6Sc/S0nKx8vkfI6aJ1NRUpe/hkxURh6CAVJg80gEjO+fijz1xyFbxIgARERERERHVTbzzX4GsyHhcOXIFvx1Lhb6DOayVdCIiIiIiIqK6iMF/FSxsjIGkdCQp/URERERERER1EYP/SkhSAzg6NUR2bBrS1VxMREREREREVHcxqq2UGSxsgNSEDKWfiIiIiIiIqG5i8F+pdMRF5sGytTuaOhrC0NgAhoZicUl8BSARERERERHVLSpPT89C5fM/RkwTYWFhSt/DS7LyxMxvhqK3q76mvzDBHx+OOYFgNgMgIiIiIiKiOoTBfyUkSYX27z2Nl9vEYsu6G4hOLUBhbgZC/VKRzeCfiIiIiIiI6hBGsZWyQsu2xkg6eRGHjkQi8EIMrvmnM/AnIiIiIiKiOoeRbKXuIjMdMLUyVvqJiIiIiIiI6iYG/5VQq+8hPjYfJk4WMOJD/oiIiIiIiKgOY/BfhcT4DMDOFPZKPxEREREREVFdxOC/AioDPZg4O6BzW1PgXi7uKelEREREREREdRGD/wq0fm06Vm+bhNEeydi30h8JfMgfERERERER1WF81V8FjN0c4GKWjdigZGTkMfAnIiIiIiKiuo2RbQWyIuMRdDWVgT8RERERERHVC4xuiYiIiIiIiOo5Bv9ERERERERE9RyDfyIiIiIiIqJ6jsE/ERERERERUT3H4J+IiIiIiIionmPwT0RERERERFTPMfgnIiIiIiIiqucY/BMRERERERHVcwz+iYiIiIiIiOo5Bv9ERERERERE9RyDfyIiIiIiIqJ6jsE/ERERERERUT3H4J+IiIiIiIionmPwT0RERERERFTPMfgnIiIiIiIiqucY/BMRERERERHVa8D/AbPl3JXUEIBDAAAAAElFTkSuQmCC;" parent="1" vertex="1">
          <mxGeometry x="1310" width="643" height="392.84" as="geometry" />
        </mxCell>
        <mxCell id="kr8paNhLtI3nxgarg2Cw-2" value="" style="ellipse;html=1;shape=startState;fillColor=#000000;strokeColor=#ff0000;" parent="1" vertex="1">
          <mxGeometry x="1390" y="150" width="20" height="20" as="geometry" />
        </mxCell>
        <mxCell id="kr8paNhLtI3nxgarg2Cw-3" value="" style="edgeStyle=orthogonalEdgeStyle;html=1;verticalAlign=bottom;endArrow=open;endSize=8;strokeColor=#ff0000;rounded=0;entryX=1;entryY=0.25;entryDx=0;entryDy=0;" parent="1" source="kr8paNhLtI3nxgarg2Cw-2" target="kr8paNhLtI3nxgarg2Cw-5" edge="1">
          <mxGeometry relative="1" as="geometry">
            <mxPoint x="1050" y="160" as="targetPoint" />
          </mxGeometry>
        </mxCell>
        <mxCell id="kr8paNhLtI3nxgarg2Cw-5" value="&lt;li&gt;&lt;strong&gt;Nếu &lt;code data-copier-init=&quot;true&quot;&gt;isRefresh&lt;/code&gt; là &lt;code data-copier-init=&quot;true&quot;&gt;true&lt;/code&gt;:&lt;/strong&gt; Thời gian hết hạn (&lt;code data-copier-init=&quot;true&quot;&gt;expiryTime&lt;/code&gt;) sẽ được tính lại bằng cách cộng thêm một khoảng thời gian (&lt;code data-copier-init=&quot;true&quot;&gt;REFRESHABLE_DURATION&lt;/code&gt;) vào thời gian hết hạn hiện tại của JWT.&lt;/li&gt;&lt;li&gt;&lt;strong&gt;Nếu &lt;code data-copier-init=&quot;true&quot;&gt;isRefresh&lt;/code&gt; là &lt;code data-copier-init=&quot;true&quot;&gt;false&lt;/code&gt;:&lt;/strong&gt; Thời gian hết hạn (&lt;code data-copier-init=&quot;true&quot;&gt;expiryTime&lt;/code&gt;) sẽ giữ nguyên như thời gian hết hạn ban đầu của token.&lt;/li&gt;" style="text;html=1;align=center;verticalAlign=middle;whiteSpace=wrap;rounded=0;" parent="1" vertex="1">
          <mxGeometry x="930" y="190" width="360" height="30" as="geometry" />
        </mxCell>
        <mxCell id="kr8paNhLtI3nxgarg2Cw-8" value="" style="ellipse;html=1;shape=startState;fillColor=#000000;strokeColor=#ff0000;" parent="1" vertex="1">
          <mxGeometry x="1660" y="10" width="20" height="20" as="geometry" />
        </mxCell>
        <mxCell id="gJT7Ozx1iSPec1rzw4jr-1" value="Gia tri de kiem tra" style="text;html=1;align=center;verticalAlign=middle;resizable=0;points=[];autosize=1;strokeColor=none;fillColor=none;" vertex="1" parent="1">
          <mxGeometry x="1120" y="5" width="120" height="30" as="geometry" />
        </mxCell>
        <mxCell id="gJT7Ozx1iSPec1rzw4jr-3" value="" style="edgeStyle=orthogonalEdgeStyle;html=1;verticalAlign=bottom;endArrow=open;endSize=8;strokeColor=#ff0000;rounded=0;exitX=0;exitY=0.5;exitDx=0;exitDy=0;" edge="1" parent="1" source="kr8paNhLtI3nxgarg2Cw-8">
          <mxGeometry relative="1" as="geometry">
            <mxPoint x="1240" y="20" as="targetPoint" />
            <mxPoint x="1400" y="170" as="sourcePoint" />
          </mxGeometry>
        </mxCell>
      </root>
    </mxGraphModel>
  </diagram>
</mxfile>
